<?xml version="1.0" encoding="UTF-8"?>
<svg id="Layer_2" data-name="Layer 2" xmlns="http://www.w3.org/2000/svg" viewBox="0 0 230.06 129.38">
  <defs>
    <style>
      .cls-1 {
        fill: #ddffca;
      }
    </style>
  </defs>
  <g id="OBJECTS">
    <g>
      <path class="cls-1" d="M150.46,10.29c1.33,1.34,2.77,1.74,4.3,1.19-.12-1.22.09-2.41.76-3.48.45-.72,1.05-1.2,1.92-1.31,1.47-.18,2.47.88,2.17,2.33-.2.99-.79,1.77-1.5,2.45-.3.29-.62.56-.92.83.81,1.64,3.73,2.82,5.72,2.14.02-.37.02-.78.07-1.19.11-1.04.82-1.9,1.74-2.11.73-.17,1.34.09,1.82.63.5.57.57,1.25.16,1.88-.39.59-.9,1.11-1.39,1.71.33,1.36,1.2,2.2,2.68,2.46.13-.67.19-1.34.39-1.97.59-1.79,2.47-2.57,4.09-1.73,1.51.77,1.94,2.45,1,3.87-.68,1.03-1.74,1.42-3.01,1.76.74,1.11,1.68,1.65,2.96,1.83.12-.29.23-.55.34-.81.3-.73.78-1.31,1.47-1.69.91-.5,2.01-.27,2.63.51.59.75.58,1.8-.21,2.52-.6.55-1.38.91-2.16,1.4.35,1,1.06,1.65,2.32,1.75.21-.3.36-.66.64-.89.57-.48,1.15-1.01,1.81-1.31.73-.33,1.62.1,1.97.73.35.62.26,1.41-.37,1.96-.47.4-1.06.67-1.61.97-.25.13-.54.19-.87.31.2,1.39.71,2.45,2.14,2.94.37-.48.7-.96,1.08-1.41.61-.73,1.38-1.11,2.34-1.01.75.08,1.41.35,1.7,1.12.29.75.06,1.42-.45,1.99-.62.69-1.42,1.03-2.33,1.18-.95.16-1.11.32-1.03,1.22.05.57.24,1.12.43,1.98.34-.54.53-.83.71-1.12.88-1.39,2.09-2.31,3.69-2.69,1.25-.3,2.46.17,3.01,1.1.52.88.39,2.14-.38,3.08-1.12,1.37-2.66,1.89-4.36,1.99-.33.02-.67-.03-1.01-.05-.45,1.73.83,4.05,3.1,5.54.13-.35.25-.69.38-1.02,1.59-3.97,5.44-8.18,11.75-7.72.98.07,2,.39,2.89.83,1.57.78,2.24,2.19,1.95,3.9-.19,1.14-.65,2.24-.97,3.29.65,1.29,1.3,2.59,2.04,4.07.74.09,1.74.18,2.74.33,2.97.44,5.59,1.64,7.81,3.65.59.53,1.13,1.17,1.52,1.86.46.83,1.13,1.14,1.99,1.35,2.47.61,4.65,1.78,6.4,3.66,1.25,1.35,2.21,2.88,2.91,4.58.84,2.02.82,4.03-.03,6.04-1.79,4.25-4.84,7.08-9.36,8.19-.84.21-1.39.57-1.88,1.3-2.05,3.06-5.06,4.65-8.57,5.39-1.23.26-2.5.36-3.56.5-.71,1.43-1.36,2.73-2.04,4.1.28.85.73,1.81.93,2.83.46,2.31-.54,3.95-2.77,4.75-1.77.64-3.58.58-5.38.15-4.13-.97-6.73-3.68-8.37-7.46-.13-.31-.22-.64-.32-.96-1.87.77-3.37,3.22-3.29,5.43.32,0,.65,0,.97,0,1.22-.04,2.38.26,3.36.96.63.45,1.23,1.07,1.58,1.76.84,1.65-.18,3.36-2.03,3.47-2.02.12-3.42-1-4.57-2.51-.25-.33-.43-.71-.79-1.32-.21.68-.4,1.13-.48,1.6-.18,1.14,0,1.38,1.17,1.6.86.16,1.62.5,2.19,1.17.5.58.72,1.25.41,2-.29.7-.89.97-1.61,1.05-.96.11-1.76-.2-2.38-.93-.38-.45-.71-.93-1.11-1.45-1.44.41-1.92,1.5-2.16,2.9.36.14.73.22,1.04.4.54.31,1.11.62,1.56,1.04.51.47.59,1.12.28,1.75-.31.64-.89.89-1.57.87-.91-.03-1.59-.53-2.14-1.21-.26-.32-.48-.69-.72-1.05-1.22.05-1.94.71-2.4,1.85.34.14.67.21.94.39.52.35,1.08.68,1.48,1.15.61.72.54,1.66-.02,2.33-.56.67-1.48.92-2.29.6-.74-.29-1.28-.82-1.62-1.53-.16-.34-.29-.69-.44-1.08-1.25.08-2.16.66-2.97,1.72.48.19.89.34,1.29.51,1.12.47,1.92,1.25,2.14,2.47.22,1.25-.54,2.43-1.78,2.87-1.38.48-2.81-.03-3.5-1.28-.2-.36-.34-.78-.43-1.18-.1-.4-.11-.83-.16-1.24-1.48.07-2.08.57-2.77,2.35.38.41.81.81,1.16,1.28.73.96.63,1.94-.19,2.57-.82.63-2.1.52-2.68-.42-.44-.72-.57-1.62-.88-2.56-1.82-.56-4.03.22-5.54,2.11.29.27.64.51.88.84.54.74,1.1,1.49,1.49,2.31.35.73.16,1.52-.46,2.09-.66.61-1.49.69-2.24.26-.53-.3-1.02-.76-1.36-1.26-.69-1.01-.81-2.2-.71-3.43-1.72-.47-3.08.11-4.38,1.21.51.43,1.01.76,1.39,1.2.43.51.82,1.07,1.1,1.67.36.76.19,1.51-.44,2.08-.61.55-1.35.7-2.13.35-1.48-.66-2.29-1.81-2.44-3.43-.02-.25,0-.5,0-.88-2.15-.52-4.02.21-5.98,1.33.38.44.68.78.98,1.12.65.75,1.14,1.58,1.27,2.58.11.89-.06,1.71-.84,2.25-.78.54-1.61.41-2.41.01-1.3-.66-2.11-2.33-1.88-3.87.06-.42.17-.82.26-1.23-1.38-.42-2.39-.2-3.94.89.28.35.56.69.85,1.03.61.74.98,1.58.95,2.56-.05,1.56-1.31,2.36-2.74,1.72-1.13-.51-1.82-1.39-1.86-2.65-.02-.71.12-1.42.19-2.24-1.32-.92-2.76-.74-4.37-.17.25.39.52.71.68,1.07.29.69.66,1.39.74,2.11.17,1.42-.52,2.4-1.71,2.74-1.26.36-2.65-.17-3.29-1.31-.66-1.18-.72-2.41-.1-3.64.17-.33.38-.64.61-1.03-1.49-.81-2.85-.56-4.33.23.24.3.48.53.62.8.37.75.8,1.49,1.01,2.29.25.94-.15,1.74-.97,2.29-.84.56-1.73.49-2.49-.07-.56-.42-.97-1.03-1.5-1.61-.73.57-1.24,1.62-2.53,1.63-1.33.01-1.91-.93-2.7-1.73-.27.4-.5.79-.78,1.14-.79.95-2,1.25-2.95.77-1.01-.52-1.52-1.58-1.1-2.81.32-.94.89-1.78,1.4-2.76-1.23-.79-2.6-.91-4.18-.25.19.33.35.6.5.87.7,1.24.72,2.51.08,3.76-.62,1.21-2.04,1.8-3.35,1.43-.99-.28-1.63-1.06-1.73-2.11-.09-.97.14-1.84.68-2.65.23-.35.47-.69.71-1.04-1.52-.83-2.81-.8-4.31.05.07.75.21,1.5.18,2.24-.04,1.26-.73,2.14-1.86,2.64-1.43.64-2.68-.16-2.73-1.72-.03-.88.27-1.66.8-2.35.3-.4.65-.77,1.03-1.23-1.18-.93-2.46-1.25-3.98-1.07.09.51.19.95.26,1.39.22,1.5-.52,3.13-1.75,3.81-.82.46-1.69.63-2.52.06-.83-.57-1.06-1.47-.81-2.37.22-.79.66-1.54,1.07-2.26.25-.43.64-.77,1.08-1.29-1.84-1.2-3.71-1.81-5.94-1.38,0,.32.02.6,0,.88-.12,1.63-.94,2.77-2.41,3.44-.82.37-1.59.21-2.22-.42-.6-.6-.73-1.38-.33-2.1.38-.69.91-1.31,1.42-1.91.26-.31.64-.53,1.05-.86-1.31-1.1-2.67-1.68-4.39-1.23.09,1.22-.06,2.38-.68,3.44-.38.64-.87,1.13-1.6,1.37-.74.25-1.43.17-2.02-.35-.6-.53-.72-1.23-.54-1.98.22-.94.77-1.68,1.45-2.34.32-.32.66-.62.99-.92-.92-1.64-4.09-2.86-5.81-2.05,0,.37.04.79,0,1.21-.13,1.14-1.04,2.03-2.06,2.06-.69.02-1.23-.26-1.62-.82-.41-.59-.39-1.22,0-1.78.38-.55.86-1.04,1.36-1.64-.3-1.33-1.14-2.18-2.67-2.46-.12.63-.18,1.25-.35,1.83-.49,1.65-1.93,2.47-3.53,2.07-1.96-.49-2.75-2.57-1.5-4.16.42-.54,1.09-.9,1.69-1.28.31-.2.7-.26,1.16-.42-.69-1.15-1.66-1.65-2.92-1.81-.16.39-.24.78-.46,1.06-.41.52-.84,1.07-1.38,1.43-.84.55-1.88.3-2.52-.44-.63-.73-.63-1.76.1-2.54.36-.39.86-.67,1.32-.95.28-.17.61-.25.97-.39-.46-1.13-1.17-1.79-2.39-1.87-.29.41-.56.84-.89,1.22-.54.63-1.22,1.06-2.08,1.05-.69,0-1.23-.3-1.52-.95-.27-.61-.16-1.2.3-1.64.42-.4.93-.72,1.43-1.01.32-.18.71-.25,1.12-.39-.03-1.44-.66-2.4-2.02-3.02-.37.48-.71.95-1.07,1.4-.67.82-1.53,1.17-2.58,1.02-1.5-.22-2.11-1.57-1.25-2.82.47-.7,1.18-1.06,1.97-1.31.5-.16,1.31-.25,1.42-.56.2-.58,0-1.3-.07-1.96-.02-.18-.19-.34-.34-.61-.23.38-.4.66-.57.94-.7,1.17-1.72,1.96-2.96,2.48-.12.05-.24.1-.36.13-1.41.41-2.78,0-3.38-1.02-.61-1.02-.34-2.44.71-3.46,1.08-1.05,2.42-1.52,3.91-1.58.38-.01.75,0,1.12,0,.4-1.82-.91-4.15-2.98-5.42-.66,1.21-1.22,2.49-1.99,3.63-2.12,3.14-5.12,4.84-8.92,5.08-1.33.08-2.62-.09-3.84-.66-1.87-.87-2.72-2.42-2.31-4.44.21-1.02.63-2,.96-2.98-.64-1.28-1.31-2.62-2.04-4.07-1.03-.14-2.25-.24-3.44-.48-3.75-.77-6.9-2.5-8.97-5.84-.34-.55-.82-.66-1.36-.79-4.51-1.09-7.63-3.81-9.49-8.04-.96-2.18-.97-4.32-.02-6.51,1.83-4.18,4.87-6.94,9.34-8.03.77-.19,1.31-.52,1.78-1.22,2.24-3.33,5.55-4.96,9.41-5.6.95-.16,1.92-.23,2.9-.35.26-.7.46-1.44.79-2.11.31-.64.76-1.21,1.22-1.92-.15-.32-.35-.72-.54-1.13-1.67-3.65.02-6.58,4.02-6.92,6.33-.53,10.31,3.55,12,7.74.13.31.22.64.33.96,2.03-1.05,3.44-3.44,3.2-5.5-1.22.18-2.41,0-3.55-.51-.83-.37-1.54-.88-2.05-1.65-.6-.92-.72-1.9-.18-2.87.48-.87,1.65-1.34,2.77-1.12,1.71.34,3,1.3,3.92,2.77.18.28.34.57.63,1.05.2-.65.4-1.11.49-1.59.19-1.12-.03-1.29-1.15-1.62-.75-.22-1.49-.6-2.1-1.08-.62-.49-.87-1.25-.53-2.06.34-.81,1.04-1.06,1.84-1.11.86-.05,1.57.3,2.13.94.39.44.72.93,1.08,1.39,1.41-.36,1.99-1.14,2.12-2.86-.57-.24-1.17-.42-1.71-.73-1.19-.68-1.56-1.77-.96-2.62.6-.85,1.79-.98,2.82-.17.58.46,1.03,1.09,1.58,1.68,1.24-.08,1.59-.33,2.31-1.79-.26-.1-.53-.18-.76-.31-.47-.27-.99-.51-1.38-.88-.82-.77-.89-1.85-.27-2.63.66-.82,1.8-1,2.74-.43.88.54,1.33,1.38,1.59,2.38,1.35-.03,2.26-.68,3.04-1.75-.43-.15-.79-.23-1.12-.39-.45-.22-.92-.45-1.3-.77-.91-.77-1.29-1.78-.97-2.96.27-.99,1.38-1.77,2.5-1.85,1.28-.09,2.26.44,2.77,1.59.32.71.42,1.53.63,2.3,1.48-.19,2-.64,2.67-2.4-.38-.4-.81-.8-1.16-1.27-.74-.97-.64-1.93.2-2.57.82-.63,1.92-.54,2.61.31.33.41.51.95.66,1.47.1.35.02.75.02,1.2,2.4.51,4.24-.31,5.88-2.05-.4-.38-.82-.68-1.12-1.08-.48-.63-.97-1.29-1.28-2.01-.4-.92-.13-1.8.51-2.3.64-.51,1.71-.53,2.51-.03.92.58,1.36,1.5,1.58,2.51.14.61.13,1.25.21,2.08,1.55.49,2.89-.16,4.29-1.2-.29-.27-.55-.45-.75-.69-.57-.67-1.2-1.3-1.65-2.05-.45-.74-.33-1.56.31-2.22.57-.59,1.54-.75,2.36-.33,1.39.7,2.18,1.84,2.25,3.42.01.24-.02.49-.04.83,2.24.48,4.11-.19,5.99-1.36-.4-.47-.73-.84-1.04-1.22-.64-.76-1.09-1.61-1.18-2.62-.17-1.86,1.34-2.95,3.06-2.21,1.37.59,2.29,2.26,2.09,3.87-.06.45-.17.9-.25,1.35,1.31.42,2.47.15,3.93-.92-.29-.35-.59-.69-.88-1.04-.66-.82-1.03-1.75-.9-2.82.15-1.25,1.17-1.9,2.39-1.55,1.19.34,2.13,1.43,2.18,2.68.03.75-.11,1.5-.17,2.28,1.32.9,2.52.96,4.3.13-.23-.35-.51-.67-.66-1.03-.28-.65-.61-1.32-.69-2-.17-1.45.48-2.42,1.67-2.76,1.34-.39,2.74.16,3.37,1.36.63,1.2.65,2.43.02,3.65-.17.33-.38.64-.6,1.01,1.53.64,2.92.54,4.34-.31-.3-.38-.62-.67-.8-1.03-.33-.67-.67-1.37-.83-2.09-.22-.96.2-1.74,1.03-2.27.85-.54,1.74-.44,2.49.14.55.43.96,1.04,1.43,1.56,2.16-2.54,3.75-1.83,5.24.09.32-.43.58-.89.93-1.26,1.07-1.14,2.63-1.13,3.56-.02.54.65.67,1.41.38,2.15-.38.96-.92,1.86-1.41,2.84,1.27.74,2.65.85,4.19.21-.23-.38-.43-.7-.6-1.03-.64-1.22-.61-2.45.03-3.65.7-1.31,2.4-1.85,3.73-1.22,1.19.56,1.71,2.01,1.15,3.51-.28.74-.74,1.41-1.18,2.23,1.44.71,2.84.68,4.28-.06-.07-.8-.2-1.55-.19-2.29.02-1.27.89-2.37,2.07-2.76,1.31-.44,2.41.28,2.52,1.65.08.98-.26,1.83-.85,2.59-.28.36-.6.7-.97,1.12,1.15.97,2.43,1.26,4,1.1-.11-.53-.23-.97-.29-1.41-.24-1.63.69-3.39,2.11-3.98,1.72-.72,3.28.39,3.01,2.24-.12.8-.55,1.58-.95,2.31-.28.51-.74.91-1.13,1.36,1.24,1.31,3.75,1.96,5.82,1.45,0-.25-.02-.53,0-.81.09-1.47.81-2.56,2.07-3.29.86-.5,1.85-.4,2.49.17.66.59.85,1.5.32,2.43-.37.65-.92,1.2-1.42,1.76-.24.27-.57.47-.86.71ZM183,92.2c.07-.55.09-1.19.23-1.8.55-2.35,2-4.08,3.92-5.42.54-.38.8-.77.89-1.41.1-.75.28-1.5.55-2.2.26-.69.41-1.34.32-2.09-.31-2.39.29-4.53,1.85-6.38.33-.39.44-.78.41-1.27-.12-2.24.26-4.38,1.3-6.38.19-.37.22-.68.02-1.06-1.07-2.04-1.42-4.22-1.35-6.51.01-.38-.13-.85-.37-1.14-1.61-1.95-2.15-4.17-1.87-6.64.05-.44-.02-.92-.13-1.36-.22-.94-.56-1.86-.74-2.81-.11-.59-.35-.95-.84-1.3-2.53-1.82-4.21-4.14-4.17-7.16-1.75-1.63-2.13-3.52-1.92-5.6-2.25-.78-3.11-2.5-3.47-4.65-2.2-.27-3.4-1.7-4.04-3.61-2.38-.58-3.53-1.17-4.45-2.6-.54-.84-1.17-1.31-2.11-1.6-1.56-.5-3.19-1-3.43-3.09-3.4.72-5.99-.5-8.11-2.94-2.37.62-4.42.04-6.15-1.55-.58-.53-1.1-.61-1.81-.52-2.42.31-4.61-.36-6.55-1.82-.45-.34-.83-.41-1.38-.32-1.83.29-3.53-.12-5.07-1.15-.28-.18-.55-.36-.82-.54-2,1.14-4.01,1.06-6.04.28-.42-.16-.8-.37-1.31-.09-2.11,1.16-4.23.99-6.28-.18-.49-.28-.9-.32-1.42-.08-.87.4-1.82.47-2.73.24-.64-.16-1.23-.06-1.86,0-.82.07-1.7.02-2.49-.21-.66-.19-1.16-.2-1.77.14-1.94,1.07-3.95,1.21-5.94.17-.52-.27-.92-.23-1.42-.02-1.35.57-2.77.8-4.22.48-.69-.15-1.34-.46-2-.69-1.81,1.43-3.81,2.03-6.08,1.61-.25-.05-.6.03-.8.18-2.19,1.71-4.64,2.35-7.38,1.95-.28-.04-.68.09-.89.29-1.86,1.75-4,2.47-6.54,1.82-2.11,2.52-4.76,3.6-8.06,2.97-.39,1.36-1.02,2.3-2.45,2.68-1.43.38-2.7,1.07-3.58,2.5-.82,1.34-2.39,1.8-3.97,2.04-.65,2.02-1.92,3.38-4.06,3.67-.35,2.21-1.28,3.88-3.49,4.65.26,2.12-.11,4.02-1.89,5.49.05,2.7-1.23,4.88-3.33,6.57-1.03.83-1.89,1.61-1.85,3.05.01.4-.19.83-.37,1.2-.32.67-.42,1.34-.32,2.08.3,2.38-.31,4.51-1.83,6.4-.26.32-.41.84-.4,1.26.06,2.24-.3,4.38-1.33,6.38-.19.37-.23.68-.02,1.06,1.07,2.04,1.43,4.22,1.35,6.5-.01.38.13.85.37,1.14,1.63,1.99,2.16,4.26,1.85,6.77-.05.4.03.83.13,1.23.23.94.56,1.86.74,2.8.11.59.36.96.85,1.3,2.53,1.81,4.19,4.14,4.18,7.21,1.79,1.57,2.08,3.49,1.92,5.57,2.3.76,3.11,2.56,3.47,4.66,2.28.25,3.36,1.75,4.07,3.62,2.23.35,3.92,1.41,4.97,3.4.09.17.28.31.46.39.81.34,1.62.8,2.47.95.96.16,1.37.71,1.68,1.5.12.31.29.59.48.96,3.26-.58,5.91.52,7.98,3,2.58-.68,4.67.09,6.47,1.81.36.34.68.37,1.13.3,2.56-.44,4.87.25,6.92,1.77.46.34.86.43,1.39.34,1.94-.32,3.69.17,5.28,1.28.2.14.43.25.65.38,1.98-1.16,3.99-1.06,6.01-.25.56.23.99.22,1.54-.05,1.78-.87,3.59-.85,5.39-.03.46.21.9.45,1.33.66,1.87-.67,1.87-.66,3.99-.4.37.05.76.02,1.12-.07,1.03-.26,2.02-.17,2.97.26.48.22.85.16,1.29-.1,2.05-1.16,4.15-1.31,6.31-.25.29.14.75.18,1.05.05,2.15-.88,4.26-1,6.28.14.16-.06.26-.07.32-.11,1.74-1.32,3.67-1.89,5.84-1.48.54.1.85-.18,1.24-.45,2.01-1.41,4.24-2.1,6.7-1.71.61.1,1,0,1.45-.44,1.08-1.07,2.42-1.73,3.93-1.87.78-.07,1.59.08,2.45.13,2.06-2.47,4.74-3.48,7.94-2.93.27-.58.45-1.06.71-1.48.19-.31.45-.65.77-.79.84-.38,1.72-.68,2.6-.95.55-.17.92-.43,1.23-.96.87-1.49,2.18-2.45,3.89-2.81.29-.06.57-.15.87-.23.67-1.95,1.86-3.33,4.03-3.6.37-2.16,1.24-3.92,3.49-4.66-.22-2.15.13-4.05,1.88-5.5ZM218.96,71.09c.2-.04.37-.06.52-.12,2.72-1.1,4.19-3.3,5.14-5.92.11-.31,0-.76-.12-1.09-.65-1.73-1.6-3.25-3.05-4.43-.72-.59-1.5-1.07-2.52-1.28-1.06,1.85-2.65,3.05-4.63,3.71-1.2.4-2.42.74-3.65,1.05-.53.13-1.09.19-1.63.15-2.02-.15-4.03-.36-6.05-.51-.34-.03-.78.05-1.03.25-.64.53-1.2,1.15-2.01,1.96.59.46,1.1.77,1.51,1.2.55.57,1.11.72,1.91.62,2.05-.24,4.15-.68,6.16-.44,3.67.44,7.29,1.32,9.45,4.85ZM11.13,58.29c-.21.01-.3,0-.38.03-2.81,1.05-4.32,3.27-5.31,5.94-.12.32-.05.77.08,1.1.69,1.85,1.73,3.48,3.34,4.68.67.5,1.38.95,2.25,1.06,1.1-1.85,2.65-3.05,4.61-3.68,1.41-.45,2.84-.8,4.28-1.17.36-.09.76-.1,1.13-.07,2.02.17,4.04.37,6.06.53.3.02.69-.06.91-.24.63-.53,1.19-1.15,1.92-1.88-.66-.59-1.22-1.03-1.72-1.55-.41-.42-.84-.48-1.38-.39-1,.16-2.01.27-3.02.36-2.5.23-4.95.12-7.37-.73-2.22-.79-4.17-1.86-5.41-3.99ZM205.59,81.27c3.95.49,9.73-2.02,10.63-4.67-7.23.5-13.49-1.86-19-6.38-1.58.71-2.96,1.57-4.32,2.78.44,1.04.88,2.06,1.35,3.15,2.42-.69,4.68-1.1,6.94,0,2.23,1.08,3.52,2.95,4.4,5.12ZM13.71,76.63c1.72,3.23,7.46,5.05,10.73,4.64.15-.31.27-.67.47-.98.54-.85,1.02-1.78,1.71-2.5,1.96-2.07,4.41-2.71,7.19-2.14.65.13,1.29.29,2.04.45.45-1.09.87-2.09,1.29-3.12-1.34-1.19-2.71-2.06-4.28-2.75-2.72,2.11-5.6,3.92-8.87,5.07-3.27,1.15-6.66,1.45-10.27,1.33ZM192.9,56.37c1.39,1.2,2.76,2.13,4.33,2.75,2.78-2.19,5.69-3.97,8.96-5.1,3.25-1.13,6.64-1.38,10.12-1.33-1.29-2.57-6.3-4.99-10.72-4.58-.88,2.18-2.17,4.04-4.41,5.12-2.26,1.09-4.52.72-6.92-.04-.47,1.1-.91,2.12-1.36,3.18ZM13.67,52.7c.72,0,1.26,0,1.79,0,4.94-.02,9.53,1.23,13.72,3.87,1.07.67,2.08,1.45,3.14,2.15.25.16.67.33.89.24,1.43-.64,2.74-1.47,3.86-2.52-.31-1.22-.66-2.28-1.44-3.17-.45.12-.85.28-1.26.32-1.13.12-2.28.38-3.38.24-2.88-.37-4.79-2.13-6.05-4.68-.18-.37-.35-.75-.5-1.09-4.15-.23-8.93,1.68-10.76,4.64ZM202.6,41.18c.23-.69.6-1.46.74-2.26.25-1.43-.25-2.3-1.63-2.73-.95-.29-1.99-.46-2.97-.39-4.22.3-6.96,2.69-8.67,6.41-.23.5-.29,1.09-.41,1.58,1.09.7,1.78.47,2.52-.36,1.65-1.84,3.74-2.9,6.26-2.8,1.29.05,2.57.33,4.16.54ZM40.31,43.93c.03-.27.05-.35.04-.43-.01-.12-.04-.25-.08-.37-1.32-3.83-3.8-6.39-7.89-7.2-1.26-.25-2.52-.26-3.75.12-1.64.51-2.26,1.51-1.89,3.17.16.72.52,1.39.82,2.15,4.53-1.62,8.27-.67,11.21,3.01.57-.17,1.05-.31,1.54-.45ZM27.69,88.02c-.18.28-.31.44-.41.63-.12.22-.23.45-.32.69-.86,2.26-.05,3.71,2.34,4.16.29.06.59.07.88.08,4.88.24,8.22-2.78,9.81-6.47.21-.48.28-1.03.41-1.51-1.46-.68-1.47-.69-2.49.34-1.57,1.58-3.36,2.68-5.66,2.8-1.54.08-3.03-.11-4.57-.72ZM189.68,85.62c.05.27.08.56.15.83,1.2,4.28,5.4,7.29,9.97,7.13,3.41-.12,4.58-2.29,2.81-5.21-.06-.11-.14-.2-.23-.33-.25.07-.45.13-.65.19-3.74,1.17-7,.46-9.73-2.43-.87-.93-.97-.91-2.32-.18ZM10.57,56.61v-1.64c-.28.04-.49.05-.68.11-2.54.78-4.62,2.22-6.19,4.39-2.72,3.76-2.69,6.83.08,10.55,1.7,2.28,3.93,3.76,6.79,4.43v-1.69c-3.29-1.14-5.15-3.6-6.41-6.64-.39-.95-.4-1.88,0-2.83,1.25-3.05,3.12-5.5,6.41-6.67ZM219.41,72.85c0,.34,0,.67,0,1.01,0,.16.03.33.05.56.28-.06.53-.08.76-.15,3.94-1.26,6.53-3.92,7.88-7.79.46-1.32.38-2.67-.13-3.97-1.42-3.63-3.91-6.16-7.67-7.36-.26-.08-.54-.09-.83-.14v1.61c3.36,1.2,5.27,3.72,6.48,6.89.26.69.35,1.38.09,2.1-1.11,3.1-2.85,5.64-6.03,6.95-.19.08-.37.19-.61.32ZM27.37,43.57c-.78.77-1.26,1.61-1.37,2.72,3.93.63,7.58,1.79,10.31,4.9.44-.26.81-.45,1.15-.69,2.02-1.41,2.13-2.29.65-4.13-1.97-.12-3.83-.09-5.65-.37-1.89-.29-3.59-1.18-5.1-2.43ZM27.19,85.64c1.46-.71,2.71-1.41,4.03-1.94,1.84-.73,3.8-.71,5.75-.57,1.2.08,1.2.07,1.72-1.02.14-.3.31-.61.37-.94.05-.27.07-.64-.08-.83-.73-.93-1.57-1.73-2.76-2.09-2.74,3.1-6.38,4.19-10.29,4.85.24,1.06.62,1.91,1.26,2.54ZM193.68,51.31c2.84-3.32,6.54-4.37,10.6-5.09-.53-1-.96-1.83-1.39-2.64-.25.09-.35.1-.41.15-2.87,2.2-6.12,2.9-9.66,2.46-.66-.08-1.05.12-1.3.7-.15.35-.3.69-.46,1.04-.26.56-.21,1.07.29,1.48.74.61,1.48,1.21,2.33,1.9ZM193.75,78.19c-.4.23-.78.4-1.12.64-2.05,1.4-2.17,2.29-.53,4.38,3.78-.47,7.43,0,10.53,2.54,1-.96,1.24-1.47,1.32-2.7-3.85-.6-7.46-1.77-10.22-4.86ZM31.07,69.48c-.95-.29-1.69-.57-2.46-.73-.27-.06-.64.11-.91.27-1.16.68-2.26,1.49-3.47,2.08-3.63,1.77-7.42,2.8-11.51,2.21-.06,0-.14.07-.31.17.04.39.09.83.15,1.34,6.91.8,12.94-1.02,18.51-5.35ZM198.98,69.48c5.6,4.34,11.65,6.17,18.56,5.33v-1.43c-1.48,0-2.88.13-4.24-.02-4.02-.46-7.68-1.92-10.95-4.33-.24-.18-.63-.33-.9-.27-.77.16-1.51.44-2.47.73ZM217.54,54.66c-5.79-1.23-16.02,1.77-18.28,5.31.41.13.82.24,1.2.4.89.36,1.56.22,2.42-.36,4.22-2.88,8.85-4.5,14.05-4,.2.02.4,0,.7,0-.04-.5-.07-.91-.1-1.35ZM12.41,55.91c1.2,0,2.21-.05,3.21,0,4.36.27,8.29,1.76,11.86,4.26.32.22.76.47,1.1.42.76-.11,1.5-.41,2.31-.65-3.5-3.88-13.57-6.73-18.36-5.23-.04.37-.08.77-.12,1.19ZM204.46,60.87c.02.13.04.25.06.38,1.08.06,2.16.13,3.24.16,2.31.06,4.53-.33,6.64-1.3,1.07-.5,2.08-1.1,2.67-2.45-4.71-.48-8.78.91-12.61,3.21ZM216.99,71.69c-1.36-2.97-8.37-4.76-12.7-3.28,3.97,2.35,8.03,3.81,12.7,3.28ZM13,71.6c3.78.71,10.61-1.15,12.65-3.4-1.89-.25-3.75-.46-5.59-.13-1.49.26-2.96.68-4.38,1.19-1.11.4-2.07,1.1-2.68,2.34ZM13.04,57.88c.11.18.2.37.32.53.75.97,1.78,1.51,2.89,1.96,2.95,1.19,6,1.18,9.09.83.09,0,.16-.14.25-.22-3.29-2.52-9.88-4.16-12.55-3.11ZM194.54,64.7c1.02,1.3,1.92,2.44,2.83,3.61,1.04-.37,1.92-.68,2.78-.99-.34-1.05-1.53-1.29-1.57-2.58-.04-1.36,1.22-1.62,1.58-2.69-.89-.31-1.79-.62-2.82-.98-.91,1.18-1.8,2.33-2.8,3.63ZM29.75,62.09c.41.43.66.71.92.98,1.12,1.14,1.13,2.07.01,3.21-.29.29-.55.61-.9,1,.78.28,1.46.48,2.1.76.51.23.89.13,1.22-.29.77-.99,1.54-1.98,2.31-2.97-.86-1.42-1.66-2.68-2.87-3.67-.91.32-1.77.62-2.8.98ZM203.57,81.28c-.76-3.33-5.27-5.31-7.95-3.51,2.25,2.11,4.96,3.04,7.95,3.51ZM34.53,77.67c-3.52-1.39-7.11.24-8.09,3.63,3.03-.5,5.75-1.42,8.09-3.63ZM203.61,48.18c-2.95.09-7.02,2-7.89,3.66,3.58,1.11,6.79-.35,7.89-3.66ZM34.55,51.74c-2.36-2.27-5.1-3.16-8.11-3.68.91,3.34,4.36,4.92,8.11,3.68ZM36.45,84.8c-2.88-.34-6.13.55-7.18,1.91,2.68.98,5.66.22,7.18-1.91ZM193.55,84.75c1.64,2.22,4.87,3.01,7.43,1.82-2.28-1.51-4.66-2.04-7.43-1.82ZM36.48,44.49c-1.86-2.11-4.77-2.8-7.24-1.79,1.36,1.43,4.68,2.28,7.24,1.79ZM200.98,42.78c-2.68-1.15-5.99-.32-7.34,1.8,2.66.26,5.06-.25,7.34-1.8ZM185.19,93.76c.31,1.39,1.73,2.72,3.03,2.76.33,0,.82-.15.97-.4.15-.24.06-.74-.11-1.03-.59-1.06-2.51-1.68-3.89-1.33ZM44.87,93.75c-1.43-.34-3.3.28-3.9,1.35-.16.29-.25.79-.1,1.03.15.24.64.4.97.39,1.3-.04,2.72-1.38,3.03-2.77ZM185.18,35.57c1.29.38,3.14-.14,3.81-1.16.2-.31.35-.86.21-1.12-.14-.26-.7-.41-1.07-.4-1.27.05-2.58,1.29-2.95,2.68ZM45.01,35.67c-.49-1.51-1.47-2.29-2.75-2.74-.27-.09-.59-.08-.87-.04-.55.08-.81.5-.6,1,.14.34.37.69.65.91,1,.77,2.13,1.13,3.58.87ZM116.53,125.58c.02-.74-.79-1.61-1.5-1.61-.66,0-1.45.77-1.5,1.48-.05.7.81,1.83,1.43,1.88.59.05,1.55-1.02,1.57-1.75ZM114.99,5.43c.67.03,1.54-.88,1.54-1.6,0-.7-.96-1.83-1.54-1.81-.55.02-1.44,1.07-1.47,1.74-.04.74.75,1.64,1.46,1.67ZM195.78,69.02c-.71-.89-1.32-1.67-2.01-2.53-.75,1.37-.9,2.75-.99,4.34,1.08-.65,1.99-1.2,3-1.81ZM36.29,66.44c-.73.94-1.35,1.75-2,2.59,1.01.61,1.93,1.15,2.97,1.77-.07-1.57-.25-2.92-.97-4.37ZM192.71,58.5c.24,1.6.25,3.03,1.08,4.38.69-.88,1.31-1.69,1.97-2.53-1.02-.62-1.95-1.18-3.05-1.85ZM34.28,60.37c.68.85,1.31,1.64,2.02,2.53.7-1.44.93-2.79.91-4.35-1.06.66-1.98,1.23-2.94,1.82ZM126.83,5.02c.59-.54,1.06-1.15,1.28-1.95.14-.53.13-1.02-.42-1.32-.5-.27-1.19,0-1.51.54-.51.85-.29,1.84.65,2.72ZM126.81,124.37c-.92.85-1.14,1.83-.64,2.7.31.54.99.8,1.51.55.58-.28.58-.79.43-1.3-.22-.78-.65-1.44-1.3-1.95ZM103.26,5.02c.93-.96,1.12-1.94.6-2.76-.32-.5-.91-.73-1.42-.53-.6.24-.64.74-.52,1.26.19.8.64,1.45,1.34,2.03ZM103.12,124.25c-.4.67-.85,1.28-1.14,1.95-.32.76-.07,1.29.51,1.45.63.18,1.23-.15,1.5-.84.35-.89.12-1.65-.87-2.57ZM60.32,111.27c-1.13.03-1.86.29-2.35,1-.45.64-.18,1.34.57,1.56.62.18,1.22-.02,1.44-.65.2-.56.22-1.18.34-1.91ZM60.13,18.32c.15-.88.18-1.52-.14-2.16-.23-.46-.64-.77-1.11-.66-.4.09-.86.38-1.08.71-.3.45.07.94.44,1.18.54.36,1.16.57,1.88.92ZM169.96,18.12c.9-.07,1.67-.31,2.17-1.09.34-.54.19-1.07-.36-1.38-.64-.36-1.36-.16-1.71.51-.31.62-.38,1.27-.1,1.96ZM169.89,111.31c-.14.73-.13,1.38.23,1.99.26.44.68.69,1.15.55.36-.11.76-.36.96-.67.3-.46-.07-.89-.39-1.2-.49-.48-1.11-.73-1.95-.67ZM39.59,78.33c-.03-1.47-.31-2.64-1.19-3.79-.39.81-.73,1.51-1.08,2.24.75.51,1.43.98,2.27,1.55ZM191.64,54.84c.41-.85.74-1.53,1.08-2.25-.74-.5-1.44-.97-2.26-1.53,0,1.47.31,2.62,1.17,3.78ZM39.57,51.02c-.86.61-1.54,1.09-2.26,1.6.38.73.72,1.42,1.12,2.19.84-1.19,1.16-2.33,1.13-3.8ZM192.73,76.78c-.35-.72-.7-1.44-1.08-2.22-1,1.45-1.27,2.46-.99,3.65.66-.46,1.31-.9,2.06-1.42ZM140.88,6.6c.95-.97,1.76-1.75,1.53-3.09-1.5.09-1.99.99-1.53,3.09ZM89.09,6.51c.64-1.83.05-2.97-1.45-2.97-.25,1.29.55,2.07,1.45,2.97ZM140.92,122.9c-.56,1.94.14,3.17,1.54,2.85.11-1.23-.57-2.03-1.54-2.85ZM89.12,123.04c-1.28.85-1.65,1.64-1.36,2.87,1.48-.25,1.99-1.33,1.36-2.87ZM110.5,4.69c.3-1.04.46-1.85-.22-2.54-.19-.19-.6-.27-.89-.23-.13.02-.27.49-.25.74.07.8.53,1.39,1.36,2.03ZM119.67,124.84c-.52,1.06-.47,1.96.16,2.44.2.16.58.28.78.19.18-.08.33-.48.3-.72-.08-.83-.5-1.48-1.24-1.92ZM119.57,4.66c.82-.62,1.27-1.2,1.34-2,.02-.25-.12-.71-.25-.74-.28-.05-.69.03-.88.22-.66.68-.57,1.49-.21,2.51ZM110.38,124.83c-.69.42-1.12,1.03-1.22,1.82-.03.27.18.58.28.87.3-.11.67-.14.88-.34.56-.52.56-1.37.05-2.34ZM80.43,8.68c-.08-1.32-.41-1.73-1.56-2.05,0,.95.22,1.24,1.56,2.05ZM151.34,6.56c-1.33.42-1.67.85-1.7,2.1.86-.42,1.51-.96,1.7-2.1ZM95.7,124.68c-.76.61-1.19,1.24-1.02,2.18,1.17-.36,1.38-.78,1.02-2.18ZM135.41,126.92c.06-1.02-.3-1.65-1-2.17-.5,1.17-.3,1.66,1,2.17ZM95.62,4.66c.54-1.17.3-1.74-.93-2.16-.22.96.27,1.58.93,2.16ZM156.51,10.5c1.16-.7,1.47-1.24,1.23-2.15-.98.49-1.2.87-1.23,2.15ZM80.4,120.77c-1.17.56-1.45.91-1.55,1.92,1.13-.21,1.53-.71,1.55-1.92ZM73.54,10.47c-.11-.9-.15-1.85-1.35-2.18-.2,1.16.57,1.68,1.35,2.18ZM134.35,4.69c1.03-.99,1.09-1.13.92-2.18-1.11.42-1.3.82-.92,2.18ZM156.53,118.77c-.02,1.48.39,2.09,1.42,2.1-.05-.98-.66-1.55-1.42-2.1ZM73.58,118.76c-1.21.94-1.33,1.14-1.38,2.16.98-.17,1.27-.6,1.38-2.16ZM151.24,122.67c-.2-1.06-.52-1.42-1.6-1.85.09,1.25.51,1.74,1.6,1.85ZM45.02,99.8c.05.11.11.22.16.33.61.06,1.01-.23,1.12-1-.43.22-.85.45-1.28.67ZM46.26,30.23c.04-.07.09-.15.13-.22q-.6-.72-1.5-.46c.55.28.96.48,1.37.69ZM175.56,107.73l-.24.3c.27.39.44.94,1.41.6-.49-.38-.83-.64-1.17-.9ZM185.08,100.06c-.41-.62-.81-.89-1.54-.77.37.57.71.94,1.54.77ZM53.46,108.53c.08.09.17.18.25.27.62.02.85-.35.77-1.07-.34.27-.68.53-1.02.8ZM53.85,20.43c-.09.09-.18.18-.26.28.05.59.41.79,1.33.76-.48-.47-.77-.75-1.07-1.03ZM175.34,21.28c.07.07.15.14.22.21q.85-.33.7-1.13c-.36.36-.64.64-.92.93ZM183.58,30.13c.72-.01,1.15-.16,1.42-.81-.71-.12-1.1.14-1.42.81Z"/>
      <path class="cls-1" d="M115.15,106.95c-5.49.14-10.85-.03-16.16-.95-1.99-.35-3.93-1.04-5.92-1.37-4.99-.84-9.8-2.22-14.37-4.42-.49-.24-1.01-.44-1.53-.61-5.66-1.9-10.08-5.58-14.16-9.78-5.29-5.44-8.36-12.05-9.98-19.35-.49-2.2-.5-4.54-.44-6.81.23-8.06,3.27-15.12,8.13-21.44,2.51-3.27,5.54-6.05,8.87-8.48,1.09-.79,2.22-1.6,3.44-2.13,3.91-1.7,7.82-3.43,11.84-4.85,2.65-.93,5.49-1.35,8.24-2,.82-.19,1.68-.29,2.47-.56,2.71-.92,5.53-1.23,8.35-1.44,2.53-.19,5.06-.27,7.6-.3,3.8-.04,7.6-.13,11.39.05,3.84.18,7.68.47,11.39,1.64,1.16.37,2.39.56,3.59.77,4.4.75,8.64,2,12.69,3.9.84.39,1.7.76,2.58,1.06,4.28,1.48,7.84,4.06,11.2,7.03,6.63,5.88,10.7,13.22,12.63,21.79.71,3.16.77,6.41.32,9.59-1.06,7.48-3.94,14.2-8.91,19.97-2.28,2.64-4.82,4.98-7.58,7.1-2.06,1.58-4.32,2.8-6.74,3.75-1.38.54-2.75,1.09-4.1,1.7-3.95,1.79-8.1,2.91-12.36,3.69-2.37.43-4.67,1.19-7.05,1.56-3.89.6-7.8,1.02-11.75.89-1.27-.04-2.54,0-3.69,0ZM114.97,105.6c3.76-.22,7.51-.38,11.27-.66,2.7-.2,5.38-.56,7.97-1.41.96-.32,1.98-.44,2.98-.62,4.31-.75,8.49-1.9,12.47-3.75,1.03-.48,2.1-.91,3.16-1.31,2.3-.88,4.51-1.93,6.5-3.39,7.42-5.45,12.8-12.36,15.34-21.31.55-1.95,1.15-3.9,1.09-5.96-.02-.9-.2-1.79-.21-2.69,0-.61.24-1.22.22-1.82-.06-1.22-.08-2.47-.37-3.65-1.69-6.97-4.6-13.32-9.71-18.52-3.9-3.95-8.09-7.45-13.48-9.21-.56-.18-1.11-.43-1.64-.68-4.38-2.09-8.99-3.42-13.77-4.23-1.95-.33-3.84-1.03-5.8-1.35-3.72-.59-7.46-1.04-11.23-1.04-3.17,0-6.35-.12-9.51.03-3.63.18-7.26.5-10.86.97-2.29.3-4.52,1.09-6.8,1.51-3.97.73-7.83,1.77-11.53,3.4-1.39.61-2.83,1.13-4.2,1.78-1.79.84-3.68,1.58-5.29,2.7-6.78,4.71-12.14,10.62-15.02,18.51-1.09,2.98-2.22,5.95-2.25,9.19,0,.93.19,1.87.2,2.8,0,.6-.25,1.21-.23,1.81.04,1.1.07,2.21.31,3.28,1.05,4.65,2.67,9.08,5.22,13.13,2.58,4.09,5.97,7.44,9.72,10.45,2.19,1.76,4.61,3.12,7.24,4.12,1.5.57,2.95,1.26,4.45,1.85,1.61.63,3.21,1.35,4.88,1.78,4.38,1.12,8.79,2.09,13.19,3.12.16.04.34.04.5.07,5.03.71,10.09,1.03,15.19,1.12Z"/>
      <path class="cls-1" d="M118.97,110.8c-3.61.45-7.57,0-11.53-.24-4.56-.28-9.14-.39-13.63-1.29-4.14-.83-8.28-1.72-12.35-2.82-5.29-1.43-10.06-4-14.22-7.57-2.72-2.34-5.35-4.79-7.93-7.29-3.22-3.11-5.41-6.91-6.92-11.1-1.46-4.02-2.71-8.1-3.2-12.37-.07-.63-.1-1.26-.14-1.89-.03-.54.04-1.05.71-1.15.53-.08.85.28.95,1.1.13,1.09.17,2.2.36,3.27.91,5.14,2.42,10.1,4.8,14.77.99,1.93,2.25,3.68,3.72,5.27,3.51,3.8,7.33,7.26,11.54,10.27,3.81,2.72,8.06,4.45,12.55,5.61,4.5,1.16,9.03,2.23,13.66,2.75,2.14.24,4.29.4,6.44.57,3.5.28,7,.59,10.5.78,1.46.08,2.94-.09,4.41-.2,2.99-.21,5.98-.51,8.98-.68,5.68-.31,11.24-1.36,16.74-2.73,1.8-.45,3.6-.93,5.36-1.51,4.1-1.35,7.8-3.41,11.2-6.08,3.27-2.57,6.31-5.38,9.16-8.39,2.81-2.96,4.75-6.46,6.11-10.28,1.26-3.55,2.38-7.14,2.88-10.88.09-.67.12-1.35.19-2.02.03-.33.07-.67.14-1,.1-.42.38-.66.83-.62.45.04.7.34.71.76.02.59.02,1.19-.06,1.77-.77,6-2.49,11.72-5.17,17.15-1.06,2.14-2.45,4.05-4.05,5.81-3.29,3.6-6.89,6.85-10.79,9.79-4.22,3.19-8.95,5.27-14.03,6.59-5.07,1.31-10.18,2.51-15.42,2.97-2.91.26-5.82.42-8.73.62-1.14.08-2.28.15-3.78.25Z"/>
      <path class="cls-1" d="M180.99,62.42c0,.51.1.9-.03,1.17-.14.29-.47.61-.76.68-.19.04-.54-.31-.72-.55-.13-.19-.15-.48-.16-.73-.14-3.67-1.13-7.17-2.22-10.64-.33-1.05-.69-2.08-1.07-3.12-1.55-4.24-3.9-7.97-7.19-11.07-2.37-2.23-4.77-4.43-7.25-6.54-4.87-4.15-10.58-6.59-16.76-8.04-5.23-1.23-10.48-2.35-15.86-2.73-4.18-.29-8.35-.58-12.52-.94-2.03-.18-4.03.13-6.04.27-3.12.23-6.24.46-9.36.67-5.72.39-11.3,1.6-16.84,2.98-3.83.95-7.55,2.26-10.91,4.35-5.54,3.44-10.32,7.79-14.59,12.7-2.25,2.59-3.73,5.63-4.88,8.83-1.27,3.54-2.38,7.14-2.9,10.88-.09.67-.12,1.35-.19,2.02-.04.38-.03.79-.19,1.11-.12.25-.52.59-.71.54-.3-.07-.69-.41-.74-.68-.11-.57-.07-1.18,0-1.77.83-6.3,2.56-12.34,5.6-17.93,1.02-1.87,2.36-3.62,3.78-5.22,3.21-3.61,6.83-6.79,10.69-9.71,4.3-3.24,9.12-5.32,14.28-6.63,4.55-1.16,9.12-2.25,13.8-2.74,2.56-.27,5.14-.45,7.71-.64,2.19-.16,4.39-.32,6.58-.42,1.6-.08,3.21-.18,4.81-.09,4.69.25,9.37.57,14.05.91,4.82.35,9.54,1.34,14.22,2.52,2.29.58,4.57,1.24,6.8,2,5.26,1.79,9.68,4.98,13.79,8.62,2.09,1.85,4.07,3.82,6.02,5.81,2.79,2.85,4.77,6.24,6.18,9.96,1.6,4.24,2.93,8.56,3.45,13.08.05.42.09.84.12,1.09Z"/>
      <path class="cls-1" d="M44.29,61.57c.41.03.78-.03,1.06.11.25.13.55.48.54.71-.01.23-.37.62-.6.64-.61.07-1.25.02-1.87-.08-.41-.06-.7-.42-.53-.83.1-.24.45-.43.72-.54.22-.09.5-.02.68-.02Z"/>
      <path class="cls-1" d="M185.82,63.09c-1.25.02-1.66-.19-1.7-.69-.04-.51.37-.78,1.3-.81.38-.01.77-.07,1.12,0,.24.05.59.32.59.5,0,.27-.18.67-.4.79-.35.19-.8.18-.91.21Z"/>
      <path class="cls-1" d="M182.89,77.49c-.08-.07-.39-.23-.51-.48-.21-.44-.01-.93.42-1.02.63-.13,1.3-.1,1.95-.03.16.02.39.46.37.68-.03.22-.3.52-.52.59-.47.14-.97.16-1.71.26Z"/>
      <path class="cls-1" d="M46.5,75.81c.05,0,.4,0,.7.13.42.18.67.53.51,1.01-.15.46-.47.66-.97.52-.32-.08-.65-.14-.98-.17-.46-.04-.85-.19-.85-.72,0-.6.43-.74.93-.77.12,0,.25,0,.66,0Z"/>
      <path class="cls-1" d="M180.4,88.45c-.24.16-.54.52-.78.49-.65-.1-1.28-.35-1.88-.61-.16-.07-.31-.45-.26-.62.07-.24.3-.5.53-.61.47-.23,1.98.37,2.23.83.06.11.07.23.16.53Z"/>
      <path class="cls-1" d="M51.75,86.89c.29.25.68.45.82.76.18.4-.13.69-.54.82-.48.15-.94.39-1.42.45-.26.03-.7-.17-.79-.38-.1-.21.04-.71.24-.84.47-.32,1.04-.51,1.7-.81Z"/>
      <path class="cls-1" d="M44.34,67.78c-.36,0-.69.08-.94-.02-.23-.09-.5-.37-.52-.59-.02-.22.22-.65.39-.68.69-.12,1.41-.17,2.1-.11.2.02.49.44.52.71.02.18-.29.5-.52.58-.34.12-.74.09-1.05.12Z"/>
      <path class="cls-1" d="M44.98,70.5c.25.07.72.08,1.04.31.24.17.39.63.35.94-.02.17-.5.38-.78.41-.36.03-.74-.12-1.11-.17-.46-.07-.82-.26-.79-.79.03-.53.42-.67.88-.69.08,0,.17,0,.41,0Z"/>
      <path class="cls-1" d="M167.64,100.49c.11-.55.53-.82.93-.66.6.24,1.13.66,1.64,1.06.11.09.08.51-.03.67-.12.17-.48.37-.62.3-.63-.31-1.22-.69-1.82-1.07-.08-.05-.08-.23-.1-.31Z"/>
      <path class="cls-1" d="M185.14,70.5c.67,0,1.16.06,1.22.66.06.6-.38.77-.88.84-.33.04-.66.12-.99.17-.43.07-.83-.06-.85-.5,0-.31.21-.74.46-.9.33-.21.8-.21,1.03-.26Z"/>
      <path class="cls-1" d="M178.23,42.46c-.27-.25-.63-.45-.75-.73-.18-.42.14-.69.55-.83.44-.14.87-.31,1.32-.43.4-.11.79-.04.94.4.14.42-.05.75-.43.93-.49.23-1,.41-1.62.66Z"/>
      <path class="cls-1" d="M185.8,67.77c-.33-.02-.63-.02-.92-.04-.42-.04-.74-.22-.76-.68-.02-.53.35-.74.81-.76.5-.02,1,.02,1.5.07.47.05.8.3.75.82-.06.54-.48.63-.92.63-.17,0-.33-.03-.46-.04Z"/>
      <path class="cls-1" d="M51.71,42.47c-.66-.31-1.23-.5-1.7-.84-.18-.13-.25-.61-.17-.87.05-.17.49-.34.72-.31.49.07.96.28,1.44.43.41.13.75.4.56.82-.14.31-.55.5-.86.76Z"/>
      <path class="cls-1" d="M60.57,101.9c-.61.02-.97-.47-.79-.94.19-.51,1.31-1.25,1.84-1.13.28.06.61.3.73.56.07.16-.14.57-.33.71-.47.33-1.01.57-1.44.8Z"/>
      <path class="cls-1" d="M59.73,28.17c.04-.54.53-.82,1.05-.6.46.2.9.46,1.31.74.42.29.42.77.04,1.06-.42.33-.88.26-1.29-.02-.48-.32-1.05-.57-1.11-1.2Z"/>
      <path class="cls-1" d="M46.28,53.56c-.34-.03-.63.01-.83-.1-.23-.13-.54-.41-.52-.59.03-.26.28-.61.53-.71.42-.17.9-.19,1.35-.26.44-.07.76.09.89.51.14.47-.08.85-.51,1.01-.31.12-.66.1-.91.14Z"/>
      <path class="cls-1" d="M183.46,53.53s-.44.03-.66-.16c-.24-.2-.44-.62-.43-.93.01-.43.4-.61.83-.55.37.05.74.14,1.11.19.46.06.85.22.83.75-.02.54-.42.67-.88.7-.17,0-.34,0-.81,0Z"/>
      <path class="cls-1" d="M170.32,28.16c-.02.74-1.58,1.66-2.25,1.33-.48-.24-.59-.8-.16-1.12.43-.32.91-.6,1.41-.81.51-.21,1.01.13,1,.61Z"/>
      <path class="cls-1" d="M184.99,58.83c-.22-.05-.65-.04-.92-.25-.24-.19-.42-.61-.41-.92,0-.16.48-.4.76-.42.4-.03.82.09,1.23.17.46.09.79.33.7.85-.08.46-.44.56-.84.57-.12,0-.25,0-.52,0Z"/>
      <path class="cls-1" d="M45.12,58.86c-.45-.03-.73,0-.94-.09-.2-.09-.45-.33-.45-.51,0-.24.15-.65.32-.7.59-.18,1.21-.28,1.83-.32.18-.01.5.25.53.42.04.25-.04.65-.22.77-.36.24-.82.34-1.07.43Z"/>
      <path class="cls-1" d="M172.42,95.93c-.02-.51.48-.94.9-.69.49.29.96.68,1.32,1.12.34.41.07.98-.42,1.05-.62.09-1.79-.86-1.8-1.48Z"/>
      <path class="cls-1" d="M173.43,34.15c-.75.06-1.1-.38-.98-.89.11-.43,1.11-1.28,1.57-1.32.5-.05.97.48.69.89-.38.56-.94.99-1.29,1.33Z"/>
      <path class="cls-1" d="M127.61,114.51c-.12.61-.14,1.04-.3,1.41-.09.21-.44.44-.65.42-.22-.02-.57-.29-.6-.5-.07-.43-.02-.9.06-1.35.08-.48.36-.95.91-.76.29.1.45.57.59.77Z"/>
      <path class="cls-1" d="M102.46,114.38c.13-.16.3-.56.57-.66.48-.18.78.19.88.64.09.44.2.91.13,1.35-.04.25-.4.6-.63.62-.23.02-.6-.28-.71-.53-.16-.37-.15-.81-.24-1.42Z"/>
      <path class="cls-1" d="M157.07,22.4c0-.69.83-1.67,1.41-1.72.22-.02.56.07.65.22.12.22.16.6.04.8-.25.42-.59.82-.97,1.13-.17.14-.56.15-.79.06-.18-.07-.26-.38-.33-.5Z"/>
      <path class="cls-1" d="M55.26,32.66c-.03-.44.44-.91.8-.7.56.32,1.11.74,1.5,1.25.3.39-.12.96-.6.97-.48,0-1.66-1.05-1.7-1.51Z"/>
      <path class="cls-1" d="M72.97,107.06c.02.59-.92,1.65-1.49,1.69-.49.03-.92-.5-.67-.93.29-.5.68-.97,1.12-1.34.44-.38,1.03-.02,1.04.58Z"/>
      <path class="cls-1" d="M77.57,18.29c.24-.27.45-.68.76-.77.18-.05.61.36.76.64.18.36.28.82.24,1.22-.02.26-.3.6-.55.71-.16.07-.59-.15-.7-.35-.22-.39-.31-.86-.5-1.45Z"/>
      <path class="cls-1" d="M159.3,107.86c.01.64-.48,1.09-.82.85-.52-.37-.97-.88-1.34-1.41-.1-.15.1-.7.3-.82.2-.12.67-.02.86.16.42.39.73.89,1,1.22Z"/>
      <path class="cls-1" d="M152.47,18.37c-.18.56-.24,1-.47,1.34-.15.22-.59.43-.81.36-.23-.08-.46-.48-.49-.76-.03-.36.11-.75.22-1.11.13-.42.38-.88.87-.67.3.13.47.58.67.84Z"/>
      <path class="cls-1" d="M102.46,14.89c.1-.62.09-1.02.24-1.36.1-.22.44-.51.62-.48.27.05.64.32.7.56.09.38,0,.83-.07,1.24-.08.5-.35.96-.92.77-.29-.1-.45-.56-.57-.72Z"/>
      <path class="cls-1" d="M162.55,25c-.48.04-.89-.43-.71-.91.18-.46.44-.9.76-1.27.34-.39.94-.24,1.12.22.23.58-.58,1.92-1.18,1.97Z"/>
      <path class="cls-1" d="M150.62,109.99c.16-.2.33-.56.6-.69.4-.19.75.09.86.5.13.47.24.98.23,1.46,0,.2-.32.53-.53.56-.21.04-.59-.15-.7-.35-.21-.4-.28-.87-.46-1.48Z"/>
      <path class="cls-1" d="M57.63,95.88c.02.67-1.24,1.68-1.88,1.51-.43-.11-.67-.62-.37-.99.36-.44.82-.84,1.3-1.15.41-.26.94.12.95.63Z"/>
      <path class="cls-1" d="M70.76,21.64c-.05-.72.34-1.05.81-.97.58.1,1.4,1.04,1.4,1.61,0,.49-.43.93-.78.7-.59-.4-1.06-.98-1.43-1.34Z"/>
      <path class="cls-1" d="M53.19,94.08c-.79.02-1.11-.44-.93-.92.17-.44,1.12-1.12,1.57-1.12.53,0,.95.53.65.91-.39.49-.96.85-1.28,1.13Z"/>
      <path class="cls-1" d="M177.85,35.99c-.03.56-1.18,1.45-1.76,1.35-.5-.09-.8-.68-.46-1.04.39-.41.89-.75,1.4-1,.39-.18.84.25.82.68Z"/>
      <path class="cls-1" d="M77.57,111c.21-.58.3-1.05.53-1.42.11-.18.53-.32.74-.25.21.06.47.39.48.61.02.4-.1.82-.21,1.22-.12.43-.37.86-.86.67-.3-.12-.47-.56-.68-.83Z"/>
      <path class="cls-1" d="M67.5,25c-.68-.05-1.46-1.51-1.12-2.08.23-.38.75-.47,1.06-.11.32.37.58.82.76,1.27.19.48-.22.95-.7.92Z"/>
      <path class="cls-1" d="M127.6,14.95c-.15.18-.31.57-.59.67-.49.17-.79-.19-.88-.65-.09-.45-.18-.92-.1-1.36.04-.23.43-.51.69-.55.18-.03.53.26.62.48.15.38.16.82.26,1.41Z"/>
      <path class="cls-1" d="M53.52,37.34c-.31-.28-.82-.69-1.25-1.16-.1-.11,0-.51.13-.66.14-.15.5-.29.65-.21.5.28,1.02.59,1.39,1.01.36.41-.06,1.04-.91,1.02Z"/>
      <path class="cls-1" d="M176.88,94.08c-.33-.28-.91-.62-1.3-1.12-.33-.42.21-1.11.73-.9.54.22,1.07.63,1.44,1.09.32.39-.08.93-.87.93Z"/>
      <path class="cls-1" d="M161.79,105.29c.04-.78.73-1.15,1.12-.75.39.41.63.97.85,1.5.06.14-.14.5-.32.61-.18.11-.58.12-.69,0-.4-.47-.72-1-.96-1.36Z"/>
      <path class="cls-1" d="M145.98,112.27c-.02.2.03.5-.09.69-.16.25-.45.59-.68.58-.24,0-.62-.34-.67-.59-.08-.43-.05-.94.11-1.35.09-.23.53-.49.77-.45.23.03.41.43.58.69.06.09,0,.25-.01.43Z"/>
      <path class="cls-1" d="M131.05,116.37c-.24-.2-.54-.33-.65-.56-.18-.37-.3-.79-.34-1.2-.06-.59.49-.95,1.01-.69.53.27.88,1.53.53,2.03-.11.16-.31.25-.54.42Z"/>
      <path class="cls-1" d="M114.23,115.05c.03-.23.01-.5.1-.72.16-.41.51-.56.92-.42.56.18.55.66.55,1.13,0,.51.02,1.04-.58,1.25-.43.15-.73-.1-.89-.48-.09-.22-.07-.49-.1-.76Z"/>
      <path class="cls-1" d="M115.93,14.52c-.21.32-.37.71-.66.93-.33.25-.86-.03-.96-.48-.08-.36-.06-.75-.04-1.12.03-.47.28-.79.79-.77.45.02.66.32.71.73.03.2,0,.42,0,.62.05.03.1.06.15.09Z"/>
      <path class="cls-1" d="M84.05,112.04c-.03-.48.11-.93.63-.9.29.02.7.36.79.64.13.41.09.92-.02,1.35-.05.2-.44.44-.66.43-.22-.01-.51-.29-.61-.52-.13-.3-.09-.66-.12-1Z"/>
      <path class="cls-1" d="M98.21,13.89c.21-.25.38-.63.66-.75.42-.18.7.17.85.54.12.31.28.65.26.97-.02.29-.19.7-.41.79-.22.09-.68-.07-.84-.27-.24-.31-.32-.76-.51-1.28Z"/>
      <path class="cls-1" d="M98.33,115.11c.06-.18.11-.54.29-.8.15-.21.44-.41.69-.44.45-.05.68.27.69.71.03.83-.49,1.7-1.01,1.7-.44,0-.72-.41-.67-1.16Z"/>
      <path class="cls-1" d="M131.87,14c-.25.51-.4.95-.66,1.32-.11.15-.5.25-.66.17-.22-.11-.47-.41-.48-.64-.02-.36.12-.74.24-1.1.15-.43.44-.81.93-.59.27.13.41.54.63.84Z"/>
      <path class="cls-1" d="M68.27,105.32c-.26.35-.6.94-1.07,1.37-.32.3-.85-.06-.91-.52-.06-.46.52-1.5.94-1.7.47-.22.99.08,1.04.85Z"/>
      <path class="cls-1" d="M144.46,16.79c.02-.11.02-.39.15-.58.12-.18.37-.35.59-.39.53-.08.77.43.8,1.45.01.52-.07.94-.69.97-.53.03-.85-.5-.85-1.45Z"/>
      <path class="cls-1" d="M84.07,17.2c0-.12.01-.25.03-.38.08-.75.36-1.12.81-1.02.63.14.69.65.69,1.18,0,.13,0,.25-.03.37-.1.49-.3.93-.88.88-.61-.05-.67-.53-.61-1.03Z"/>
      <path class="cls-1" d="M138.45,16.42c.25-.4.48-.81.78-1.18.07-.08.42-.04.57.06.54.35.34.89.26,1.37-.07.44-.23.86-.76.83-.61-.03-.71-.49-.84-1.09Z"/>
      <path class="cls-1" d="M89.75,16.03c.26-.32.43-.71.71-.81.49-.19.83.22.89.64.06.47-.02.97-.15,1.43-.03.11-.67.22-.75.12-.28-.38-.45-.84-.7-1.38Z"/>
      <path class="cls-1" d="M91.45,112.91c0,.09-.01.21-.03.34-.12.66-.5,1.03-.97.9-.6-.16-.57-.64-.52-1.11.01-.12.03-.25.05-.37.09-.43.26-.85.79-.8.6.05.69.51.67,1.05Z"/>
      <path class="cls-1" d="M138.38,112.84c.32-.39.5-.84.8-.94.58-.19.83.31.86.79.03.43-.04.88-.16,1.3-.03.1-.56.21-.65.11-.31-.34-.53-.77-.84-1.27Z"/>
      <path class="cls-1" d="M109.19,14.59c.02-.81.3-1.26.79-1.24.45.01.73.4.73,1,0,.68-.4,1.21-.9,1.14-.52-.07-.68-.43-.62-.9Z"/>
      <path class="cls-1" d="M119.34,14.46c.01-.73.3-1.12.75-1.1.54.03.67.43.74.87.03.17.1.37.03.5-.13.27-.31.66-.53.71-.23.05-.6-.18-.81-.39-.15-.15-.14-.46-.18-.59Z"/>
      <path class="cls-1" d="M182.03,48.7c-.48.01-.82-.16-.83-.69,0-.48.63-.88,1.32-.87.48,0,.81.2.82.72.01.51-.53.85-1.31.85Z"/>
      <path class="cls-1" d="M110.71,114.87c.01.6-.11,1.08-.68,1.14-.59.06-.76-.4-.82-.91-.01-.13-.03-.25-.03-.38-.03-.43.11-.76.57-.84.45-.08.7.21.86.59.06.15.08.32.1.4Z"/>
      <path class="cls-1" d="M119.34,115.04c0-.69.38-1.21.88-1.16.53.06.67.42.65.9-.02.77-.32,1.25-.79,1.25-.44,0-.74-.4-.74-.99Z"/>
      <path class="cls-1" d="M182.43,82.2c-.78-.03-1.31-.42-1.23-.93.08-.5.43-.66.91-.63.8.06,1.28.42,1.23.95-.04.42-.34.63-.92.61Z"/>
      <path class="cls-1" d="M47.51,82.21c-.56-.02-.85-.28-.8-.74.05-.47.71-.87,1.39-.82.44.03.72.24.74.7.02.52-.57.89-1.33.87Z"/>
      <path class="cls-1" d="M47.89,48.69c-.77-.05-1.22-.37-1.19-.87.04-.53.39-.7.87-.69.76.02,1.32.44,1.25.96-.07.56-.48.62-.94.59Z"/>
    </g>
  </g>
</svg>