<?xml version="1.0" encoding="UTF-8"?>
<svg id="Layer_2" data-name="Layer 2" xmlns="http://www.w3.org/2000/svg" viewBox="0 0 142.07 166.72">
  <defs>
    <style>
      .cls-1 {
        fill: #1c4701;
      }
    </style>
  </defs>
  <g id="OBJECTS">
    <g>
      <path class="cls-1" d="M9.31,44.33c-.2.19-.34.29-.44.42-1.72,2.44-6.68,1.74-8.01-1.69-.4-1.05-.32-2.11.36-3.06.76-1.06,1.97-1.45,3.21-1.04,1.37.45,2.02,1.84,1.43,3.16-.1.23-.32.49-.55.57-.21.08-.56,0-.74-.13-.14-.1-.12-.42-.16-.64,0-.06.06-.12.09-.18.24-.47.31-.92-.14-1.3-.4-.33-1.1-.37-1.56-.08-.51.31-.84.8-.78,1.37.05.52.21,1.09.49,1.53.56.88,1.45,1.33,2.48,1.53,2.05.4,3.54-.89,3.48-2.97-.05-1.42-.54-2.63-1.53-3.62-.51-.51-1.05-1-1.63-1.42C1.77,34.17.45,30.66.85,26.37c.28-3,1.4-5.59,3.5-7.75.06-.07.1-.17.19-.34-.46-.02-.85-.03-1.25-.06-.88-.07-1.68-.37-2.33-.99-1.08-1.03-.9-2.36.41-3.07.81-.44,1.68-.59,2.6-.57.54.02,1.07,0,1.76,0-.31-.36-.53-.6-.75-.85-.57-.67-.97-1.42-1.06-2.31-.14-1.48.78-2.64,2.26-2.81,1.38-.16,2.59.23,3.63,1.15.31.27.61.55,1.08.99-.23-.72-.39-1.23-.55-1.75-.32-1.06-.56-2.14-.39-3.26.03-.2.05-.41.11-.61.36-1.23,1.55-1.63,2.49-.75.48.45.81,1.1,1.11,1.71.24.48.33,1.03.49,1.56.11-.04.19-.05.22-.09,1.58-2.74,4.05-4.13,7.06-4.74,3.44-.7,6.64-.03,9.64,1.72.83.49,1.63,1.03,2.45,1.55,1.38.88,2.85,1.55,4.47,1.82.89.15,1.76.14,2.56-.46.77-.57,1.07-2.33.74-3.26-.33-.93-1.44-1.74-2.55-1.82-1.21-.08-2.09.38-2.4,1.35-.11.36-.11.83.02,1.19.34.92,1.06.99,1.87.15-.2-.07-.41-.09-.53-.21-.18-.17-.42-.42-.4-.62.01-.21.25-.49.46-.6.47-.25.96-.11,1.35.21.43.36.57.86.46,1.4-.16.82-.66,1.37-1.43,1.62-.83.28-1.63.2-2.32-.42-1.39-1.27-1.25-3.51.34-4.69.43-.32.97-.54,1.49-.67,1.69-.4,3.6.46,4.65,2.02.99,1.45,1.04,3.48.02,4.86-.46.62-1.12,1.09-1.78,1.72,0,0,.13.05.24.12,2.26,1.37,4.16,3.16,6.1,4.93,1.3,1.19,2.58,2.4,3.99,3.45,3.21,2.4,6.81,3.41,10.81,2.61,1.83-.37,3.33-1.29,4.4-2.85,1.18-1.72,1.11-4.06-.16-5.82-1.19-1.65-3.35-2.41-5.32-1.87-1.74.48-2.67,2.07-2.31,3.94.3,1.54,1.81,2.61,3.47,2.45,1.25-.12,2.18-1.02,2.08-2.14-.04-.4-.26-.88-.56-1.14-.22-.2-.71-.19-1.05-.13-.32.06-.45.37-.38.74.09.49-.13.81-.65.86-.44.04-.72-.32-.76-.92-.08-1.29,1.22-2.36,2.59-2.12,1.34.23,2.28,1.51,2.17,2.96-.12,1.61-1.31,2.9-2.93,3.16-2.32.37-4.41-.8-5.14-2.87-.8-2.28-.05-4.37,2.03-5.61.23-.14.48-.27.71-.4,0-.5-.04-.97,0-1.44.13-1.36,1-1.97,2.3-1.56.58.18,1.12.51,1.75.81.03-.23.06-.48.09-.73.18-1.34,1.27-1.91,2.4-1.16.55.37.97.96,1.43,1.46.16.17.27.38.46.67.13-.4.17-.7.32-.96.36-.66.68-1.37,1.17-1.92.9-1,1.6-.99,2.51.03.47.53.77,1.21,1.11,1.84.14.26.2.56.34.97.29-.39.48-.71.73-.97.4-.42.79-.88,1.28-1.17,1.05-.61,2.01-.13,2.26,1.05.06.29.08.59.12.91.57-.28,1.07-.59,1.61-.77,1.43-.48,2.38.18,2.47,1.69.02.37-.06.75-.1,1.22.24.14.53.3.81.47,2.07,1.24,2.75,3.14,1.97,5.63-.66,2.09-2.86,3.24-5.15,2.84-1.8-.31-3.04-1.91-2.88-3.71.16-1.7,1.79-2.83,3.32-2.3.94.33,1.56,1.26,1.43,2.15-.08.52-.38.83-.79.78-.46-.05-.68-.35-.63-.78.06-.5-.1-.81-.6-.9-.49-.08-.88.1-1.15.52-.57.87-.12,2.19.91,2.71,1.6.79,3.77-.12,4.32-1.83.67-2.08-.42-3.93-2.56-4.36-3-.6-5.79,1.62-5.94,4.67-.13,2.55,1.23,4.17,3.31,5.27,1.93,1.02,4.04,1.14,6.15.81,2.86-.45,5.41-1.57,7.56-3.55,1.85-1.7,3.7-3.42,5.6-5.07.91-.79,1.94-1.44,2.91-2.15.28-.2.56-.39.84-.59-.07-.08-.1-.15-.15-.17-1.66-.87-2.51-2.22-2.37-4.11.15-2,1.29-3.31,3.09-4.03,2.19-.88,4.48.24,5.01,2.39.47,1.89-1.14,3.7-2.94,3.29-1.11-.25-1.84-1.22-1.69-2.26.11-.74.73-1.25,1.45-1.17.4.05.76.2.83.64.07.47-.2.69-.65.74-.08,0-.16.07-.25.11.6.85,1.27.86,1.75.06.5-.83.12-1.94-.83-2.46-1.08-.59-2.81-.19-3.66.85-.71.86-.66,2.85.08,3.69.49.55,1.1.8,1.83.81,1.13.02,2.21-.25,3.2-.72,1.15-.55,2.25-1.19,3.33-1.87,1.94-1.23,3.94-2.3,6.23-2.66,2.94-.46,5.78-.03,8.42,1.38,1.3.69,2.33,1.71,3.13,2.95.13.2.26.4.48.74.12-.39.19-.67.29-.93.26-.64.47-1.3.81-1.89.49-.84,1.29-1.21,1.97-1,.87.26,1.09.99,1.18,1.77.14,1.23-.12,2.4-.5,3.56-.12.35-.22.71-.18,1.19.26-.24.52-.47.79-.71.94-.84,2.04-1.25,3.31-1.2,1.92.08,3.05,1.56,2.48,3.4-.2.64-.63,1.21-.99,1.79-.16.25-.4.45-.73.81.79,0,1.42,0,2.05,0,.85-.01,1.64.17,2.38.59,1.28.71,1.46,1.95.43,2.99-.6.61-1.36.93-2.21,1.03-.44.05-.89.05-1.45.07.16.21.27.4.41.56,3.29,3.69,4.09,7.94,2.81,12.62-.61,2.22-2.05,3.86-3.85,5.24-.81.63-1.58,1.34-2.24,2.12-.99,1.18-1.25,2.6-.87,4.09.33,1.31,1.34,2.02,2.68,1.95,1.3-.07,2.4-.56,3.19-1.65.41-.57.53-1.19.37-1.86-.19-.81-.94-1.29-1.71-1.14-.81.16-1.09.65-.79,1.43.25.67.19.95-.22,1.11-.43.17-.95-.1-1.11-.66-.43-1.56.07-2.84,1.84-3.17,2.5-.47,3.79,1.96,3.34,3.75-.44,1.73-2.14,3.19-4.11,3.47-1.91.27-2.83-.08-4.43-1.74-.16.27-.32.53-.46.79-1.46,2.76-3.39,5.19-5.3,7.64-2.52,3.24-4.4,6.83-5.78,10.68-.93,2.61-1.02,5.19.09,7.76,1.14,2.66,3.15,4.35,5.94,4.98,2.32.52,4.27-.35,5.86-2.05.38-.4.71-.84,1.07-1.26,1.06-1.25,1.21-4.03.29-5.38-.89-1.3-3.02-1.79-4.34-.92-.43.28-.83.77-1,1.25-.36,1.01-.25,2.05.31,2.99.59.99,2.21,1.09,2.94.2.16-.2.27-.48.3-.74.02-.14-.16-.36-.3-.44-.08-.05-.33.06-.42.17-.13.15-.13.43-.27.54-.19.16-.49.34-.68.28-.2-.06-.42-.37-.46-.6-.13-.7.57-1.64,1.27-1.79,1.26-.27,2.27.59,2.22,1.89-.03.69-.3,1.27-.79,1.75-1.5,1.48-4.05,1.15-5.04-.69-.64-1.19-.84-2.49-.43-3.81.48-1.56,1.57-2.47,3.21-2.68,1.08-.14,2.13-.03,3.11.51,1.62.9,2.23,2.38,2.33,4.12.04.71-.07,1.44-.11,2.19.1.05.21.14.33.18.9.32,1.23,1.02,1.09,1.88-.13.81-.42,1.59-.66,2.37-.07.22-.18.43-.32.76.43-.11.74-.22,1.07-.27.47-.07.96-.17,1.43-.12.99.1,1.52.93,1.15,1.86-.21.53-.58,1.01-.93,1.46-.18.23-.49.36-.8.59.8.3,1.41.44,1.93.74.85.47,1.46,1.15,1.44,2.22-.02,1.01-.61,1.67-1.42,2.12-.53.29-1.13.44-1.77.68.19.19.39.36.56.57.3.37.64.74.86,1.16.66,1.29.04,2.29-1.4,2.27-.41,0-.81-.11-1.22-.19-.26-.05-.51-.12-.89-.21.19.42.34.71.46,1.02.16.42.33.84.43,1.27.36,1.56.09,2.15-1.21,2.86-.06,1.16-.01,2.27-.19,3.34-.47,2.87-3.48,4.21-6.15,3.31-.88-.3-1.57-.87-2-1.7-.86-1.7-.67-3.38.33-4.91,1.12-1.71,3.83-1.7,5.08-.06.44.58.6,1.23.5,1.95-.14.93-.93,1.48-1.97,1.41-.79-.06-1.56-.89-1.49-1.7.02-.26.24-.58.46-.71.31-.18.58.06.74.36.05.09.08.19.12.29.1.29.29.55.59.32.15-.12.24-.5.18-.7-.21-.65-.74-.95-1.41-1.03-.75-.09-1.35.08-1.78.75-.64,1.01-.63,2.86.05,3.73.67.85,2.06,1.19,3.32.79,1.05-.34,1.81-1,2.06-2.12.41-1.8.26-3.45-1.09-4.91-.78-.84-1.47-1.72-2.52-2.26-1.55-.79-3.15-.99-4.8-.4-3.15,1.13-5.01,3.4-5.75,6.64-.41,1.8-.24,3.56.32,5.3,1.33,4.1,3.3,7.87,5.96,11.28,2.06,2.64,4.11,5.28,5.65,8.27.03.06.1.09.15.13.05-.04.13-.06.16-.12,1.66-2.64,6.36-2.05,8,.99.67,1.23.56,2.68-.29,3.69-.84,1.01-2.17,1.31-3.37.76-1.19-.54-1.69-1.86-1.15-3.05.08-.18.21-.42.37-.47.27-.08.61-.12.85-.02.33.13.33.46.2.8-.36.98-.28,1.26.34,1.53.72.31,1.48.07,1.86-.64.37-.69.31-1.4-.08-2.07-.72-1.25-2.49-2.07-3.91-1.83-1.44.24-2.35,1.53-2.25,3.13.09,1.36.55,2.56,1.53,3.52.47.46.93.93,1.47,1.3,3.93,2.77,5.15,6.62,4.54,11.23-.36,2.73-1.5,5.07-3.42,7.03-.07.07-.11.16-.27.39.46,0,.82-.02,1.17,0,1.04.06,1.96.4,2.66,1.2.86.98.71,2.17-.45,2.77-.65.34-1.42.52-2.15.63-.71.1-1.44.02-2.34.02.24.29.42.5.6.71.7.79,1.21,1.67,1.21,2.78-.01,1.36-.89,2.34-2.26,2.5-1.38.15-2.59-.21-3.63-1.14-.28-.25-.55-.49-.99-.65.11.35.22.7.34,1.05.33,1.02.61,2.05.54,3.14,0,.14,0,.28-.02.41-.09,1.03-.53,1.68-1.23,1.85-.67.16-1.49-.22-1.95-1.07-.44-.81-.73-1.7-1.11-2.59-.03.02-.15.07-.21.16-1.55,2.67-3.98,4.01-6.91,4.62-3.16.65-6.18.21-9.01-1.33-1.09-.59-2.13-1.28-3.18-1.93-1.36-.85-2.78-1.52-4.37-1.79-.4-.07-.82-.1-1.23-.08-1.15.07-1.91.74-2.18,1.86-.53,2.28,1.18,4.12,3.43,3.7,1.2-.22,1.98-1.43,1.58-2.44-.38-.97-1.13-1.08-1.93-.18.21.06.43.06.54.17.18.17.42.42.4.62-.01.21-.25.49-.46.6-.77.4-1.71-.19-1.8-1.1-.09-.84.25-1.49.96-1.92.8-.48,1.63-.54,2.45-.05.97.59,1.51,1.96,1.21,3.07-.34,1.26-1.13,2.11-2.4,2.48-1.78.52-3.83-.29-4.96-1.96-1.06-1.56-1.03-3.7.15-5.11.43-.52,1.02-.9,1.6-1.39-.78-.55-1.65-1.08-2.42-1.73-1.68-1.42-3.31-2.91-4.97-4.36-.93-.82-1.85-1.66-2.83-2.42-2.85-2.2-6.09-3.18-9.67-2.88-2.29.19-4.27,1.07-5.63,3.04-1.18,1.71-1.12,4.08.14,5.82,1.19,1.66,3.35,2.42,5.32,1.88,1.72-.47,2.64-1.93,2.35-3.72-.27-1.69-1.67-2.79-3.38-2.68-1.22.08-2.1.85-2.22,1.93-.09.88.46,1.61,1.22,1.59.51-.01.72-.21.78-.74.01-.14-.05-.31.01-.4.15-.21.36-.51.55-.52.25,0,.62.18.73.39.29.56.15,1.14-.2,1.66-.83,1.23-2.64,1.32-3.68.18-1.34-1.46-.84-3.96,1.01-4.94,2.37-1.26,6.03-.11,6.51,3.36.32,2.29-.46,3.73-2.49,4.87-.18.1-.35.2-.48.27,0,.61.08,1.17-.02,1.69-.23,1.16-.99,1.63-2.13,1.34-.43-.11-.82-.34-1.23-.52-.21-.1-.4-.23-.65-.38-.04.34-.05.62-.1.88-.25,1.28-1.31,1.77-2.4,1.05-.53-.35-.93-.9-1.37-1.38-.16-.17-.27-.39-.48-.71-.14.38-.25.65-.34.92-.32.93-.8,1.75-1.63,2.33-.64.45-.96.44-1.59-.01-.79-.56-1.26-1.35-1.59-2.24-.11-.29-.18-.59-.3-1.02-.27.37-.45.68-.69.93-.43.44-.83.95-1.35,1.25-1.08.64-2.09.09-2.27-1.15-.04-.26-.05-.52-.08-.83-.55.28-1.01.57-1.52.76-1.57.57-2.58-.16-2.58-1.83,0-.34.05-.68.07-1.02-.51-.33-1.02-.62-1.48-.98-1.69-1.35-2.11-3.89-1-5.81,1.11-1.91,3.52-2.77,5.56-1.97,1.6.63,2.51,2.32,2.11,3.92-.39,1.55-1.95,2.42-3.34,1.86-.89-.36-1.44-1.26-1.31-2.12.08-.54.36-.83.78-.78.46.06.69.36.62.79-.07.46.07.74.5.87.47.15.96-.05,1.25-.49.58-.87.14-2.19-.9-2.71-1.81-.91-4.12.31-4.44,2.32-.4,2.49,1.27,3.69,2.88,3.9,2.05.27,3.77-.41,4.91-2.18,1.13-1.76,1.25-3.65.11-5.46-1.31-2.1-3.37-3.01-5.74-3.21-3.58-.3-6.86.65-9.66,2.91-2.12,1.71-4.07,3.62-6.14,5.39-1.07.92-2.23,1.73-3.35,2.58-.24.19-.5.35-.81.57.19.12.32.22.46.29,2.53,1.4,2.56,4.42,1.36,6.19-1.16,1.69-3.28,2.48-5.07,1.9-2.33-.76-3.12-3.6-1.44-5.21.67-.65,1.46-.76,2.3-.5.77.24,1.3.77,1.49,1.58.2.87-.3,1.64-1.13,1.78-.55.09-1.09-.19-1.15-.63-.07-.54.27-.73.74-.77.05,0,.09-.09.17-.17-.25-.48-.64-.69-1.17-.52-.52.17-.92.93-.8,1.54.13.68.49,1.2,1.14,1.51,1.09.51,2.74.1,3.57-.91.7-.86.7-2.73-.03-3.6-.49-.59-1.13-.88-1.9-.89-1.13-.02-2.21.24-3.2.73-1.23.61-2.42,1.31-3.59,2.03-1.83,1.14-3.72,2.13-5.87,2.48-2.98.49-5.85.06-8.52-1.37-1.24-.66-2.23-1.62-3.01-2.78-.17-.25-.33-.52-.57-.88-.11.32-.17.53-.26.73-.35.78-.63,1.61-1.07,2.33-.38.6-1.02.95-1.79.73-.72-.2-.98-.8-1.11-1.48-.21-1.15-.01-2.27.3-3.37.16-.56.35-1.1.61-1.9-.45.4-.72.63-.98.87-1.05.97-2.27,1.4-3.7,1.25-1.53-.15-2.47-1.33-2.3-2.86.1-.86.48-1.57,1.02-2.22.22-.26.45-.51.8-.89-.6,0-1.06-.01-1.52,0-.94.03-1.86-.06-2.72-.48-1.51-.75-1.69-2.24-.37-3.31.63-.51,1.37-.78,2.19-.83.37-.02.74,0,1.29,0-.24-.3-.37-.48-.51-.64-1.8-1.97-2.88-4.26-3.2-6.92-.19-1.55-.23-3.09.12-4.63.59-2.56,1.94-4.6,4.04-6.18.79-.6,1.53-1.29,2.21-2.01.9-.95,1.19-2.17,1.17-3.44-.03-1.94-1.49-3.08-3.4-2.74-1.11.2-2.01.72-2.65,1.64-.46.67-.59,1.39-.21,2.15.25.49.65.8,1.22.83,1,.06,1.49-.57,1.11-1.5-.18-.45-.26-.8.23-1.04.39-.2.86.03,1.09.51.57,1.18.04,2.59-1.17,3.12-1.74.77-3.7-.31-3.99-2.2-.16-1.04.07-1.98.73-2.82,1.34-1.73,3.13-2.29,5.23-2.02.85.11,1.39.5,2.61,1.73.14-.23.28-.45.4-.67,1.49-2.82,3.46-5.31,5.41-7.81,2.46-3.16,4.28-6.66,5.66-10.4.95-2.58,1.12-5.17.07-7.77-1.1-2.72-3.08-4.47-5.91-5.16-2.37-.58-4.33.3-5.96,2.01-.38.4-.71.84-1.07,1.26-1.08,1.27-1.24,4.01-.32,5.38.9,1.34,3.11,1.82,4.43.9.4-.28.75-.74.93-1.19.41-1.02.22-2.05-.3-2.99-.56-1-2.18-1.11-2.93-.25-.13.15-.22.35-.28.54-.08.27-.1.61.25.67.15.03.44-.18.51-.35.2-.44.38-.86.97-.63.4.15.48.7.25,1.28-.35.87-1.05,1.25-1.99,1.07-.86-.17-1.44-.78-1.38-1.66.04-.56.21-1.18.52-1.63,1.22-1.71,3.99-1.66,5.13.1.91,1.41,1.07,2.98.42,4.55-.64,1.55-2.22,2.39-4.05,2.27-2.43-.17-4.04-1.65-4.33-4.07-.11-.91-.02-1.85-.02-2.82-.09-.05-.2-.12-.32-.18-.9-.48-1.23-1.01-1.07-2,.11-.71.38-1.39.59-2.08.09-.28.23-.54.38-.88-.69.13-1.29.29-1.89.36-.64.08-1.26-.02-1.65-.62-.41-.64-.21-1.28.16-1.84.36-.54.82-1.01,1.3-1.59-.2-.05-.41-.09-.61-.14-.2-.06-.4-.11-.59-.19-1.07-.46-1.93-1.11-1.98-2.39-.05-1.07.72-2.02,1.98-2.5.38-.14.78-.23,1.44-.42-.36-.25-.67-.39-.85-.62-.36-.45-.74-.93-.95-1.46-.39-.98.18-1.82,1.23-1.9.44-.03.89.06,1.33.12.33.05.65.16,1.04.26-.28-.75-.59-1.4-.77-2.08-.48-1.71-.23-2.27,1.25-3.15-.03-.68-.12-1.37-.09-2.05.07-1.7.6-3.18,2.16-4.11,1.37-.82,2.83-.91,4.27-.35.61.24,1.2.72,1.61,1.23,1.21,1.52.98,4.36-.39,5.74-.87.89-1.92,1-3.06.72-1.08-.28-1.85-.92-2.15-2.02-.37-1.34.41-2.4,1.75-2.42.91-.01,1.71.81,1.69,1.72,0,.34-.12.62-.47.72-.36.1-.59-.09-.75-.39-.03-.06-.05-.13-.07-.19-.12-.31-.31-.65-.65-.38-.16.12-.19.58-.09.82.24.6.78.82,1.4.89.71.08,1.28-.09,1.7-.72.74-1.12.69-2.98-.12-3.89-.78-.87-2.43-1.11-3.66-.51-.85.41-1.43,1.05-1.65,2-.41,1.82-.15,3.41,1.12,4.91,1.11,1.31,2.3,2.41,3.99,2.75.82.17,1.74.24,2.55.05,2.79-.65,4.81-2.33,5.92-5,.92-2.21,1.07-4.46.37-6.77-1.07-3.49-2.64-6.74-4.7-9.74-2.35-3.43-5.24-6.49-7.09-10.37ZM32.16,17.66c.57.35.99.58,1.38.86,2.59,1.88,2.63,5.6.09,7.55-1.42,1.09-3.01,1.32-4.7.85-.64-.18-1.25-.47-2.01-.76.25.48.44.84.61,1.21.57,1.2.94,2.45.82,3.79-.27,2.98-3.35,5.54-6.5,5.52-3.05-.02-5.17-3.02-4.63-5.29.02-.11,0-.22,0-.39-.14.09-.21.12-.24.17-.1.14-.19.29-.27.44-.75,1.49-.99,3.07-.79,4.72.26,2.14.97,4.17,1.86,6.11,1.11,2.41,2.28,4.8,3.53,7.13,2.5,4.65,3.15,9.65,2.89,14.83-.08,1.7-.36,3.37-.95,4.96-.88,2.38-2.06,4.6-4.14,6.19-.81.62-1.71,1.13-2.57,1.7.9,1.62.74,2.43-.74,3.79.68.64,1.05,1.38,1.05,2.36,0,.97-.4,1.7-1.06,2.34,1.48,1.31,1.63,2.13.73,3.85.27.14.54.28.8.42,1.29.69,2.49,1.55,3.35,2.71,1.41,1.88,2.51,3.94,3.03,6.28.61,2.77.6,5.54.4,8.33-.21,2.85-.79,5.6-2.04,8.18-.93,1.92-1.9,3.83-2.87,5.73-1.16,2.28-2.18,4.61-2.87,7.08-.46,1.65-.68,3.31-.28,5.01.2.87.47,1.72,1.15,2.52,0-.3.02-.46,0-.61-.38-2.06,1.25-4.49,3.55-5.03,4.16-.98,8.75,3.2,7.39,7.56-.21.65-.49,1.29-.75,1.92-.11.27-.26.53-.48.96.43-.2.7-.32.97-.44.92-.44,1.88-.63,2.91-.58,2.17.1,4.12,1.69,4.63,3.8.46,1.94-.54,4.1-2.4,5.16-.26.15-.52.29-.78.43.64.2,1.26.28,1.86.22,2.23-.2,4.3-.93,6.25-2,1.57-.87,3.1-1.8,4.67-2.66,1.73-.94,3.49-1.86,5.43-2.23,3.95-.76,7.77-.21,11.35,1.61,1.39.71,2.66,1.66,4,2.52,1.19-.99,1.76-1.03,3.52-.23,1.2-1.14,1.76-1.63,3.38-.07.67-.17,1.3-.48,1.91-.43.63.05,1.23.45,1.9.73,2.31-2.04,5.06-3.45,8.22-4.05,3.51-.67,6.94-.59,10.18,1.1,2.01,1.05,4.01,2.14,5.99,3.26,1.84,1.04,3.75,1.89,5.84,2.29,1.01.19,2.02.33,3.18,0-.4-.22-.69-.38-.97-.55-3.07-1.84-3.19-6.02-.23-8.02,1.74-1.17,3.56-1.11,5.42-.32.3.13.59.26.95.41-.38-.89-.76-1.67-1.04-2.48-.43-1.23-.51-2.5-.06-3.75.92-2.56,3.64-4.33,6.37-4.28,2.74.05,4.79,2.73,4.56,4.8-.02.22,0,.45,0,.89.59-.7.82-1.33,1-1.98.38-1.39.39-2.8.12-4.2-.37-1.94-1.03-3.8-1.87-5.57-1.06-2.24-2.22-4.44-3.3-6.67-.64-1.33-1.27-2.68-1.76-4.07-1.2-3.37-1.35-6.88-1.25-10.41.09-3.19.91-6.17,2.65-8.9,1.11-1.74,2.57-3.03,4.36-4,.23-.13.46-.27.69-.4-.95-1.69-.79-2.5.74-3.83-.73-.61-1.05-1.38-1.05-2.35,0-.97.36-1.72,1.05-2.35-1.51-1.25-1.66-2.05-.77-3.8-.07-.06-.14-.15-.22-.2-3.73-1.74-5.67-4.89-6.78-8.66-.82-2.79-.76-5.66-.6-8.52.19-3.56,1.11-6.93,2.78-10.09.79-1.49,1.55-3,2.31-4.51,1.15-2.28,2.16-4.62,2.81-7.1.46-1.73.55-3.47.08-5.21-.17-.65-.42-1.27-.99-1.95,0,.46-.02.7,0,.93.21,2.1-1.86,4.53-4.38,4.78-3.54.34-8.4-3.52-6.35-8.47.27-.66.59-1.3.94-2.08-.39.17-.66.29-.93.42-.83.38-1.68.59-2.6.58-2.29-.02-4.32-1.51-4.88-3.61-.57-2.12.45-4.31,2.55-5.47.18-.1.35-.23.63-.42-1.11-.24-2.07-.17-3.02,0-1.95.37-3.77,1.07-5.49,2.05-1.47.84-2.91,1.71-4.4,2.52-1.67.9-3.37,1.78-5.24,2.16-3.99.8-7.83.24-11.45-1.59-1.4-.7-2.66-1.67-4.03-2.53-1.02,1.17-2.28.91-3.55.2-.49.58-.98,1.2-1.73,1.02-.62-.15-1.18-.59-1.84-.94-1.15.78-2.35.72-3.33-.26-1.38.87-2.62,1.81-3.99,2.5-3.62,1.83-7.47,2.4-11.45,1.59-2.04-.41-3.88-1.39-5.7-2.4-1.42-.78-2.81-1.61-4.22-2.41-1.63-.93-3.38-1.56-5.22-1.91-.95-.18-1.9-.26-3.07,0ZM61.59,145.4c-.35-.22-.51-.34-.68-.42-2.95-1.35-6.04-1.87-9.26-1.5-2.17.25-4.07,1.25-5.96,2.25-1.46.77-2.87,1.64-4.31,2.46-1.72.98-3.54,1.67-5.46,2.14-3.03.74-5.57-.13-7.79-2.19-.57-.53-.94-1.19-1.11-1.94-.34-1.46.45-2.9,1.86-3.38.86-.3,1.65-.11,2.29.52.59.59.92,1.28.64,2.15-.24.72-.6,1.1-1.02.93-.63-.25-.48-.73-.31-1.21.15-.42-.05-.73-.37-.99-.36-.28-.7-.2-1.05,0-.65.38-.92,1.04-.71,1.76.34,1.2,1.41,1.93,2.66,1.82,1.69-.14,2.96-1.42,3.14-3.17.16-1.46-.96-3.04-2.51-3.51-1.68-.51-3.15.02-4.42,1.09-1.74,1.47-2.79,3.38-3.31,5.59-.56,2.4.02,4.5,1.62,6.34,1.69,1.96,3.8,3.29,6.26,4.02,1.65.49,3.32.48,4.99-.04,2.62-.82,4.81-2.36,6.89-4.06,2.11-1.72,4-3.7,6.12-5.4,3.22-2.59,6.94-3.72,11.09-3.26.16.02.32,0,.7,0ZM61.46,21.41c-.12-.06-.14-.08-.17-.08-.1,0-.21,0-.31,0-4.07.48-7.72-.6-10.96-3.05-1.42-1.08-2.75-2.3-4.05-3.53-1.88-1.78-3.81-3.49-6.11-4.72-.88-.47-1.77-.93-2.7-1.28-1.58-.6-3.23-.71-4.88-.29-3.05.78-5.54,2.41-7.39,4.97-.78,1.09-1.24,2.32-1.19,3.68.11,3.1,1.35,5.68,3.77,7.63,1.2.96,2.62,1.38,4.18.89,1.6-.51,2.69-2.11,2.48-3.62-.25-1.79-1.62-3.05-3.35-3.06-1.17,0-2.13.72-2.45,1.85-.22.78.17,1.55.91,1.85.68.27,1.35-.27,1.25-1-.02-.13-.1-.26-.13-.39-.11-.42-.02-.78.43-.91.4-.12.64.15.81.47.41.77.39,1.53-.13,2.24-.52.71-1.21,1.12-2.13,1-1.43-.18-2.54-1.56-2.42-3,.08-.96.47-1.81,1.21-2.44.6-.51,1.24-.99,1.9-1.42,1.42-.91,2.99-1.18,4.66-.96,2.25.3,4.35,1.03,6.32,2.14,1.53.86,3.03,1.78,4.58,2.61,1.73.93,3.48,1.85,5.44,2.18,3.32.56,6.52.04,9.6-1.27.27-.11.51-.3.81-.48ZM80.63,21.44c.14.09.27.19.42.26,3.04,1.42,6.23,1.95,9.56,1.52,2.12-.27,3.99-1.27,5.85-2.26,1.46-.78,2.87-1.64,4.31-2.46,1.69-.96,3.48-1.62,5.37-2.09,3.07-.76,5.65.12,7.85,2.26.45.44.77,1.06.99,1.66.5,1.36-.09,2.72-1.37,3.41-1.3.7-2.79.15-3.3-1.23-.26-.71-.12-1.37.34-1.94.13-.16.52-.27.71-.19.19.08.33.4.38.64.04.18-.16.41-.13.59.06.31.16.65.35.89.24.3.6.26.95.09.67-.33,1-.96.85-1.7-.21-1.03-1.1-1.84-2.14-1.94-1.34-.13-2.72.64-3.31,1.86-.59,1.22-.55,2.41.3,3.5.92,1.19,2.16,1.69,3.65,1.46,1.07-.17,2.03-.64,2.83-1.4,1.56-1.49,2.59-3.28,3.07-5.39.54-2.36.05-4.44-1.53-6.26-.5-.57-1.02-1.14-1.61-1.6-4.71-3.67-8.69-3.68-13.05-.95-1.75,1.1-3.44,2.25-4.92,3.72-1.29,1.29-2.7,2.46-4.07,3.66-1.3,1.15-2.73,2.09-4.36,2.72-2.55.98-5.15,1.49-7.96,1.17ZM80.62,145.22c.02.06.04.12.06.17.19,0,.38.02.57,0,3.92-.42,7.48.58,10.59,2.94,1.94,1.48,3.75,3.14,5.52,4.84,1.74,1.67,3.73,2.94,5.81,4.08,1.79.99,3.73,1.52,5.77,1.18,3.54-.59,6.35-2.4,8.37-5.37.47-.69.84-1.56.93-2.38.39-3.61-.98-6.55-3.79-8.78-1.14-.91-2.53-1.25-4-.79-1.59.49-2.68,2.07-2.51,3.61.19,1.69,1.55,2.99,3.23,3.08,1.24.07,2.33-.75,2.59-1.93.11-.51.02-.96-.33-1.34-.39-.43-.9-.6-1.28-.43-.48.22-.63.58-.46,1.29.11.45.13.87-.39,1.01-.51.15-.73-.25-.91-.65-.38-.85-.22-1.68.46-2.37.68-.69,1.59-.89,2.46-.54,1.97.8,2.52,3.22.97,4.9-1.89,2.04-4.19,3.21-7.11,2.75-2.17-.34-4.21-1.04-6.12-2.11-1.53-.86-3.04-1.77-4.58-2.6-1.73-.93-3.49-1.83-5.44-2.2-2.78-.52-5.49-.11-8.16.71-.77.24-1.5.62-2.24.93ZM22.86,101.88c-.07-.01-.13-.03-.2-.04-.23.73-.44,1.48-.7,2.2-1.55,4.28-3.77,8.19-6.64,11.73-1.61,1.99-3.15,4.03-4.3,6.31-.49.97-.93,2.02-1.11,3.08-.23,1.31-.21,2.67-.24,4.01-.09,3.76,1.27,6.99,3.61,9.88,1.59,1.98,3.52,3.18,6.12,3.41,2.76.25,6.07-.69,7.35-4.66,1.03-3.19-1.57-6.59-4.93-6.42-1.44.07-2.64.97-3.13,2.32-.76,2.11,1.16,4.45,3.35,4.07.59-.1,1.04-.5,1.15-1.04.12-.54-.08-.86-.79-1.25-.08.06-.17.11-.24.18-.35.31-.7.31-.99-.04-.28-.34-.18-.72.09-1.03.32-.36.73-.49,1.21-.42,1.42.21,2.37,1.73,1.91,3.1-.41,1.25-1.76,2.2-3.12,2.11-2.27-.13-4.11-1.09-5.36-3.03-1.37-2.12-1.57-4.45-1.18-6.87.33-1.98.99-3.88,1.84-5.69,1.1-2.37,2.27-4.72,3.48-7.04,1.51-2.91,2.52-5.95,2.76-9.24.14-1.88.14-3.76.08-5.63ZM119.59,135.47c-.63.36-.85.84-.64,1.44.2.58.65.92,1.26.88.57-.04,1.2-.07,1.68-.34,1.17-.66,1.82-1.72,1.65-3.09-.17-1.38-1-2.34-2.32-2.78-2.66-.88-6.19,1.55-6.16,4.35.02,2.32,1.01,4.25,3,5.59,2.55,1.71,7.29.99,9.13-.78,3.13-3.01,5.15-6.52,5.19-10.98,0-.72.06-1.45.04-2.17-.04-2.06-.44-4.01-1.51-5.83-1.24-2.12-2.66-4.11-4.19-6.02-3.3-4.14-5.84-8.68-7.26-13.81-.01-.04-.08-.06-.28-.19-.01,1.2-.05,2.29-.03,3.38.05,4.13.92,8.06,2.93,11.71.8,1.45,1.52,2.94,2.27,4.41,1.1,2.19,2.05,4.44,2.69,6.81.48,1.75.66,3.51.33,5.32-.62,3.36-2.96,5.65-6.2,6-1.44.15-2.85-.62-3.38-1.86-.59-1.39.22-2.98,1.69-3.3.47-.1.89-.03,1.25.3.37.34.48.8.22,1.1-.33.39-.69.39-1.06.03-.07-.07-.18-.1-.3-.16ZM119.36,65.07c.32-.99.56-1.85.87-2.69,1.55-4.17,3.73-7.97,6.53-11.43,1.58-1.96,3.06-3.99,4.27-6.21.62-1.13,1.13-2.29,1.2-3.59.07-1.37.13-2.75.13-4.12,0-4.42-1.98-7.94-5.08-10.92-.86-.83-1.9-1.38-3.09-1.57-.85-.14-1.71-.31-2.56-.3-3.98.04-6.24,2.76-6.61,6.32-.04.4.04.83.15,1.22.6,2.05,3.04,3.71,5.17,3.56,1.48-.1,2.77-1.19,3.12-2.6.5-2.07-1.38-4.14-3.43-3.79-.6.11-1.05.5-1.16,1.03-.11.55.08.87.8,1.27.09-.07.2-.16.3-.24.33-.26.66-.2.92.09.27.3.21.65-.02.95-.34.45-.8.62-1.37.5-1.81-.37-2.56-2.53-1.34-3.98.75-.89,1.73-1.33,2.93-1.21,2.96.31,5.15,2.14,6.02,5.05.7,2.34.43,4.63-.27,6.92-.8,2.61-1.94,5.08-3.19,7.5-1.01,1.96-2.03,3.92-2.89,5.94-1.58,3.7-1.73,7.63-1.6,11.58,0,.19.09.39.17.72ZM22.68,64.87c.06-.01.12-.03.18-.04,0-1.51.05-3.03-.01-4.54-.14-3.31-.88-6.48-2.41-9.44-.89-1.71-1.76-3.43-2.63-5.16-1.2-2.37-2.24-4.81-2.89-7.4-.52-2.04-.6-4.1.1-6.12.99-2.84,2.95-4.5,5.99-4.81,1.51-.15,2.96.79,3.38,2.17.42,1.36-.59,2.9-2,3.05-.53.06-1.14-.21-1.28-.67-.08-.25-.03-.62.1-.84.18-.29.52-.3.82-.09.16.11.33.19.48.28.67-.6.78-.84.65-1.33-.16-.58-.62-.93-1.3-.99-.59-.05-1.17,0-1.69.34-1.12.74-1.79,1.74-1.63,3.12.15,1.31.93,2.23,2.13,2.71,2.56,1.03,6.19-1.33,6.36-4.09,0-.03,0-.07,0-.1-.15-2.62-1.15-4.72-3.58-5.98-1.72-.9-3.53-.77-5.35-.45-1.33.24-2.48.82-3.45,1.75-1.36,1.3-2.46,2.78-3.36,4.43-1.64,3-1.78,6.26-1.6,9.56.11,1.97.75,3.78,1.87,5.4,1.24,1.82,2.46,3.66,3.82,5.4,3.19,4.09,5.73,8.51,7.14,13.53.03.12.11.23.17.34ZM14.11,24.83c-1.05-.17-1.93-.42-2.62-1.11-1.03-1.03-1.17-2.55-.32-3.66.85-1.1,2.84-1.49,3.94-.76.3.2.57.45.41.84-.16.41-.51.36-.88.28-.46-.09-.94-.21-1.4-.17-.67.06-1.14.47-1.3,1.15-.14.6.11,1.2.75,1.56.41.22.9.39,1.35.4.64.01,1.31-.07,1.94-.24,1.46-.38,2.08-1.81,1.42-3.17-.39-.81-1.06-1.34-1.82-1.77-3.7-2.11-8.54-1.08-11.12,2.34-1.79,2.37-2.43,5.05-2.31,7.96.07,1.84.64,3.52,1.7,5.02,1.15,1.62,2.95,2.51,4.47,4.1-.03-5.28,2.2-9.29,5.81-12.77ZM14.09,141.88c-3.61-3.47-5.81-7.5-5.79-12.62-.98.8-1.81,1.51-2.67,2.17-1.69,1.29-2.81,2.97-3.2,5.03-.23,1.24-.31,2.54-.21,3.79.3,3.61,1.84,6.58,5.11,8.35,2.93,1.59,5.89,1.45,8.73-.34.66-.41,1.14-.98,1.45-1.7.29-.7.2-1.35-.17-1.98-.83-1.38-3.9-1.71-5-.53-.72.77-.51,1.86.46,2.31.6.28,1.19.27,1.8-.01.34-.15.69-.2.9.19.24.45-.06.74-.41.91-1.11.56-2.21.47-3.24-.18-.97-.61-1.36-1.56-1.18-2.67.21-1.34,1.16-2.06,2.37-2.46.31-.1.64-.16,1.07-.26ZM128.06,24.95c3.54,3.37,5.69,7.42,5.73,12.52,1.22-1.01,2.33-1.88,3.38-2.8.92-.81,1.61-1.8,2.02-2.96,1.48-4.13.89-7.97-1.78-11.41-2.6-3.35-7.42-4.19-11.01-2.08-.72.43-1.36.95-1.74,1.72-.38.77-.36,1.53.1,2.26.84,1.32,3.85,1.62,4.94.5.73-.75.53-1.85-.41-2.32-.52-.26-1.06-.26-1.61-.1-.2.06-.4.18-.59.17-.18-.01-.42-.12-.5-.26-.08-.15-.06-.41.02-.57.09-.17.28-.3.46-.39,1.25-.69,3.2-.18,3.96,1.03.82,1.3.47,2.91-.9,3.79-.59.38-1.31.57-2.08.9ZM128.1,141.76c.82.39,1.64.63,2.27,1.12,1.48,1.13,1.47,3.21.05,4.27-.88.66-1.88.82-2.94.53-.26-.07-.55-.2-.71-.39-.15-.18-.26-.54-.17-.71.08-.17.44-.27.67-.27.26,0,.52.18.78.23.91.17,1.78-.29,2.02-1.03.25-.8-.15-1.55-1.11-1.93-.31-.13-.67-.21-1-.19-.62.03-1.24.08-1.84.23-1.54.39-2.17,1.93-1.4,3.33.4.72,1.01,1.21,1.71,1.61,3.75,2.17,8.68,1.08,11.26-2.44,1.76-2.39,2.41-5.09,2.22-7.99-.18-2.73-1.3-5.04-3.54-6.73-.69-.52-1.32-1.1-1.99-1.64-.17-.14-.35-.26-.62-.46-.02,5.13-2.2,9.14-5.68,12.47ZM118.98,13.72c.25-.3.44-.58.68-.83,1.21-1.25,3.12-1.35,4.4-.3,1.11.9.96,2.96-.64,3.68-.21.09-.6-.03-.79-.19-.1-.09,0-.5.12-.72.11-.2.37-.3.52-.49.43-.54.31-1.14-.31-1.46-.62-.33-1.26-.32-1.87.03-.83.47-1.17,1.36-.92,2.31.27,1.01,1.13,1.66,2.27,1.55,2.09-.21,3.73-1.14,4.55-3.2,1.14-2.86.34-6.59-1.93-8.67-2.37-2.17-5.29-2.71-8.37-2.44-3.13.28-5.64,2-8.27,3.84,4.63.75,8.11,3.01,10.53,6.9ZM23.13,13.75c1.13-2.03,2.65-3.51,4.47-4.69,1.8-1.17,3.75-1.95,5.94-2.31-1.5-1-2.98-1.95-4.54-2.72-3.16-1.56-6.39-1.45-9.62-.16-4.51,1.8-5.62,6.96-4.3,10.26.8,2.01,2.43,2.92,4.49,3.16.39.04.83-.07,1.21-.21.8-.3,1.31-1.3,1.18-2.21-.11-.84-.79-1.54-1.61-1.67-.71-.11-1.55.18-1.73.66-.25.64.14,1.03.6,1.39.3.23.49.53.22.88-.26.33-.6.25-.93.07-1.38-.75-1.78-2.84-.2-3.83,1.32-.83,3.04-.62,4.15.55.21.22.39.47.68.82ZM23.1,153.04c-.28.33-.48.6-.72.84-1.22,1.24-3.14,1.32-4.41.25-1.15-.97-.86-2.98.69-3.68.3-.14.67-.12.79.23.07.2-.06.5-.16.73-.07.14-.27.21-.38.34-.63.66-.46,1.37.39,1.7,1.32.51,2.76-.55,2.66-1.96-.09-1.29-1.04-2.16-2.38-2.02-2.11.21-3.74,1.17-4.53,3.24-1.27,3.32-.14,8.44,4.41,10.22,3.2,1.25,6.4,1.34,9.53-.19,1.39-.68,2.68-1.55,4.01-2.34.18-.11.33-.26.58-.46-4.55-.76-8-2.97-10.46-6.88ZM108.42,159.92c1.5,1.02,2.86,1.95,4.34,2.67,3.01,1.47,6.08,1.58,9.24.55,4.62-1.5,6.09-6.05,5.31-9.53-.52-2.34-2.1-3.79-4.48-4.1-.46-.06-.97-.02-1.42.12-.93.28-1.48,1.42-1.26,2.44.2.9,1.12,1.57,2.09,1.48.53-.05,1.05-.19,1.24-.76.17-.53-.11-.93-.54-1.23-.06-.04-.11-.08-.16-.13-.26-.24-.38-.58-.12-.81.18-.16.6-.22.82-.12,1.54.74,1.75,2.83.46,3.76-1.33.95-3.16.79-4.32-.45-.22-.24-.42-.5-.64-.77-2.45,3.89-5.92,6.14-10.55,6.88ZM71.01,3.94c-.97.77-1.23,1.79-1.37,2.86-.36,2.87.28,5.6,1.21,8.28.03.08.1.14.25.32.16-.44.32-.78.4-1.14.31-1.3.62-2.6.88-3.91.27-1.4.19-2.81-.07-4.2-.16-.86-.48-1.64-1.31-2.21ZM70.97,151.38c-.66,1.54-.97,3.06-1.24,4.58-.29,1.64-.29,3.29.09,4.92.18.75.51,1.42,1.19,1.89.84-.53,1.14-1.35,1.31-2.24.58-3.05-.12-5.95-1.08-8.81-.03-.09-.12-.15-.28-.34ZM13.05,15.2c-1.14-1.85-2.27-3.7-3.88-5.18-.42-.38-.93-.72-1.46-.92-.99-.38-1.96-.19-2.27.38-.43.81-.13,1.59.43,2.17.63.66,1.34,1.29,2.12,1.76,1.53.93,3.29,1.33,5.06,1.78ZM128.83,15.33c.85-.25,1.51-.4,2.13-.65,1.21-.48,2.44-.94,3.59-1.55.92-.48,1.68-1.22,2.09-2.22.5-1.23-.12-2.07-1.45-2-.86.05-1.59.4-2.21.99-1.62,1.53-2.8,3.38-4.15,5.41ZM129.11,151.43c-.06.07-.12.14-.18.21.81,1.15,1.59,2.32,2.46,3.44.55.7,1.19,1.34,1.84,1.95.63.59,1.42.85,2.28.78,1.04-.08,1.52-.72,1.19-1.69-.18-.54-.52-1.05-.89-1.48-.71-.83-1.63-1.38-2.64-1.77-1.34-.51-2.71-.96-4.07-1.44ZM12.99,151.47c-.62.19-1.25.34-1.85.57-1.18.46-2.37.91-3.5,1.48-.93.47-1.69,1.19-2.15,2.15-.63,1.32.05,2.28,1.51,2.14.85-.08,1.56-.48,2.17-1.07,1.58-1.51,2.73-3.34,3.81-5.27ZM18.05,18.43c1.09,1.53,1.25,2.96.43,4.53,1.16,0,2.2-.12,3.2.03,1.01.15,1.99.57,2.93.86-.5-.96-1.08-1.9-1.48-2.92-.39-1-.58-2.07-.88-3.17-1.24.96-2.59.98-4.2.67ZM18.44,143.74c.9,1.69.63,3.12-.26,4.41.76,0,1.49-.09,2.19.03.68.12,1.32.44,2.02.7.21-2.23,1.03-4.2,2.27-6.08-1.92,1.13-3.97,1.13-6.22.94ZM119.71,149.05c1.34-1.05,2.71-1.05,4.09-.8-.26-.77-.65-1.46-.71-2.18-.06-.74.2-1.51.32-2.3-1.03,0-2.08.12-3.08-.03-.99-.15-1.93-.57-3.05-.92,1.42,1.86,2.16,3.86,2.44,6.24ZM117.32,24.11c2.01-1.27,4.06-1.33,6.09-1.11-.13-.84-.39-1.59-.33-2.31.07-.74.45-1.46.72-2.23-1.44.31-2.8.24-3.99-.69-.31,1.15-.51,2.21-.9,3.2-.4,1.02-.98,1.96-1.6,3.14ZM10.15,83.52c0-.11-.01-.21-.02-.32-1.26-.29-2.52-.62-3.8-.87-.91-.18-1.83-.33-2.75-.39-.46-.03-.95.11-1.39.27-.53.19-1.01.58-1,1.19,0,.55.45.93.96,1.11.44.16.93.32,1.39.29,1.02-.07,2.05-.22,3.05-.42,1.19-.24,2.37-.56,3.56-.85ZM131.91,83.29c0,.09,0,.18,0,.26,1.61.35,3.21.73,4.82,1.05.67.13,1.38.25,2.04.18.58-.06,1.2-.31,1.68-.65.59-.42.57-.99.04-1.49-.22-.21-.5-.43-.77-.48-.7-.11-1.44-.27-2.13-.15-1.73.29-3.43.72-5.14,1.1-.19.04-.36.12-.55.19ZM133.76,15.58c0,.09-.01.18-.02.27,1.26.34,2.5.76,3.77,1,.64.12,1.36-.05,2.02-.2.42-.1.94-.37.82-.89-.06-.26-.53-.47-.85-.62-.27-.13-.6-.18-.9-.2-1.66-.14-3.27.18-4.84.66ZM136.31,73.08c-2.42,1.72-3.37,4.2-4.49,6.69,2.63-1.36,4.81-4.52,4.49-6.69ZM133.74,150.88c0,.12,0,.24-.01.35,1.13.2,2.26.44,3.4.58.92.11,1.85.07,2.72-.33.7-.32.75-.76.1-1.18-.69-.45-1.47-.63-2.26-.45-1.33.3-2.63.68-3.95,1.03ZM8.31,15.81c0-.1-.01-.2-.02-.31-.98-.18-1.95-.45-2.93-.53-.88-.07-1.78.02-2.66.12-.43.05-.88.21-1.07.69.5.83,1.14,1.18,2.25,1.14,1.56-.06,2.97-.68,4.43-1.11ZM1.6,151.01c1.37,1.1,4.72,1.08,6.85-.08-1.28-.36-2.42-.7-3.57-.98-.43-.11-.89-.17-1.33-.12-.78.1-1.58.24-1.95,1.18ZM136.29,93.44c.47-1.77-2.06-5.45-4.39-6.39,1.06,2.89,3.07,6.2,4.39,6.39ZM5.66,93.44c.09.03.17.06.26.08,2.31-1.58,3.19-4.11,4.42-6.71-1.44.93-3.09,2.52-3.79,3.68-.33.55-.59,1.17-.8,1.78-.12.36-.07.77-.09,1.16ZM5.83,73.14c-.51,1.96,1.91,5.51,4.43,6.6-1.16-2.44-2.07-4.95-4.43-6.6ZM68.94,153.64c-.09-.02-.17-.03-.26-.05-.64,1.26-1.28,2.51-1.91,3.77-.36.71-.73,1.41-1.03,2.14-.28.68-.56,1.39-.22,2.32.38-.32.75-.53.96-.84.42-.63.88-1.27,1.09-1.98.53-1.77.92-3.58,1.37-5.37ZM65.44,4.88c-.05.44-.13.68-.08.88.14.6.26,1.22.52,1.77.79,1.68,1.64,3.33,2.48,4.99.11.22.26.42.4.63-.26-1.84-.64-3.61-1.16-5.34-.22-.74-.7-1.41-1.13-2.07-.21-.31-.58-.5-1.02-.86ZM73.33,153.63c-.05.03-.11.05-.16.08.38,1.59.68,3.21,1.16,4.77.28.9.8,1.73,1.29,2.54.19.31.58.49.96.8.24-.98.03-1.74-.32-2.45-.85-1.76-1.73-3.5-2.61-5.25-.09-.18-.22-.33-.33-.5ZM73.19,13.15s.08.03.12.05c.19-.32.39-.64.55-.97.62-1.23,1.24-2.46,1.84-3.7.29-.59.57-1.18.8-1.79.2-.53.3-1.1.1-1.69-.8.36-1.02.6-1.53,1.41-.76,1.19-.93,2.58-1.31,3.89-.26.91-.39,1.86-.57,2.8ZM132.45,81.51c1.24-.37,2.51-.68,3.72-1.13.76-.28,1.47-.73,2.15-1.18.42-.27.76-.68.83-1.24-1.6-.17-4.75,1.45-6.7,3.55ZM9.67,85.2c-1.28.38-2.58.7-3.82,1.17-.79.3-1.52.78-2.22,1.26-.37.25-.72.63-.66,1.31,2.71-.47,4.78-1.93,6.7-3.75ZM139.08,88.81c-.31-1.13-1.12-1.76-2.09-2.12-1.56-.58-3.16-1.06-4.75-1.58,1.97,1.83,4.08,3.36,6.84,3.7ZM3.07,77.82c-.07.08-.14.15-.22.23.22.32.39.73.68.96.59.46,1.22.93,1.91,1.2,1.18.46,2.42.78,3.63,1.16.24.07.48.12.72.19-1.99-1.77-4.06-3.31-6.72-3.73ZM11.53,162.32c1.58-1.89,1.5-4.17,1.49-6.43-.92,2.04-2.05,4.03-1.49,6.43ZM11.58,4.18c-.59,1.7.24,5.1,1.59,6.81-.14-2.4-.06-4.68-1.59-6.81ZM130.65,4.27c-1.26,1.08-2.13,5.22-1.44,6.57.79-2.12,1.94-4.08,1.44-6.57ZM129.18,156c-.35.57-.3,2.16.17,4.12.2.84.33,1.75,1.2,2.27.52-1.47.02-3.73-1.38-6.39ZM13.7,85.58c-1.21-.02-2.5,1.79-3.02,3.99.83-.22,1.63-.43,2.46-.65-.45-1.22-.34-2.28.56-3.35ZM13.74,81.19c-.96-1.1-1.01-2.21-.6-3.4-.85-.21-1.62-.41-2.42-.61.4,2.05,1.73,3.94,3.03,4.01ZM131.57,89.62c-.53-1.08-.94-2.02-1.45-2.9-.25-.43-.67-.77-1.05-1.11-.12-.1-.36-.06-.55-.08l-.13.17c.94.96.99,2.07.53,3.26.85.21,1.63.41,2.65.67ZM128.4,81.07c.19.12.32.23.35.21.28-.18.59-.35.81-.59.93-.98,1.31-2.26,2.02-3.57-1.01.26-1.82.47-2.68.69.51,1.19.39,2.25-.5,3.26ZM15.43,83.38c0-.14,0-.28,0-.41.03-.38-.08-.69-.47-.82-.41-.14-.74.03-.99.36-.35.45-.37.95-.17,1.46.18.46.64.74,1.05.66.52-.11.61-.49.58-.94,0-.1,0-.21,0-.31ZM128.48,83.41c-.15-.34-.22-.72-.45-.93-.22-.21-.6-.35-.9-.32-.38.03-.54.37-.52.77.01.31-.06.64.02.93.07.27.24.65.45.71.27.07.68-.05.91-.24.24-.2.32-.57.49-.9ZM70.26,147.77c-.03.72.24,1.1.68,1.15.38.05.92-.29.91-.65-.02-.43-.1-.88-.24-1.29-.06-.18-.35-.41-.52-.4-.22.02-.51.21-.62.41-.15.28-.17.64-.2.77ZM71.84,18.65c.03-.38-.24-.74-.66-.83-.37-.08-.92.23-.93.6,0,.43.06.88.2,1.29.07.2.39.44.59.44.21,0,.49-.25.59-.46.14-.3.14-.66.2-1.04ZM61.44,7.73c.83.09,1.65.19,2.64.3-.79-.95-1.5-1.69-2.65-1.79-.38.56-.3,1.02.02,1.49ZM61.43,159.01c-.29.5-.45.99.04,1.5,1.13-.16,1.85-.88,2.61-1.81-.99.11-1.82.21-2.66.31ZM80.78,160.51c.01-.42.08-.78.02-1.12-.03-.17-.28-.4-.46-.43-.72-.11-1.44-.14-2.3-.21.75.92,1.46,1.65,2.75,1.76ZM78.04,8.01c.86-.08,1.53-.16,2.2-.2.38-.02.55-.21.6-.56.05-.37.11-.74-.3-1.02-1.07.18-1.8.83-2.51,1.77ZM67.64,19.93c.39-.33.8-.58,1.06-.93.12-.17.06-.65-.1-.8-.15-.15-.57-.17-.81-.08-.27.09-.52.33-.7.57-.15.19-.32.54-.24.69.11.22.45.33.79.56ZM68.8,148.16c.03-.55-.47-1.12-1.1-1.15-.27-.01-.67.09-.8.29-.1.15.05.57.21.78.2.26.5.48.81.62.45.2.86-.08.89-.54ZM127.93,79.73c-.03-.39.05-.81-.11-1.09-.16-.28-.53-.51-.85-.61-.16-.05-.57.23-.6.4-.05.33,0,.76.17,1.04.26.41.73.45,1.39.27ZM73.67,148.74c.68.04,1.58-.7,1.57-1.17,0-.17-.17-.46-.28-.47-.39-.02-.85-.05-1.16.14-.27.16-.46.59-.51.93-.03.2.28.44.37.57ZM74.71,19.77c.1-.07.39-.18.49-.39.08-.16-.03-.48-.16-.64-.21-.26-.48-.51-.79-.65-.21-.1-.62-.09-.74.04-.16.19-.23.56-.17.82.1.48.69.82,1.36.81ZM14.17,86.98c.02.39-.03.8.07,1.17.14.49.78.72,1.17.5.43-.23.54-.8.23-1.26-.33-.48-.8-.59-1.47-.42ZM127.75,86.95c-.47-.14-.94-.09-1.2.31-.18.28-.23.7-.19,1.03.02.17.44.45.6.41.32-.1.67-.32.86-.6.23-.34.23-.78-.07-1.16ZM14.19,79.75c.59.17,1.01.1,1.34-.27.27-.3.43-.68.19-1.03-.15-.21-.48-.42-.73-.42-.39,0-.72.26-.8.67-.06.32-.01.66-.01,1.05ZM73.81,151.65c.18-.69.28-1.11.4-1.56-.53-.1-1.01-.18-1.65-.3.44.65.77,1.15,1.25,1.86ZM73.81,15.1c-.48.71-.82,1.22-1.28,1.89.7-.15,1.16-.24,1.66-.35-.11-.43-.21-.85-.39-1.54ZM68.26,15.09c-.17.66-.29,1.1-.41,1.57.54.09,1.01.17,1.63.27-.43-.65-.77-1.15-1.23-1.84ZM69.52,149.78c-.71.13-1.17.22-1.67.32.13.47.26.92.43,1.54.44-.65.79-1.18,1.25-1.85Z"/>
      <path class="cls-1" d="M36.81,48.27c-.08-1.78-.18-3.81-.27-5.84-.01-.24-.02-.48-.02-.72,0-1.31.62-2.06,1.93-2.17,1.03-.09,2.07-.02,3.1-.06.68-.03,1.39-.05,2.04-.23,1.77-.51,3.54-.48,5.33-.28,1.13.12,2.26.24,3.4.3.72.03,1.44-.09,2.16-.1,1.45-.01,2.89,0,4.34,0,.27,0,.55.08.82.09,3.89.14,7.78.33,11.67.4,1.89.03,3.78-.18,5.68-.28.31-.02.62-.06.93-.07,2.48-.09,4.96-.19,7.44-.24.86-.02,1.72.16,2.58.15,1.68-.03,3.37-.07,5.05-.23,1.9-.18,3.77-.23,5.64.3.65.18,1.36.17,2.04.2.83.03,1.65.02,2.48.01.84-.01,1.53.3,2.07.93.14.17.26.41.28.64.05.44.05.89.02,1.34-.28,4.17-.26,8.33-.02,12.5.26,4.47.44,8.95.53,13.43.09,4.69.03,9.38.01,14.06-.01,4.1-.06,8.19-.09,12.29,0,.45-.04.9,0,1.34.24,2.87-.12,5.72-.21,8.57-.04,1.38-.07,2.76-.13,4.14-.07,1.65-.18,3.3-.27,4.95,0,.14-.03.28-.03.41.07,3.41.14,6.82.21,10.23,0,.31.05.62.03.93-.04,1.05-.68,1.83-1.73,1.94-1.09.11-2.2.05-3.3.09-.65.03-1.32.03-1.94.21-1.8.53-3.6.51-5.43.31-2.02-.22-4.03-.44-6.08-.17-1.15.15-2.34.02-3.51,0-1.1-.03-2.2-.08-3.3-.13-2.51-.12-5.02-.32-7.54-.35-2.41-.03-4.82.12-7.23.19-.34.01-.69.08-1.03.1-2.62.1-5.23.2-7.85.28-.52.02-1.04.03-1.55-.06-2.07-.36-4.12-.07-6.18.16-1.83.2-3.64.21-5.43-.32-.58-.17-1.22-.18-1.84-.2-.9-.03-1.79-.03-2.69,0-.85.03-1.53-.32-2.07-.92-.17-.19-.27-.48-.3-.73-.04-.48-.01-.96,0-1.45.06-3.44.25-6.89.16-10.33-.12-4.79-.44-9.57-.65-14.36-.04-.96.05-1.93.05-2.89-.02-4.07-.06-8.14-.06-12.2,0-3.89.04-7.78.06-11.67,0-.62.04-1.24,0-1.86-.2-3.35.18-6.68.27-10.02,0-.1.02-.21.02-.31.13-3.99.27-7.99.41-12.24ZM37.82,125.84c1.16.33,2.29.22,3.42.17,1.01-.05,1.99.02,2.97.29,1.31.36,2.65.38,4,.22,2.43-.3,4.86-.55,7.32-.16.64.1,1.31.03,1.96,0,1.45-.05,2.89-.12,4.34-.18.79-.03,1.59-.03,2.37-.1,3.95-.35,7.91-.47,11.87-.14,1.78.15,3.58.15,5.37.23.96.04,1.93.13,2.89.16.83.03,1.66.09,2.48-.01,1.76-.23,3.51-.16,5.26,0,1.68.15,3.36.56,5.04.12,1.69-.45,3.4-.47,5.13-.39.67.03,1.35-.08,2.07-.13,0-.58.02-1.02,0-1.46-.09-1.62-.25-3.23-.27-4.85-.04-2.89-.06-5.78.17-8.68.22-2.78.22-5.58.32-8.37.05-1.48.14-2.96.16-4.44.02-1.38-.05-2.76-.04-4.14.01-5.48.04-10.95.05-16.43,0-2.62-.03-5.24-.05-7.86,0-.83.06-1.65.02-2.48-.28-6.23-.67-12.46-.63-18.7.01-2.13.2-4.27.3-6.4.02-.4-.03-.8-.05-1.34-1.16-.01-2.22-.07-3.28-.03-1.11.05-2.19-.02-3.27-.31-1.24-.33-2.51-.35-3.8-.19-2.47.3-4.93.55-7.42.16-.61-.09-1.24-.03-1.86,0-1.41.05-2.82.12-4.23.18-.83.04-1.65.03-2.48.1-4.06.35-8.11.49-12.18.11-1.3-.12-2.61-.15-3.92-.22-1.48-.07-2.96-.14-4.44-.19-.69-.02-1.39-.06-2.06.04-1.83.26-3.65.17-5.47,0-1.71-.17-3.44-.55-5.14-.07-1.53.43-3.06.4-4.61.36-.75-.02-1.5.06-2.26.09-.04.32-.1.52-.09.72,0,.45.04.89.08,1.34.04.51.14,1.03.14,1.54.03,3.79.05,7.57-.08,11.37-.18,5.37-.61,10.74-.47,16.12.11,4.13-.06,8.27-.05,12.41,0,5.96-.07,11.92.18,17.88.12,3,.05,6.01.32,8.99.3,3.18.12,6.34.15,9.51.01,1.1-.15,2.2-.2,3.3-.03.61,0,1.22,0,1.86Z"/>
    </g>
  </g>
</svg>