<?xml version="1.0" encoding="UTF-8"?>
<svg id="Layer_2" data-name="Layer 2" xmlns="http://www.w3.org/2000/svg" viewBox="0 0 248.11 352.4">
  <defs>
    <style>
      .cls-1 {
        fill: #300c08;
      }
    </style>
  </defs>
  <g id="Layer_1-2" data-name="Layer 1">
    <g>
      <path class="cls-1" d="M5.91,43.85c-.36,1.17-.57,2.26-.63,3.27l-.17,4.15-.54,1.43c0,.06,0,.11-.02.17-.01.06-.04.13-.06.21,0,.36.24.75.71,1.17l-.08,1.3v8.13l-.13,6.54.42,2.77v1.43l.08,2.85c-.08.42-.68,1.24-1.8,2.47l-1.47,1.64c-.22.36-.5.54-.84.54-.25,0-.48-.11-.67-.34-.2-.22-.29-.46-.29-.71,0-.73.15-1.58.46-2.56l.21-1.22-.25-.42.42-7.04.17-.71.75-.17v-1.34c0-.87-.05-1.51-.15-1.93-.1-.42-.34-.98-.73-1.68l.08-1.38v-.25l-.08-.71c0-.92.13-1.75.38-2.47l-.42-.71.04-2.31c.28-.22.42-.47.42-.75l-.04-.71-.84-.17v-1.26l.04-1.13v-1.72c0-.75-.06-1.31-.17-1.68-.11-.36-.35-.75-.71-1.17.25-.98.82-1.83,1.72-2.56l2.77-2.31c.53.08,1.01.53,1.43,1.34ZM7.63,21.63c0,.62-.1,1.02-.29,1.22l-2.14,2.22-.84,1.22-1.51,1.51c-1.03,1.09-1.65,1.63-1.84,1.63-.11,0-.22-.09-.31-.27-.1-.18-.15-.37-.15-.57,0-.64.11-1.13.34-1.47l2.98-4.11,1.59-3.1c.22-.17.49-.25.8-.25.36,0,.68.19.96.57s.42.85.42,1.4Z"/>
      <path class="cls-1" d="M45.47,77.84l-.29,1.22-3.98,2.77c-.53-1.01-.8-1.63-.8-1.89v-.21l.67-4.02.08-1.8.21.08.5-.84c-.14-.45-.27-.74-.4-.88-.13-.14-.36-.31-.69-.5l-.12-.67.5-7.84-.29-1.09.04-1.38v-3.19l.34-1.55-.5-.75.04-2.52c-.2-.92-.54-1.8-1.05-2.64v-.42c0-.36-.08-.63-.25-.8l-.71-.08-1.47-1.3-2.39.21-2.72-.29c-.22.17-.48.52-.75,1.05l-.54-.17-2.26.59-.8.25-1.01,1.13-1.3.84c-.64.45-1.01,1.12-1.09,2.01l-.04,4.11-.38,2.56.63,2.52v1.34l-.08,4.99-.54,1.72-.04.63v.25l.54,1.34.17,4.57.21,1.47c0,.17-.06.38-.17.65-.11.27-.27.45-.46.57l-1.89.67-.54.17c-.31.75-.6,1.13-.88,1.13-.2,0-.41-.15-.63-.46,0-.06-.01-.11-.04-.17-.03-.06-.07-.11-.12-.17-.06-.22-.08-.31-.08-.25l.42-3.1-.08-3.52.29-1.43-.21-2.35.13-2.56.04-5.41c0-.73.33-1.13,1.01-1.22-.06-.61-.15-1-.29-1.15-.14-.15-.46-.23-.96-.23l.08-7.55.63-.59-.33-.88-.8-3.06-.5-.96.33-.92.59-1.05,1.05-.67,1.01-1.13c.31-.34.67-.5,1.09-.5.25,0,.5.1.73.31.24.21.37.44.4.69l.04,3.94.13,1.3.54-.25c.7-1.23,1.52-2.38,2.45-3.46s1.64-1.61,2.12-1.61c.22,0,.42.29.59.88.39-.17.84-.49,1.34-.96.56-.45,1.03-.67,1.42-.67h.17l2.39.34.88-.42,2.68.5c.89.17,1.61.63,2.14,1.38l.42-.08c.61,0,1.12.39,1.51,1.17l.42,1.05.59,1.38c.28.48.42,1.5.42,3.06v2.35l.13,1.01-.71,1.3.25,1.05.33.92v1.72c0,.22-.01.39-.04.5l-.42,1.22c-.08.22-.13.63-.13,1.22l.59,1.09-.04,1.22-.08,2.93v.34l.46,1.63.04,3.77.17,4.53Z"/>
      <path class="cls-1" d="M101.33,44.14l-.29,1.17-.04.88-2.1,2.22-1.22,1.64-.75.17-1.05-.17c-.73-.11-1.38-.27-1.97-.48-.59-.21-.85-.31-.8-.31h-.08l-1.93.21-1.13-.29c-.28.06-.51.2-.69.44-.18.24-.27.5-.27.78,0,.31.11.5.34.59l-.04,5.41c-.84.33-1.26.85-1.26,1.55l.08.96,1.17.33.13,4.02.04.88-.29,1.26c-.22-.17-.41-.25-.54-.25-.5,0-.75.32-.75.96,0,.28.15.71.46,1.3.28-.48.46-.71.54-.71s.28.21.59.63l.08,5.66.08.84.67,1.97c.06.17.08.66.08,1.47.47.42.84.69,1.11.8s.62.17,1.07.17c.61,0,1.23-.15,1.84-.46.61-.31,1.1-.7,1.47-1.17l2.85-3.77c.11-.19.26-.29.46-.29.22,0,.56.18,1.01.55l-.17.92c-.39,2.32-.73,3.55-1.01,3.69l-6.79,3.6-1.17.88-.92-.8-.59-.17-.29,1.13-.54.08c-.56,0-1.23-.41-2.01-1.22-.81-.95-1.24-1.66-1.3-2.14l-.17-1.22-.33-1.43.04-2.35v-2.64l.59-2.77-.17-1.01-.13-1.47v-.96l.13-4.02-.08-1.13-.13-1.42c0-.11.03-.17.08-.17l.75-1.3c.08-.2.13-.36.13-.5,0-.64-.34-.96-1.01-.96l-.21-.5c.17-2.04.25-4.08.25-6.12-.92-.28-1.61-.42-2.05-.42-1.2,0-2.4.29-3.6.88-.17-.19-.25-.4-.25-.63,0-.48.08-.78.25-.92l1.09-1.38.21-.96c.06-.22.15-.4.27-.54.13-.14.23-.21.31-.21l3.35-.17.8-.17-.08-.96-.17-8.93-.71-2.39-.17-1.3c.59-1.17,1.17-2.01,1.74-2.52.57-.5,1.31-.87,2.2-1.09.39-.87.73-1.3,1.01-1.3.53,0,.8,1.27.8,3.81,0,3.86-.24,6.6-.71,8.22-.28,1.15-.54,1.72-.8,1.72v1.97c.28,0,.47.04.57.1.1.07.22.25.36.52l-.21,1.17.13.96.63.08,2.89.92c.22.11.54.17.96.17s.71-.06.88-.17l1.13-.5,2.18-.33,1.68-.88h1.47c.03.22.04.32.04.29Z"/>
      <path class="cls-1" d="M137.49,52.36l-.08,2.77c0,1.09-.04,1.77-.1,2.05-.07.28-.3.71-.69,1.3l.46,1.59-.8,1.72.84,1.22v6.96l-.5.84.13,1.3.33,3.1-.04,2.72v.96c0,.78-.38,1.22-1.13,1.3l-.8.08-1.76,1.38-.59.5-1.17-1.47.17-1.13,1.09-4.61-.46-3.44.67-3.77c.11-.81.17-1.9.17-3.27-.47-.31-.71-.74-.71-1.3,0-.7.12-1.58.38-2.64.14-.7.21-1.45.21-2.26v-.34l-.21-3.14.29-1.63-.29-.8-.42-1.38c-.14-.47-.32-.75-.54-.84l-1.05-.5-1.59-1.3-1.09.08-1.8-.33-2.35.08-1.26.08c-.59.17-1.13.42-1.63.75l-1.55,1.3-1.22.67-.75.96-.92,1.55-.59,1.09.38,2.6-.34,6.41.04.46-.38-.17-.17.33h-.38l.08.84.84,1.63c.06,0,.08.03.08.08l.21,3.6.12,1.97.17,1.3v.5l-.29.8.12,3.86-.42,1.13-.25-.08-.29.08-.54.42c-.14.06-.39.08-.75.08l-.59.67c-.62.81-1.1,1.27-1.47,1.38l-.29-.96-.17-.17.08-1.64.33-1.89v-1.72l.63-1.51.17-.96c-.45-.87-.67-1.49-.67-1.89l.33-12.45-.12-3.86,1.17-3.02-.08-.92-.42.59c-.28-.42-.46-.78-.54-1.09-.08-.31-.12-.8-.12-1.47v-9.64l.17-1.55h.38l.59-.84c-.31-.25-.46-.74-.46-1.47-.5-.39-.78-.77-.84-1.13v-3.23l-.21-4.9.34-1.3.12-.84-.67-1.22.08-.96.12-1.09.21-.96.17-.92c-.5-.98-.75-1.58-.75-1.8l.08-8.09-.67-3.94v-.84l-.71-.8c.11-.5.36-.94.75-1.3l2.31-1.72c.92-.67,1.58-1.01,1.97-1.01.61,0,.95.22,1.01.67l-.25,2.93-.04,5.41c0,.84-.18,1.41-.54,1.72l-.63.5c-.28.2-.42.57-.42,1.13,0,.14.04.63.13,1.47l.33.08c.33-.5.73-.8,1.17-.88v.8l-.29,7.8.08,2.47-.75,2.1v.92c.64,1.06.96,1.83.96,2.31v.25l-.38,1.05v.08l.25,3.52.13.5-.04.54-.29,1.26.29,1.8-.13,1.55.17,1.05-.33,6.96.04.59.29.25,4.4-4.78.46.34,1.84-1.05,1.13-.34,1.38-.25c.53.08.87.66,1.01,1.72h.67l.63-.63.63-.92,1.3.25,3.4.34,1.63,2.35.96.84.46,1.13-.71.59c.34.28.57.42.71.42l.42-.17c.56.95.84,2.18.84,3.69Z"/>
      <path class="cls-1" d="M178.26,72.1c0,.36-.04.69-.12.96l-.59,1.47-1.34,3.4-1.26.13-.8.92c-.17.25-.46.42-.88.5l-5.2,1.47-.8.42-1.89-.25-2.64.34-3.02-.25h-.84c-.42-.48-.68-.75-.8-.84l-2.81-1.47-.96-1.3-1.89-1.89-1.51-2.89-.54-.71c.22-.67.33-1.27.33-1.8,0-.22-.04-.39-.13-.5l-.8-1.8-.17-2.39-.04-1.93c0-.64.11-1.49.34-2.56.31-1.68.57-2.68.8-3.02l1.05-1.97.54-1.8,1.38-1.89,1.47-2.81,1.3-1.05,1.89-1.89,1.26-1.22.42-.42.88-.25,2.64-1.22,2.05-.34,1.22-.75.63-.08c.98,0,1.8.77,2.47,2.31.36-.06.63-.35.8-.88l.8.96,1.05.84,2.43,3.44c.31.56.54,1.04.71,1.45.17.41.33.83.5,1.28.17.45.31.94.44,1.47.13.53.31,1.34.57,2.43l.21,1.05-.25.17-1.13-.34-1.26.59-.96-.25-1.05.42-2.05-.34-1.93.17-2.01-.5-3.31.08-1.59-.08-3.94.75-1.38-.08-1.97.84-.71.21-.12,1.01c-.03.7-.09,1.17-.19,1.43s-.31.54-.65.88l.08.8c.61.7.95,1.13,1.01,1.3l.75,4.28.38,1.05c-.2.28-.29.53-.29.75.03.06.04.11.04.17l1.09.5.29,1.05c.2.98.45,1.58.75,1.8l1.55.92.5,1.63c.28.2.71.35,1.3.46l.42,1.09.88.17,2.52,1.3,2.05-.59,5.49-1.3,1.22-1.05,1.84-1.63,1.55-2.89c.25-.47.56-.71.92-.71.67,0,1.01.43,1.01,1.3ZM171.47,52.36c0-.45-.36-1.38-1.09-2.81l-2.01-2.1-.63-1.01-.96-.08-2.22-.25-.5.17-1.26,1.01-1.59.55-2.01,1.09-.8.42-.92,2.01c-.56.59-.87.95-.92,1.09l-.13.5,3.56.38.38-.08.67-.29.63.21,1.72.5h.08l1.93-.5.63-.21.46.96h.67l2.52-.75,1.05.17c.5-.08.75-.4.75-.96Z"/>
      <path class="cls-1" d="M95.03,135.46c0,.36-.04.69-.12.96l-.59,1.47-1.34,3.4-1.26.13-.8.92c-.17.25-.46.42-.88.5l-5.2,1.47-.8.42-1.89-.25-2.64.34-3.02-.25h-.84c-.42-.48-.68-.75-.8-.84l-2.81-1.47-.96-1.3-1.89-1.89-1.51-2.89-.54-.71c.22-.67.33-1.27.33-1.8,0-.22-.04-.39-.13-.5l-.8-1.8-.17-2.39-.04-1.93c0-.64.11-1.49.34-2.56.31-1.68.57-2.68.8-3.02l1.05-1.97.54-1.8,1.38-1.89,1.47-2.81,1.3-1.05,1.89-1.89,1.26-1.22.42-.42.88-.25,2.64-1.22,2.05-.34,1.22-.75.63-.08c.98,0,1.8.77,2.47,2.31.36-.06.63-.35.8-.88l.8.96,1.05.84,2.43,3.44c.31.56.54,1.04.71,1.45.17.41.33.83.5,1.28.17.45.31.94.44,1.47.13.53.31,1.34.57,2.43l.21,1.05-.25.17-1.13-.34-1.26.59-.96-.25-1.05.42-2.05-.34-1.93.17-2.01-.5-3.31.08-1.59-.08-3.94.75-1.38-.08-1.97.84-.71.21-.12,1.01c-.03.7-.09,1.17-.19,1.43s-.31.54-.65.88l.08.8c.61.7.95,1.13,1.01,1.3l.75,4.28.38,1.05c-.2.28-.29.53-.29.75.03.06.04.11.04.17l1.09.5.29,1.05c.2.98.45,1.58.75,1.8l1.55.92.5,1.63c.28.2.71.35,1.3.46l.42,1.09.88.17,2.52,1.3,2.05-.59,5.49-1.3,1.22-1.05,1.84-1.63,1.55-2.89c.25-.47.56-.71.92-.71.67,0,1.01.43,1.01,1.3ZM88.24,115.72c0-.45-.36-1.38-1.09-2.81l-2.01-2.1-.63-1.01-.96-.08-2.22-.25-.5.17-1.26,1.01-1.59.55-2.01,1.09-.8.42-.92,2.01c-.56.59-.87.95-.92,1.09l-.13.5,3.56.38.38-.08.67-.29.63.21,1.72.5h.08l1.93-.5.63-.21.46.96h.67l2.52-.75,1.05.17c.5-.08.75-.4.75-.96Z"/>
      <path class="cls-1" d="M132.68,141.2l-.29,1.22-3.98,2.77c-.53-1.01-.8-1.63-.8-1.89v-.21l.67-4.02.08-1.8.21.08.5-.84c-.14-.45-.27-.74-.4-.88-.13-.14-.36-.31-.69-.5l-.12-.67.5-7.84-.29-1.09.04-1.38v-3.19l.34-1.55-.5-.75.04-2.52c-.2-.92-.54-1.8-1.05-2.64v-.42c0-.36-.08-.63-.25-.8l-.71-.08-1.47-1.3-2.39.21-2.72-.29c-.22.17-.48.52-.75,1.05l-.54-.17-2.26.59-.8.25-1.01,1.13-1.3.84c-.64.45-1.01,1.12-1.09,2.01l-.04,4.11-.38,2.56.63,2.52v1.34l-.08,4.99-.54,1.72-.04.63v.25l.54,1.34.17,4.57.21,1.47c0,.17-.06.38-.17.65-.11.27-.27.45-.46.57l-1.89.67-.54.17c-.31.75-.6,1.13-.88,1.13-.2,0-.41-.15-.63-.46,0-.06-.01-.11-.04-.17-.03-.06-.07-.11-.12-.17-.06-.22-.08-.31-.08-.25l.42-3.1-.08-3.52.29-1.43-.21-2.35.13-2.56.04-5.41c0-.73.33-1.13,1.01-1.22-.06-.61-.15-1-.29-1.15-.14-.15-.46-.23-.96-.23l.08-7.55.63-.59-.33-.88-.8-3.06-.5-.96.33-.92.59-1.05,1.05-.67,1.01-1.13c.31-.34.67-.5,1.09-.5.25,0,.5.1.73.31.24.21.37.44.4.69l.04,3.94.13,1.3.54-.25c.7-1.23,1.52-2.38,2.45-3.46s1.64-1.61,2.12-1.61c.22,0,.42.29.59.88.39-.17.84-.49,1.34-.96.56-.45,1.03-.67,1.42-.67h.17l2.39.34.88-.42,2.68.5c.89.17,1.61.63,2.14,1.38l.42-.08c.61,0,1.12.39,1.51,1.17l.42,1.05.59,1.38c.28.48.42,1.5.42,3.06v2.35l.13,1.01-.71,1.3.25,1.05.33.92v1.72c0,.22-.01.39-.04.5l-.42,1.22c-.08.22-.13.63-.13,1.22l.59,1.09-.04,1.22-.08,2.93v.34l.46,1.63.04,3.77.17,4.53Z"/>
      <path class="cls-1" d="M175.85,142.5l-.04.88-.63.25-1.97.5-2.1.25c-.08-1.12-.18-1.84-.29-2.16-.11-.32-.28-.57-.5-.73-.2.25-.38.43-.57.54-.18.11-.41.25-.69.4-.28.15-.53.31-.75.48-2.21,1.68-6.25,2.52-12.11,2.52-1.12,0-1.94-.15-2.47-.46-.53-.31-.91-.84-1.13-1.59-.34.06-.62.28-.84.67l-.92-.42c-.06-.56-.13-.95-.23-1.17-.1-.22-.33-.43-.69-.63l-.38.5c-.61-.22-1.08-.52-1.4-.88-.32-.36-.86-1.13-1.61-2.31.08-.28.12-.61.12-1.01,0-.7-.2-1.27-.59-1.72l-.84-1.13-.08-.84-.5-3.19v-.71c0-.95.13-1.97.38-3.06l-.04-.88.33-1.01,1.8-6.12c.28-.89.66-1.34,1.13-1.34h.08l.92.08.38-3.52,1.13-1.3,1.17-1.97.84-.8.5-.67c.22-.17.43-.28.63-.34.2.06.41.08.63.08.36.03.61.09.73.19.13.1.27.34.44.73.31-.67.8-1.15,1.47-1.42l-.04-1.3.84-.5c.78-.34,1.26-.55,1.45-.65.18-.1.43-.2.73-.31l1.05.08,1.34-.67.63.59c.31.22.52.36.63.42l.08.42c.22.25.36.38.42.38.17,0,.39-.4.67-1.22l1.55.5c1.12.36,1.82.64,2.12.84.29.2.57.54.82,1.05l1.72-.08-.21-.84-.34-.71-.17-2.98-.17-.88.21-2.14-.21-5.83.04-.63.96-.5-.42-.84-.13-1.13-.42-1.89c-.14-.53-.21-1.22-.21-2.05v-.5l.29-5.95-.25-2.64.17-1.13c.36-.11.57-.39.63-.84l-.38-.54c-.42-.06-.8-.25-1.13-.59v-1.05l-.25-2.56-.08-2.85c0-.5-.21-.98-.63-1.43.17-1.01.47-1.58.92-1.72l1.76-.55,1.22-1.09,1.3-.42.63-.29c.39.67.59,1.4.59,2.18l-.04,1.01-.29,2.22.04,1.22-.13,3.69v3.1l-.33,1.8.04,3.86c-.08.45-.31,1.02-.67,1.72l.84,3.52-.17.92v2.01l-.21.84.21,2.85c0,.39-.07.91-.21,1.55h-.67c-.17.87-.25,1.5-.25,1.89,0,.17.03.28.08.34l1.01,2.05-.08,3.02.21,3.52-.13,1.43-.08.63.08.84-.42.71.17,3.94-.04,2.81.21,2.68v1.8l.21,2.05v3.27l.42,3.27.04,2.64.38,1.89.04,1.72v1.3c.2.25.36.81.5,1.68.14.87.21,1.65.21,2.35ZM171.16,125.23l-.29-2.64c-.48-.25-.71-.6-.71-1.05v-.17l.25-1.8-.17-3.27v-.84l-.29-.96.04-1.01c0-.39-.11-.59-.33-.59-.11,0-.18-.07-.21-.21l-1.17.38-.29.08-.42-.08-5.37-1.89-1.97-.08h-.63c-.2,0-.31.03-.33.08l-1.01.59h-1.3l-1.72,1.64-1.17.25-.84.84-1.17,1.55c-.45.67-.73,1.27-.84,1.8l-.08,1.05-1.13,1.72-1.21,2.56c-.31.98-.46,1.76-.46,2.35s.07,1.16.21,1.63l.21.75.63,3.44.67,1.72.04.92v.54l.71.42c.53,1.01,1.11,1.94,1.74,2.79.63.85,1.25,1.5,1.87,1.95l1.3.84.46.33.84.17h.75l1.64.88h1.84l2.89-.17c.53-.03,1.25-.24,2.16-.65.91-.4,1.58-.76,2.03-1.07l1.34-1.64.63-1.13-.29-1.09.17-1.13.08-1.22-.08-1.72-.13-1.89.08-.25.04-1.38-.21-1.89c-.03-.06-.06-.11-.08-.17,0-.64.43-1.08,1.3-1.3Z"/>
      <path class="cls-1" d="M196.82,144.81l-.13.88-.38.75v3.6c0,.67-.2,1.4-.59,2.18-.56,1.12-.9,1.97-1.01,2.56l.29.5-.34.71c-.31.59-.64,1.22-.98,1.91-.35.68-.64,1.2-.88,1.55-.24.35-.64.79-1.19,1.32l-.38.17-1.38-.17-.92.08-.92-.42c.11-.53.23-.87.36-1.03.13-.15.38-.27.78-.36l.21-.34.33.17c.25,0,.63-.33,1.13-1.01.42-.08.8-.27,1.13-.54.34-.28.53-.56.59-.84l.17-.75,1.01-1.47.42-3.02.38-.84-.34-.29v-.34l.08-.59.17-.59-.29-1.22-.63-3.19c-.08-.31-.45-.61-1.09-.92l-.42-.71c-.25-.59-.44-.93-.57-1.03-.13-.1-.43-.15-.9-.15l-.71-.21v-.75l.71-1.05,1.09-1.34.75-1.47.84-.96c.56.2.95.38,1.17.57.22.18.49.51.8.99l.75,1.13.25,2.39.59,3.6.04.5Z"/>
    </g>
    <g>
      <path class="cls-1" d="M117.54,186.02c-.08,2.43-.2,3.97-.33,4.61l-.63,2.77-.21,1.22-.59,2.31-.17,1.47c-.06.28-.32.7-.8,1.26l-.04.88.04,1.22-3.06,14.34-.29,4.28-2.26,2.56-.71,1.38-.59.63-.5-.63-.46-.84-.71-.63-.17-.75-.33-1.8-.67-1.13.54-.5-.04-.75-.54-.88-.84-.67c-.28-.22-.52-.71-.71-1.47l-.71-4.28-1.05-2.93c.06-.39.2-.59.42-.59.17,0,.32.06.46.17,0-1.31-.25-2.18-.75-2.6l-.92-.67c-.22-.22-.52-1.48-.88-3.77l-.25-.8h-.29l-.25.96-2.1,10.31-1.47,6.08-.38,2.47-.38,1.47-.17,1.47-1.34,1.38-.46.67c-.53.11-.92.24-1.15.38-.24.14-.52.39-.86.75l-.29-1.05-.92-2.31-.46-1.63-1.17-5.91-1.68-4.32.17-3.35-.17-.75c-.7,0-1.16-.35-1.38-1.05l-.46-1.72-.59-1.42-.63-3.02-.84-1.3-2.14-6.5-.42-1.05c.39-1.37.81-2.17,1.26-2.39l1.17-.63,1.26-1.34c.06-.03.11-.05.15-.06.04-.01.1-.02.19-.02.28,0,.51.11.69.34.18.22.33.53.44.92l1.17,6.37.25,1.01c-.11.31-.31.63-.59.96.25,1.26.54,1.89.88,1.89h.46l.59-.17c.56,1.12.84,1.83.84,2.14v.17l-.17,1.89.59,2.77.29,1.64.75,1.55,1.59,7.21.63,1.09.33.8h.54l.25-.8c.5-1.23.81-2.35.92-3.35l.13-2.47.75-2.39.38-2.26c.03-.08.36-1.34,1.01-3.77,0-1.42.03-2.49.1-3.19.07-.7.21-1.23.42-1.59.21-.36.55-.71,1.03-1.05l-.29-.96-.67-1.17.12-2.68-.25-1.26-.04-1.38.67-.5.67-.63c.33-.39,1.05-.67,2.14-.84l.54-.08.54.59.67.67.38,2.85.54,3.52-.42,1.63c.06.22.17.53.36.92.18.39.42.71.73.96l.75,2.93.17.84.54,2.64,2.64,10.65c.17.62.34,1.03.52,1.26.18.22.44.41.78.54l.84-1.89c-.2-.53-.29-1.13-.29-1.8,0-.22.04-.45.13-.67l2.01-7.46.04-1.89.84-3.86.12-2.93.34-2.77c.06-.98.11-1.79.17-2.43.06-.64.14-1.15.25-1.53.11-.38.31-.7.59-.96.28-.27.56-.54.84-.82.75-.67,1.26-1.01,1.51-1.01.06,0,.32.11.8.34Z"/>
      <path class="cls-1" d="M146.55,215.28c0,.36-.04.69-.12.96l-.59,1.47-1.34,3.4-1.26.13-.8.92c-.17.25-.46.42-.88.5l-5.2,1.47-.8.42-1.89-.25-2.64.34-3.02-.25h-.84c-.42-.48-.68-.75-.8-.84l-2.81-1.47-.96-1.3-1.89-1.89-1.51-2.89-.54-.71c.22-.67.33-1.27.33-1.8,0-.22-.04-.39-.13-.5l-.8-1.8-.17-2.39-.04-1.93c0-.64.11-1.49.34-2.56.31-1.68.57-2.68.8-3.02l1.05-1.97.54-1.8,1.38-1.89,1.47-2.81,1.3-1.05,1.89-1.89,1.26-1.22.42-.42.88-.25,2.64-1.22,2.05-.34,1.22-.75.63-.08c.98,0,1.8.77,2.47,2.31.36-.06.63-.35.8-.88l.8.96,1.05.84,2.43,3.44c.31.56.54,1.04.71,1.45.17.41.33.83.5,1.28.17.45.31.94.44,1.47.13.53.31,1.34.57,2.43l.21,1.05-.25.17-1.13-.34-1.26.59-.96-.25-1.05.42-2.05-.34-1.93.17-2.01-.5-3.31.08-1.59-.08-3.94.75-1.38-.08-1.97.84-.71.21-.12,1.01c-.03.7-.09,1.17-.19,1.43s-.31.54-.65.88l.08.8c.61.7.95,1.13,1.01,1.3l.75,4.28.38,1.05c-.2.28-.29.53-.29.75.03.06.04.11.04.17l1.09.5.29,1.05c.2.98.45,1.58.75,1.8l1.55.92.5,1.63c.28.2.71.35,1.3.46l.42,1.09.88.17,2.52,1.3,2.05-.59,5.49-1.3,1.22-1.05,1.84-1.63,1.55-2.89c.25-.47.56-.71.92-.71.67,0,1.01.43,1.01,1.3ZM139.76,195.54c0-.45-.36-1.38-1.09-2.81l-2.01-2.1-.63-1.01-.96-.08-2.22-.25-.5.17-1.26,1.01-1.59.55-2.01,1.09-.8.42-.92,2.01c-.56.59-.87.95-.92,1.09l-.13.5,3.56.38.38-.08.67-.29.63.21,1.72.5h.08l1.93-.5.63-.21.46.96h.67l2.52-.75,1.05.17c.5-.08.75-.4.75-.96Z"/>
      <path class="cls-1" d="M156.64,174.49l-.5,2.35.08,2.14c-.06.73-.39,1.73-1.01,3.02l-.59,1.17.38.54-.42.92c-.84,1.87-1.52,3.12-2.05,3.73-.53.62-1.2.92-2.01.92-.5,0-1.19-.15-2.05-.46.17-.67.36-1.12.59-1.36.22-.24.61-.36,1.17-.36h.5l.42-.75,1.51-1.3.25-1.01.84-1.13.33-2.39.46-1.22-.29-.17.21-1.05-.38-1.89-.59-2.64c-.06-.39-.39-.71-1.01-.96-.14-.45-.34-.7-.59-.75-.06-.31-.18-.66-.38-1.05-.14.11-.31.17-.5.17-.28,0-.61-.2-1.01-.59l.5-.67.29-.71,1.51-1.97.96-1.55c1.06.36,1.75.82,2.08,1.36s.59,1.73.82,3.54l.42,3.02.04.75v.34Z"/>
      <path class="cls-1" d="M166.77,216.41l-.08,2.22.04,1.72c0,.42-.14.77-.42,1.05l.17,1.01-.63.17-1.93,1.72-.75.17-.88.8c-.08,0-.15,0-.21.02-.06.01-.12.03-.21.06-.36,0-.54-.17-.54-.5v-1.05l-.17-1.89.38-4.57.17-5.83c.06-1.43.27-2.6.63-3.52l-.33-1.3c-.34-.87-.5-1.37-.5-1.51,0-.45.24-1.26.71-2.43.2-.42.29-.88.29-1.38,0-.39-.29-.75-.88-1.09l.13-.71-.25-.17v-1.26l.5-2.93v-7.21l.59-3.35c0-.45-.24-.94-.71-1.47v-1.97l-.13-7.55c0-.56.25-1.51.75-2.85l.46-1.09c-.73-.47-1.09-.91-1.09-1.3,0,.11.06-.43.17-1.63l-.59-.75v-1.63l-.13-1.97v-.38l.5-2.14-.5-2.98.13-1.47-.59-4.9v-.67l.21-1.38.21-1.72,2.6-2.05,1.17-1.3.5-.17.38.92.08,1.8.21,1.22.08.71v1.01l-.21,3.1v.25l.08,1.47c0,.5-.04.87-.13,1.09l-.67,2.18-.12.84c.39.03.64.12.75.27.11.15.17.55.17,1.19v.92c0,.56-.24,1.02-.71,1.38v1.05l-.04.84v.33l.5,1.22-.21,8.01v5.74l-.8,2.22.46,3.19-.63,2.05c.06.25.22.57.5.96l.5.75.25,13.58-.75,1.17c.08.53.12,1.1.12,1.72,0,.98-.1,1.9-.29,2.77l.29.92h.8v1.55l.59,6.71Z"/>
      <path class="cls-1" d="M178.02,216.41l-.08,2.22.04,1.72c0,.42-.14.77-.42,1.05l.17,1.01-.63.17-1.93,1.72-.75.17-.88.8c-.08,0-.15,0-.21.02-.06.01-.12.03-.21.06-.36,0-.54-.17-.54-.5v-1.05l-.17-1.89.38-4.57.17-5.83c.06-1.43.27-2.6.63-3.52l-.33-1.3c-.34-.87-.5-1.37-.5-1.51,0-.45.24-1.26.71-2.43.2-.42.29-.88.29-1.38,0-.39-.29-.75-.88-1.09l.13-.71-.25-.17v-1.26l.5-2.93v-7.21l.59-3.35c0-.45-.24-.94-.71-1.47v-1.97l-.13-7.55c0-.56.25-1.51.75-2.85l.46-1.09c-.73-.47-1.09-.91-1.09-1.3,0,.11.06-.43.17-1.63l-.59-.75v-1.63l-.13-1.97v-.38l.5-2.14-.5-2.98.13-1.47-.59-4.9v-.67l.21-1.38.21-1.72,2.6-2.05,1.17-1.3.5-.17.38.92.08,1.8.21,1.22.08.71v1.01l-.21,3.1v.25l.08,1.47c0,.5-.04.87-.13,1.09l-.67,2.18-.12.84c.39.03.64.12.75.27.11.15.17.55.17,1.19v.92c0,.56-.24,1.02-.71,1.38v1.05l-.04.84v.33l.5,1.22-.21,8.01v5.74l-.8,2.22.46,3.19-.63,2.05c.06.25.22.57.5.96l.5.75.25,13.58-.75,1.17c.08.53.12,1.1.12,1.72,0,.98-.1,1.9-.29,2.77l.29.92h.8v1.55l.59,6.71Z"/>
      <path class="cls-1" d="M224,221.02l-.29.8-.46,1.01-.84.46-1.22.92-1.09.5c-.73.42-1.15.63-1.26.63-.14,0-.27-.1-.4-.31-.12-.21-.19-.4-.19-.57,0-.28.1-.91.29-1.89.08-.28.15-.77.21-1.47l-.54.54-2.6,1.26c-.53.36-1.06.55-1.59.55h-1.17l-1.34.92-.92.17-2.72.8-1.09-.25-.75.42-.59.17-.84-.08-1.93-.59-1.3-.17c-.9-.17-1.66-.61-2.31-1.32-.64-.71-1.12-1.63-1.43-2.75l-.8-.42-.17-1.05-.04-.75-.42-1.97,1.09-3.1.33-1.38c.11-.36.48-.89,1.09-1.59l2.22-2.68.96-.5,1.59-.96s.07,0,.13.02c.06.01.11.04.17.06.39-1.2,1.13-1.8,2.22-1.8l.17-.25h.59c.25-.45.5-.75.75-.92.25-.17.73-.35,1.43-.54l3.6-.92,1.09.17,1.34-.42,2.43-.38c.84-.28,1.26-.85,1.26-1.72,0-.11-.03-.19-.08-.25l-.29-1.89.25-2.72c-.06-.59-.2-1.01-.44-1.28-.24-.27-.58-.44-1.03-.52l-.42-.96c-.42-1.01-.76-1.66-1.03-1.95s-.78-.55-1.53-.78l-1.68-.54-1.59-.08-.75.17c-.17-.11-.3-.25-.4-.42-.1-.17-.17-.42-.23-.75l-.8.5-.88,1.22-2.85,2.05c-.59.48-.98.94-1.17,1.38l-.42.84c-.2.45-.46.67-.8.67l-.54-.17-.84-.59-.92-.25c-.28-.14-.57-.38-.86-.71-.29-.34-.44-.64-.44-.92,0-.17.03-.25.08-.25l.46-.5.92-1.05,1.01-.25,1.55-1.13,1.93-.92.5-.17,1.26-.96,1.01.25,3.48-1.09,1.51.08h1.09l1.22.59,3.44.96.5.42v.59l-.38.34c.11.98.35,1.47.71,1.47.03-.03.06-.05.08-.06.03-.01.06-.02.08-.02l.8-.5h.12c.2,0,.32.14.38.42l.59,1.55.59.67v.96l-.08,2.14c0,.92.31,1.72.92,2.39l.38,6.2-.8,1.55.88,1.51.08.54-.17,3.94.21,3.02v1.63l-.42.17c.06.7.09,1.15.1,1.34.01.2.08.48.21.86s.26.82.4,1.32l.42,1.34ZM219.39,213.73c-.28-.36-.46-.67-.54-.92l.13-1.72-.25-3.86.34-1.13-.92-.75-.46.17-2.68-.25-1.26.08-.92-.96-.59.5-1.59.08-1.13.63-.67-.54-.8.71-4.36,3.02-.92,1.01-.75,1.63-1.05.88c-.14.22-.21.48-.21.75.03.06.04.11.04.17l.25.5-.08.38.67,3.77-.67,2.39.46.84.8-1.34c.28.34.53.61.75.84.22.22.5.41.84.57.34.15.75.31,1.26.48l.59,1.17,2.01.29.54-.8.59.42.38-.34.33-.25c.47.22.74.34.8.34.59,0,1.34-.39,2.26-1.17.06-.06.13-.12.23-.19.1-.07.25-.19.44-.36,1.73,0,2.88-.52,3.44-1.55l.59-1.09,1.42-1.72.04-.5-.04-.54c.28-.14.46-.31.54-.5.08-.2.14-.57.17-1.13Z"/>
      <path class="cls-1" d="M234.48,216.41l-.08,2.22.04,1.72c0,.42-.14.77-.42,1.05l.17,1.01-.63.17-1.93,1.72-.75.17-.88.8c-.08,0-.15,0-.21.02-.06.01-.12.03-.21.06-.36,0-.54-.17-.54-.5v-1.05l-.17-1.89.38-4.57.17-5.83c.06-1.43.27-2.6.63-3.52l-.33-1.3c-.34-.87-.5-1.37-.5-1.51,0-.45.24-1.26.71-2.43.2-.42.29-.88.29-1.38,0-.39-.29-.75-.88-1.09l.13-.71-.25-.17v-1.26l.5-2.93v-7.21l.59-3.35c0-.45-.24-.94-.71-1.47v-1.97l-.13-7.55c0-.56.25-1.51.75-2.85l.46-1.09c-.73-.47-1.09-.91-1.09-1.3,0,.11.06-.43.17-1.63l-.59-.75v-1.63l-.13-1.97v-.38l.5-2.14-.5-2.98.13-1.47-.59-4.9v-.67l.21-1.38.21-1.72,2.6-2.05,1.17-1.3.5-.17.38.92.08,1.8.21,1.22.08.71v1.01l-.21,3.1v.25l.08,1.47c0,.5-.04.87-.13,1.09l-.67,2.18-.12.84c.39.03.64.12.75.27.11.15.17.55.17,1.19v.92c0,.56-.24,1.02-.71,1.38v1.05l-.04.84v.33l.5,1.22-.21,8.01v5.74l-.8,2.22.46,3.19-.63,2.05c.06.25.22.57.5.96l.5.75.25,13.58-.75,1.17c.08.53.12,1.1.12,1.72,0,.98-.1,1.9-.29,2.77l.29.92h.8v1.55l.59,6.71Z"/>
      <path class="cls-1" d="M245.72,216.41l-.08,2.22.04,1.72c0,.42-.14.77-.42,1.05l.17,1.01-.63.17-1.93,1.72-.75.17-.88.8c-.08,0-.15,0-.21.02-.06.01-.12.03-.21.06-.36,0-.54-.17-.54-.5v-1.05l-.17-1.89.38-4.57.17-5.83c.06-1.43.27-2.6.63-3.52l-.33-1.3c-.34-.87-.5-1.37-.5-1.51,0-.45.24-1.26.71-2.43.2-.42.29-.88.29-1.38,0-.39-.29-.75-.88-1.09l.13-.71-.25-.17v-1.26l.5-2.93v-7.21l.59-3.35c0-.45-.24-.94-.71-1.47v-1.97l-.13-7.55c0-.56.25-1.51.75-2.85l.46-1.09c-.73-.47-1.09-.91-1.09-1.3,0,.11.06-.43.17-1.63l-.59-.75v-1.63l-.13-1.97v-.38l.5-2.14-.5-2.98.13-1.47-.59-4.9v-.67l.21-1.38.21-1.72,2.6-2.05,1.17-1.3.5-.17.38.92.08,1.8.21,1.22.08.71v1.01l-.21,3.1v.25l.08,1.47c0,.5-.04.87-.13,1.09l-.67,2.18-.12.84c.39.03.64.12.75.27.11.15.17.55.17,1.19v.92c0,.56-.24,1.02-.71,1.38v1.05l-.04.84v.33l.5,1.22-.21,8.01v5.74l-.8,2.22.46,3.19-.63,2.05c.06.25.22.57.5.96l.5.75.25,13.58-.75,1.17c.08.53.12,1.1.12,1.72,0,.98-.1,1.9-.29,2.77l.29.92h.8v1.55l.59,6.71Z"/>
      <path class="cls-1" d="M84.31,266.02c0,1.65-.47,3.51-1.42,5.58l-.42-.17c-.34.62-.5,1.16-.5,1.63s.06,1.05.17,1.72l-.17.42-.13.96-.67,1.09-1.17,2.35-1.42,1.26-3.1,4.15-1.34,1.01-2.52,1.47-2.22.71-2.56.59h-.08l-1.8-.71h-1.26l-3.77-1.42-2.39-.25-1.47-.71-2.64,1.55-.38.17-.38-.08-.04-.92-.04-1.05.75-.96c.59-.59.89-1.03.92-1.34l.33-.96.46-1.01-.04-4.74c.06-.5.16-.87.31-1.11s.44-.36.86-.36l.17-1.3-.04-.67-1.13-.67-.08-.54.17-6.08-.08-2.31.29-.71.46.08.08-1.01-.8-.88-.04-.59.04-.5.13-1.13-.42-3.6.08-3.02-.08-1.8c0-.11.03-.2.08-.25l.5-1.38c.08-.11.13-.31.13-.59,0-.59-.24-1.19-.71-1.8v-1.38l-.04-7.38-.17-1.13.21-4.61-.21-2.39v-1.72l.8-1.8-.33-1.05c-.25-.59-.38-1.05-.38-1.38l.08-.67c.7-.47,1.05-1.02,1.05-1.63,0-.78-.35-1.22-1.05-1.3l-.54-1.97.42-4.44-.54-1.63c-.28-.53-.43-.96-.46-1.3l.75-.84,1.17-1.3,1.51-.63,1.09-.75c.17-.17.38-.25.63-.25.31,0,.58.14.82.42.24.28.36.6.36.96,0,.28-.17.99-.5,2.14l-.33.84c.47.78.71,1.36.71,1.72v.17l-.33,1.89.04,1.89-.42,1.63.33,5.16-.75,1.72c-.11.34-.17.66-.17.96,0,.17.03.28.08.34l.92,1.89-.42,6.62.42,3.6c0,.67-.29,1.16-.88,1.47l-.71.33.04,1.38c.03.62.1,1.03.23,1.26.13.22.43.54.9.96l.04.92.21,2.93c0,.39-.07.85-.21,1.38l-.8,2.64c0,.36.31.74.92,1.13.28.17.5.25.67.25.42,0,.91-.46,1.47-1.38.39.17.67.25.84.25.36,0,1.03-.25,2.01-.75l2.68-1.3c.25.7.56,1.05.92,1.05.42,0,.74-.06.96-.17l.13-.88.71.08,1.47-.08c.25,0,.49.21.71.63,1.54.06,2.7.22,3.48.5.98.28,1.66.64,2.05,1.09.39.45.64,1.17.75,2.18l.88.25c.2-.53.43-.8.71-.8.14,0,.24.06.29.17l.5.96.84,1.13.54,1.8.96,1.43.25.71.38,2.98.54,1.63c.08.36.12.82.12,1.38ZM79.28,270.13l-.42-5.41.04-1.43c0-.59-.07-.94-.21-1.05l-1.22-1.22-.54-1.55c-.31-.64-.84-1.27-1.59-1.89l-2.26-1.89-1.47-1.09-3.9-.54-2.3-.59c-.59,0-1.08.14-1.47.42l-2.77,2.35-1.97,1.55c-.2.48-.29.95-.29,1.43l.21,3.6.17,2.52v.92l-.04.88-.71,1.97.84,3.69-.25,2.05.17,5.74v.33c-.45.5-.75,1.08-.92,1.72.48.7.85,1.05,1.13,1.05l2.05.17.96.59h.96l1.17.63.8.33-.04.34.71-.42h.42l2.64.17,2.14-.84c1.56-.39,2.71-1.17,3.44-2.35l1.34-2.05.88-1.3,1.05-2.98.71-1.97.29-2.85.25-1.05Z"/>
      <path class="cls-1" d="M114.96,278.64c0,.36-.04.69-.12.96l-.59,1.47-1.34,3.4-1.26.13-.8.92c-.17.25-.46.42-.88.5l-5.2,1.47-.8.42-1.89-.25-2.64.34-3.02-.25h-.84c-.42-.48-.68-.75-.8-.84l-2.81-1.47-.96-1.3-1.89-1.89-1.51-2.89-.54-.71c.22-.67.33-1.27.33-1.8,0-.22-.04-.39-.13-.5l-.8-1.8-.17-2.39-.04-1.93c0-.64.11-1.49.34-2.56.31-1.68.57-2.68.8-3.02l1.05-1.97.54-1.8,1.38-1.89,1.47-2.81,1.3-1.05,1.89-1.89,1.26-1.22.42-.42.88-.25,2.64-1.22,2.05-.34,1.22-.75.63-.08c.98,0,1.8.77,2.47,2.31.36-.06.63-.35.8-.88l.8.96,1.05.84,2.43,3.44c.31.56.54,1.04.71,1.45.17.41.33.83.5,1.28.17.45.31.94.44,1.47.13.53.31,1.34.57,2.43l.21,1.05-.25.17-1.13-.34-1.26.59-.96-.25-1.05.42-2.05-.34-1.93.17-2.01-.5-3.31.08-1.59-.08-3.94.75-1.38-.08-1.97.84-.71.21-.12,1.01c-.03.7-.09,1.17-.19,1.43s-.31.54-.65.88l.08.8c.61.7.95,1.13,1.01,1.3l.75,4.28.38,1.05c-.2.28-.29.53-.29.75.03.06.04.11.04.17l1.09.5.29,1.05c.2.98.45,1.58.75,1.8l1.55.92.5,1.64c.28.2.71.35,1.3.46l.42,1.09.88.17,2.52,1.3,2.05-.59,5.49-1.3,1.22-1.05,1.84-1.63,1.55-2.89c.25-.47.56-.71.92-.71.67,0,1.01.43,1.01,1.3ZM108.17,258.9c0-.45-.36-1.38-1.09-2.81l-2.01-2.1-.63-1.01-.96-.08-2.22-.25-.5.17-1.26,1.01-1.59.55-2.01,1.09-.8.42-.92,2.01c-.56.59-.87.95-.92,1.09l-.13.5,3.56.38.38-.08.67-.29.63.21,1.72.5h.08l1.93-.5.63-.21.46.96h.67l2.52-.75,1.05.17c.5-.08.75-.4.75-.96Z"/>
      <path class="cls-1" d="M143.57,279.27c0,.17-.01.31-.04.42l-.33,2.14v.13c0,.06.01.12.04.21l-1.26,2.22-.71.29-1.13,1.09-.46.17-1.3.96h-.13l-1.84-.08c-.33,0-.78.2-1.34.59l-1.51,1.22-2.31.25-2.3-.25-.5-.63-1.72-.34-1.93-.75-2.64-.88-1.26-1.55-1.13-1.68.38-1.47c-.39.22-.74.33-1.05.33h-.21l-.54-.88-.71-1.8-.38-.75-.21-2.39.25-1.21-.25-.67-.59-.96.38-2.14-.17-3.86,1.05-2.52,1.22-3.69,1.63-1.97,2.89-4.02.84-.88,1.13-1.17.5-.25,1.22-1.3,3.73-1.72.88-.34s.06,0,.08.02c.03.01.06.04.08.06l1.47.92,1.47-.59,2.81.67,2.35-.5c.31.11.63.28.96.5-.14.9-.31,1.49-.5,1.78-.2.29-.57.62-1.13.99l-.08.92-1.17,1.05-.84.59h-.13l-.75-.17-1.01.17-4.44-1.01c-.17-.06-.39-.08-.67-.08s-.48.03-.59.08l-2.43.67h-.75c-.67.17-1.33.91-1.97,2.22l-1.22.63-.54,1.72-1.01.25c.08.22.12.42.12.59l-1.17,3.35-.12,1.47.04,2.56c.03,1.23.1,2.25.21,3.06s.32,1.62.63,2.43l-.25.96c-.2.48-.29.78-.29.92,0,.17.06.38.17.63.59.22.87.33.84.33.2.2.49.71.88,1.55l.8,1.55c.03.11.06.24.11.38.04.14.1.32.19.54h.63l.38.71,1.89,1.97.84,1.01.92.42.84.46,1.3.08,3.35.5s.07.06.13.08c.31,0,.99-.41,2.05-1.22l.54.29,1.97-2.01c.53-.11,1.05-.42,1.55-.92s1.17-1.4,2.01-2.68c.25-.45.49-.67.71-.67.17,0,.31.08.42.25.11.17.17.38.17.63Z"/>
      <path class="cls-1" d="M177.33,265.94l-.63-.17.13.96-.67.67c.08.5.16.81.23.92.07.11.24.29.52.54l.08.84c0,3.05-.81,6.34-2.43,9.89-.36.78-.82,1.61-1.36,2.47-.54.87-.89,1.44-1.03,1.72l-.88.34-5.45,3.69-3.02.17-2.18.8-2.6-.08-.92.34-2.6-.67-1.05-.08-.59-.96-1.63-.34-.75-.59c-.64-.73-1.19-1.33-1.63-1.82-.45-.49-.73-.81-.86-.96-.12-.15-.23-.31-.31-.48l-.63-1.8-.88-1.05-.71-2.64-.25-1.05.33-.33c0-.39.04-.66.11-.8.07-.14.24-.28.52-.42l-.17-.67-.96-.88v-1.72c0-1.2.1-2.39.29-3.56.19-1.17.53-2.53,1.01-4.07.75-2.46,1.31-3.86,1.68-4.19l1.17-1.13.63-1.63c.25-.59.53-.98.84-1.17l2.72-2.1,1.55-1.8,1.84-1.01,3.23-1.63,2.72-.34,2.1-.08c1.2,0,1.8.48,1.8,1.43.31.42.52.63.63.63.28,0,.6-.4.96-1.22l.71.25,1.89.96.75.92,1.09.96,1.05,2.39c.31.53.88.8,1.72.8.56,1.01.94,2,1.13,2.98.2.98.41,2.78.63,5.41l.13,1.38ZM173.14,266.99l-1.09-4.82-.17-2.14-.29-.8h-.17c-.14,0-.26-.04-.36-.13-.1-.08-.22-.24-.36-.46l-1.43-2.56-.46-1.05-2.43-1.63c-.22-.56-.42-.97-.59-1.24-.17-.27-.36-.4-.59-.4-.25,0-.64.14-1.17.42-.56-.33-.96-.5-1.22-.5l-.84.17-1.43.08-1.93,1.05-.46-.59-.38.67-1.97,1.72-3.61,4.53-.67.88c-.17,1.42-.61,3.06-1.34,4.9l-.42,1.01v.34c0,.62-.07,1.02-.21,1.22-.14.2-.41.33-.8.42-.08.45-.12.66-.12.63.03.06.05.1.06.15.01.04.02.08.02.1l.88,1.47.13.92c-.62.73-.92,1.22-.92,1.47l.13.5c.17-.28.33-.42.5-.42s.28.08.34.25l.67,3.1,1.47,3.52-.17,2.14c.17.22.33.34.5.34.25,0,.5-.17.75-.5l.54.25,3.52,3.1,3.56.5,2.01.42,2.31-.59,1.51-.5,1.84-2.77,1.38-.59.67-1.05,1.51-4.61.8-.96c.28-.39.42-.73.42-1.01v-.21l-.46-1.97.5-4.78Z"/>
      <path class="cls-1" d="M216.1,285.1l-.75.59-1.47,1.13-1.55,1.63c-.11.06-.25.08-.42.08-.14,0-.42-.06-.84-.17l-.13-2.1.13-1.09.46-1.97-.33-4.15.25-2.3.08-2.14.54-2.05v-.25c0-.39-.17-.77-.5-1.13l-.04-.96-.12-4.28c0-.34.01-.56.04-.67l.71-3.02-.75-1.63-.46-3.86-.21-1.05-.5-.34-1.34-1.17c-.2-.2-.63-.29-1.3-.29-.92,0-1.71.1-2.37.29-.66.2-1.42.59-2.28,1.17-1.37,1.01-2.05,1.87-2.05,2.6v2.98l-.75.8c0,.06,0,.1-.02.13-.01.03-.04.07-.06.13,0,.5.27.99.8,1.47l.21,9.6c-.31.22-.49.34-.54.34l-.5-.17.04.96.84,2.39-.17,1.47.13.84c.14.67.27,1.69.4,3.06.13,1.37.19,2.42.19,3.14,0,.08-.04.2-.13.33l-.42.34-1.05,1.13-1.72,1.01-.55.38c-.08,0-.32-.21-.71-.63v-.5l.25-4.28-.12-3.73c0-.56.06-.97.17-1.24s.34-.57.67-.9l.08-.84-.5-1.38-.13-1.05-.46-1.17.13-1.22.04-3.44.96-1.72c.03-.11.04-.28.04-.5,0-.75-.18-1.13-.54-1.13-.14,0-.25.03-.34.08l-.29-.84v-1.05l.04-1.72v-.88c0-3.52-.63-5.28-1.89-5.28-.22,0-.53.11-.92.33l-.63-1.3-.71.29-.5.59-1.42.25-1.43.84-1.13.21-.67.42-.34.92c-.53,1.51-.87,2.67-1.03,3.48-.15.81-.23,1.8-.23,2.98v.67l.13,5.78-.04,1.01-.8.42.17.88.63,1.38-.08,4.28.42,7.54c-.03.11-.11.28-.23.5-.13.22-.31.43-.57.63l-1.93,1.38c-.17.17-.42.25-.75.25-.25,0-.54-.08-.88-.25v-2.18l.04-4.19-.17-1.72.46-1.22.17-1.09-.5-.63-.08-1.01v-.59l.12-.63.54-1.09.21-.88v-.92c-.33-.06-.57-.24-.69-.57-.13-.32-.19-1.08-.19-2.28v-2.05l.08-2.05v-.88l.46-.08.04-1.89-.13-1.38-.46-1.55-.21-3.14-.25-1.63-.13-1.13-.25.34-.63-.84c.36-.92.84-1.7,1.43-2.33.59-.63,1.49-1.29,2.72-1.99.5.64.82,1.15.96,1.51.14.36.21.9.21,1.59l-.04,1.55-.08,1.72,1.09-.34,1.13-1.72.8-.42,1.17-1.38,3.23-1.55.46-.33.67-.34c.31.48.46,1.08.46,1.8l.5.25.5-.25v-1.05c.53-.5.89-.75,1.09-.75.03,0,.15.06.38.17l.25-.25c.2-.06.39-.08.59-.08.61,0,1.14.33,1.57.99.43.66.72,1.59.86,2.79.06.42.13.72.21.9.08.18.25.36.5.52l.5-.59.92-1.38,1.13-.84,1.55-1.38.67-.25h.08l1.22.08,1.13-.5h1.76l.96-.17,1.01.59,1.22.42c1.09.36,1.63,1.29,1.63,2.77-.31.36-.46.7-.46,1.01,0,.11.06.23.17.36.11.13.21.19.29.19.14,0,.28-.06.42-.17l.13.92.13,2.31.29,1.05.04.67-.12,2.77-.04,2.39v.96l-.34.75c-.2.48-.29.8-.29.96l.33,4.53.13,1.38v.08l-.08,2.85.08.08.13,1.43c-.06.25-.28.54-.67.88v1.47l.54-.25.13.92v2.93l.38,1.8Z"/>
      <path class="cls-1" d="M248.11,278.64c0,.36-.04.69-.12.96l-.59,1.47-1.34,3.4-1.26.13-.8.92c-.17.25-.46.42-.88.5l-5.2,1.47-.8.42-1.89-.25-2.64.34-3.02-.25h-.84c-.42-.48-.68-.75-.8-.84l-2.81-1.47-.96-1.3-1.89-1.89-1.51-2.89-.54-.71c.22-.67.33-1.27.33-1.8,0-.22-.04-.39-.13-.5l-.8-1.8-.17-2.39-.04-1.93c0-.64.11-1.49.34-2.56.31-1.68.57-2.68.8-3.02l1.05-1.97.54-1.8,1.38-1.89,1.47-2.81,1.3-1.05,1.89-1.89,1.26-1.22.42-.42.88-.25,2.64-1.22,2.05-.34,1.22-.75.63-.08c.98,0,1.8.77,2.47,2.31.36-.06.63-.35.8-.88l.8.96,1.05.84,2.43,3.44c.31.56.54,1.04.71,1.45.17.41.33.83.5,1.28.17.45.31.94.44,1.47.13.53.31,1.34.57,2.43l.21,1.05-.25.17-1.13-.34-1.26.59-.96-.25-1.05.42-2.05-.34-1.93.17-2.01-.5-3.31.08-1.59-.08-3.94.75-1.38-.08-1.97.84-.71.21-.12,1.01c-.03.7-.09,1.17-.19,1.43s-.31.54-.65.88l.08.8c.61.7.95,1.13,1.01,1.3l.75,4.28.38,1.05c-.2.28-.29.53-.29.75.03.06.04.11.04.17l1.09.5.29,1.05c.2.98.45,1.58.75,1.8l1.55.92.5,1.64c.28.2.71.35,1.3.46l.42,1.09.88.17,2.52,1.3,2.05-.59,5.49-1.3,1.22-1.05,1.84-1.63,1.55-2.89c.25-.47.56-.71.92-.71.67,0,1.01.43,1.01,1.3ZM241.32,258.9c0-.45-.36-1.38-1.09-2.81l-2.01-2.1-.63-1.01-.96-.08-2.22-.25-.5.17-1.26,1.01-1.59.55-2.01,1.09-.8.42-.92,2.01c-.56.59-.87.95-.92,1.09l-.13.5,3.56.38.38-.08.67-.29.63.21,1.72.5h.08l1.93-.5.63-.21.46.96h.67l2.52-.75,1.05.17c.5-.08.75-.4.75-.96Z"/>
      <path class="cls-1" d="M89.66,338.31c0,1.12-.14,2.05-.42,2.81-.28.75-.62,1.13-1.01,1.13-.08,0-.28-.06-.59-.17l-.38.96-.5,2.05-1.3,2.05-.59,1.22-.84.08-2.68,1.97-1.26.25-2.1,1.05-1.68-.46-2.56.88c-.17,0-1.1-.27-2.81-.8-.81-.25-1.33-.5-1.55-.75l-1.13-1.05-1.42-1.17c-.59-.56-1.07-1.28-1.45-2.16-.38-.88-.57-1.68-.57-2.41,0-.45.33-1.05.98-1.82s1.38-1.42,2.16-1.95l.63,1.22.59,3.69,1.01.92,1.68,1.89.84.38,1.55,1.09h1.09l.67.17,1.43-.59,2.35-.33,1.21-.88,1.13-.59c.7-.62,1.38-1.88,2.05-3.79s1.01-3.65,1.01-5.22c0-.59-.11-1.1-.33-1.55l-1.13-2.31-.29-1.05-.71-.5-.38.67-.63-.08-1.55-.33h-2.31l-.75-1.63c-.42.67-.75,1.1-1.01,1.28-.25.18-.73.36-1.42.52l-1.05.25-.54-.42h-.75l-.71-.84-.96.25-.92-.63-1.22-.59c-.5-.22-.92-.77-1.26-1.63-.33-.87-.5-1.75-.5-2.64,0-1.37.33-2.82.99-4.36.66-1.54,1.57-2.95,2.75-4.23.89-1.01,1.97-2,3.23-2.98,1.26-.98,2.44-1.73,3.54-2.26,1.1-.53,2.02-.8,2.75-.8.2,0,.92.29,2.18.88l.84.42c1.31-.33,2.17-.5,2.56-.5.53,0,.96.13,1.28.38.32.25.48.56.48.92s-.27.87-.82,1.53c-.54.66-1.24,1.26-2.08,1.82l-.92.59-.71-.08-1.47-.08-1.09-.42-.5-1.47h-.42l-.46.75h-1.72l-1.17.25-.92-.33-.46.5-1.84,1.55c-1.29,1.62-1.93,3.09-1.93,4.4,0,.92.2,1.52.59,1.8l1.89,1.26.59.46v1.01l.88.71.96-1.3.46.08,4.86-.5,2.31.75,1.09-.25,1.34,1.3,2.05,1.63c.39.39.74,1.27,1.05,2.64l.25,1.13c.33,1.76.5,3.21.5,4.36Z"/>
      <path class="cls-1" d="M111.24,314.04l-.29,1.17-.04.88-2.1,2.22-1.22,1.63-.75.17-1.05-.17c-.73-.11-1.38-.27-1.97-.48-.59-.21-.85-.31-.8-.31h-.08l-1.93.21-1.13-.29c-.28.06-.51.2-.69.44s-.27.5-.27.78c0,.31.11.5.34.59l-.04,5.41c-.84.33-1.26.85-1.26,1.55l.08.96,1.17.34.13,4.02.04.88-.29,1.26c-.22-.17-.41-.25-.54-.25-.5,0-.75.32-.75.96,0,.28.15.71.46,1.3.28-.47.46-.71.54-.71s.28.21.59.63l.08,5.66.08.84.67,1.97c.06.17.08.66.08,1.47.47.42.84.69,1.11.8s.62.17,1.07.17c.61,0,1.23-.15,1.84-.46.61-.31,1.1-.7,1.47-1.17l2.85-3.77c.11-.2.26-.29.46-.29.22,0,.56.18,1.01.54l-.17.92c-.39,2.32-.73,3.55-1.01,3.69l-6.79,3.61-1.17.88-.92-.8-.59-.17-.29,1.13-.54.08c-.56,0-1.23-.41-2.01-1.22-.81-.95-1.24-1.66-1.3-2.14l-.17-1.22-.33-1.42.04-2.35v-2.64l.59-2.77-.17-1.01-.13-1.47v-.96l.13-4.02-.08-1.13-.13-1.42c0-.11.03-.17.08-.17l.75-1.3c.08-.19.13-.36.13-.5,0-.64-.34-.96-1.01-.96l-.21-.5c.17-2.04.25-4.08.25-6.12-.92-.28-1.61-.42-2.05-.42-1.2,0-2.4.29-3.6.88-.17-.2-.25-.4-.25-.63,0-.47.08-.78.25-.92l1.09-1.38.21-.96c.06-.22.15-.4.27-.54.13-.14.23-.21.31-.21l3.35-.17.8-.17-.08-.96-.17-8.93-.71-2.39-.17-1.3c.59-1.17,1.17-2.01,1.74-2.52.57-.5,1.31-.87,2.2-1.09.39-.87.73-1.3,1.01-1.3.53,0,.8,1.27.8,3.82,0,3.86-.24,6.59-.71,8.22-.28,1.15-.54,1.72-.8,1.72v1.97c.28,0,.47.04.57.1.1.07.22.25.36.52l-.21,1.17.13.96.63.08,2.89.92c.22.11.54.17.96.17s.71-.06.88-.17l1.13-.5,2.18-.33,1.68-.88h1.47c.03.22.04.32.04.29Z"/>
      <path class="cls-1" d="M143.62,329.3l-.63-.17.13.96-.67.67c.08.5.16.81.23.92.07.11.24.29.52.54l.08.84c0,3.05-.81,6.34-2.43,9.89-.36.78-.82,1.61-1.36,2.47-.54.87-.89,1.44-1.03,1.72l-.88.34-5.45,3.69-3.02.17-2.18.8-2.6-.08-.92.34-2.6-.67-1.05-.08-.59-.96-1.63-.34-.75-.59c-.64-.73-1.19-1.33-1.63-1.82-.45-.49-.73-.81-.86-.96-.12-.15-.23-.31-.31-.48l-.63-1.8-.88-1.05-.71-2.64-.25-1.05.33-.33c0-.39.04-.66.11-.8.07-.14.24-.28.52-.42l-.17-.67-.96-.88v-1.72c0-1.2.1-2.39.29-3.56.19-1.17.53-2.53,1.01-4.07.75-2.46,1.31-3.86,1.68-4.19l1.17-1.13.63-1.63c.25-.59.53-.98.84-1.17l2.72-2.1,1.55-1.8,1.84-1.01,3.23-1.63,2.72-.33,2.1-.08c1.2,0,1.8.48,1.8,1.42.31.42.52.63.63.63.28,0,.6-.4.96-1.22l.71.25,1.89.96.75.92,1.09.96,1.05,2.39c.31.53.88.8,1.72.8.56,1.01.94,2,1.13,2.98s.41,2.78.63,5.41l.13,1.38ZM139.43,330.35l-1.09-4.82-.17-2.14-.29-.8h-.17c-.14,0-.26-.04-.36-.12-.1-.08-.22-.24-.36-.46l-1.43-2.56-.46-1.05-2.43-1.63c-.22-.56-.42-.97-.59-1.24-.17-.27-.36-.4-.59-.4-.25,0-.64.14-1.17.42-.56-.33-.96-.5-1.22-.5l-.84.17-1.43.08-1.93,1.05-.46-.59-.38.67-1.97,1.72-3.61,4.53-.67.88c-.17,1.42-.61,3.06-1.34,4.9l-.42,1.01v.33c0,.62-.07,1.02-.21,1.22-.14.2-.41.34-.8.42-.08.45-.12.66-.12.63.03.06.05.11.06.15.01.04.02.08.02.1l.88,1.47.13.92c-.62.73-.92,1.21-.92,1.47l.13.5c.17-.28.33-.42.5-.42s.28.08.34.25l.67,3.1,1.47,3.52-.17,2.14c.17.22.33.33.5.33.25,0,.5-.17.75-.5l.54.25,3.52,3.1,3.56.5,2.01.42,2.31-.59,1.51-.5,1.84-2.77,1.38-.59.67-1.05,1.51-4.61.8-.96c.28-.39.42-.73.42-1.01v-.21l-.46-1.97.5-4.78Z"/>
      <path class="cls-1" d="M168,315.47c0,.14-.03.27-.08.38l-1.68,1.89-.88,1.34-.54.29-.75-.71-.54-.75-1.72-.08-1.63-.96-.63-.25c-.25.62-.52,1-.8,1.15s-.82.23-1.63.23l-.96.59-.71-.34-.59.67-2.3,2.6c-.39.73-.62,2.07-.67,4.02l-.08,3.19-.63.59c.39.95.59,1.87.59,2.77h.42l.08,1.17.08,5.41.08,2.85-.13,2.56c-.59.5-.88.91-.88,1.22,0,.06.07.31.21.75l.8-.25-.08.38.25,1.68v.21c0,.42-.15.85-.46,1.3-.31.45-.63.7-.96.75l-1.13.17-1.72,1.3-.71-.63.13-.84.42-2.43-.17-3.23.17-.46h.59v-.5l-.04-.75-.38-1.22-.08-1.72-.21-1.47v-1.22l.04-1.34c.08-.14.17-.29.25-.44.08-.15.2-.38.36-.69.15-.31.31-.68.48-1.13l.29-1.01-.08-.42c-.89,0-1.34-.29-1.34-.88l.13-3.19-.17-3.14c.06-.28.17-.54.33-.8v-1.22l-.33-.5-.13-1.01-.08-2.26-.63-1.8c.14-1.01.45-1.86.92-2.56l1.8-1.38,1.09-1.01c.53.22.89.49,1.09.8s.29.81.29,1.51v1.38c0,1.03.15,1.55.46,1.55h.13l1.47-1.13,1.47-.8,2.47-1.97.84-.5.63.25,1.3-.59c.75-.33,1.33-.5,1.72-.5l1.26.17c.39.78.71,1.17.96,1.17.03-.03.05-.05.06-.06.01-.01.05-.02.11-.02l.67-.5c.14-.11.25-.17.33-.17.47,0,.92.38,1.34,1.13.31.53.46,1.01.46,1.42Z"/>
      <path class="cls-1" d="M175.39,313.75c-.36,1.17-.57,2.26-.63,3.27l-.17,4.15-.54,1.42c0,.06,0,.11-.02.17-.01.06-.04.13-.06.21,0,.36.24.75.71,1.17l-.08,1.3v8.13l-.13,6.54.42,2.77v1.42l.08,2.85c-.08.42-.68,1.24-1.8,2.47l-1.47,1.63c-.22.36-.5.54-.84.54-.25,0-.48-.11-.67-.34s-.29-.46-.29-.71c0-.73.15-1.58.46-2.56l.21-1.21-.25-.42.42-7.04.17-.71.75-.17v-1.34c0-.87-.05-1.51-.15-1.93-.1-.42-.34-.98-.73-1.68l.08-1.38v-.25l-.08-.71c0-.92.13-1.75.38-2.47l-.42-.71.04-2.3c.28-.22.42-.48.42-.75l-.04-.71-.84-.17v-1.26l.04-1.13v-1.72c0-.75-.06-1.31-.17-1.68-.11-.36-.35-.75-.71-1.17.25-.98.82-1.83,1.72-2.56l2.77-2.31c.53.08,1.01.53,1.43,1.34ZM177.11,291.53c0,.61-.1,1.02-.29,1.21l-2.14,2.22-.84,1.22-1.51,1.51c-1.03,1.09-1.65,1.63-1.84,1.63-.11,0-.22-.09-.31-.27-.1-.18-.15-.37-.15-.57,0-.64.11-1.13.34-1.47l2.98-4.11,1.59-3.1c.22-.17.49-.25.8-.25.36,0,.68.19.96.57.28.38.42.84.42,1.4Z"/>
      <path class="cls-1" d="M207.18,342c0,.36-.04.69-.12.96l-.59,1.47-1.34,3.4-1.26.13-.8.92c-.17.25-.46.42-.88.5l-5.2,1.47-.8.42-1.89-.25-2.64.34-3.02-.25h-.84c-.42-.48-.68-.75-.8-.84l-2.81-1.47-.96-1.3-1.89-1.89-1.51-2.89-.54-.71c.22-.67.33-1.27.33-1.8,0-.22-.04-.39-.13-.5l-.8-1.8-.17-2.39-.04-1.93c0-.64.11-1.5.34-2.56.31-1.68.57-2.68.8-3.02l1.05-1.97.54-1.8,1.38-1.89,1.47-2.81,1.3-1.05,1.89-1.89,1.26-1.22.42-.42.88-.25,2.64-1.22,2.05-.34,1.22-.75.63-.08c.98,0,1.8.77,2.47,2.31.36-.06.63-.35.8-.88l.8.96,1.05.84,2.43,3.44c.31.56.54,1.04.71,1.45s.33.83.5,1.28c.17.45.31.94.44,1.47.13.53.31,1.34.57,2.43l.21,1.05-.25.17-1.13-.34-1.26.59-.96-.25-1.05.42-2.05-.33-1.93.17-2.01-.5-3.31.08-1.59-.08-3.94.75-1.38-.08-1.97.84-.71.21-.12,1.01c-.03.7-.09,1.17-.19,1.43-.1.25-.31.54-.65.88l.08.8c.61.7.95,1.13,1.01,1.3l.75,4.28.38,1.05c-.2.28-.29.53-.29.75.03.06.04.11.04.17l1.09.5.29,1.05c.2.98.45,1.58.75,1.8l1.55.92.5,1.64c.28.2.71.35,1.3.46l.42,1.09.88.17,2.52,1.3,2.05-.59,5.49-1.3,1.22-1.05,1.84-1.63,1.55-2.89c.25-.48.56-.71.92-.71.67,0,1.01.43,1.01,1.3ZM200.39,322.26c0-.45-.36-1.38-1.09-2.81l-2.01-2.1-.63-1.01-.96-.08-2.22-.25-.5.17-1.26,1.01-1.59.54-2.01,1.09-.8.42-.92,2.01c-.56.59-.87.95-.92,1.09l-.13.5,3.56.38.38-.08.67-.29.63.21,1.72.5h.08l1.93-.5.63-.21.46.96h.67l2.52-.75,1.05.17c.5-.08.75-.4.75-.96Z"/>
      <path class="cls-1" d="M233.71,338.31c0,1.12-.14,2.05-.42,2.81-.28.75-.62,1.13-1.01,1.13-.08,0-.28-.06-.59-.17l-.38.96-.5,2.05-1.3,2.05-.59,1.22-.84.08-2.68,1.97-1.26.25-2.1,1.05-1.68-.46-2.56.88c-.17,0-1.1-.27-2.81-.8-.81-.25-1.33-.5-1.55-.75l-1.13-1.05-1.42-1.17c-.59-.56-1.07-1.28-1.45-2.16-.38-.88-.57-1.68-.57-2.41,0-.45.33-1.05.98-1.82s1.38-1.42,2.16-1.95l.63,1.22.59,3.69,1.01.92,1.68,1.89.84.38,1.55,1.09h1.09l.67.17,1.43-.59,2.35-.33,1.21-.88,1.13-.59c.7-.62,1.38-1.88,2.05-3.79s1.01-3.65,1.01-5.22c0-.59-.11-1.1-.33-1.55l-1.13-2.31-.29-1.05-.71-.5-.38.67-.63-.08-1.55-.33h-2.31l-.75-1.63c-.42.67-.75,1.1-1.01,1.28-.25.18-.73.36-1.42.52l-1.05.25-.54-.42h-.75l-.71-.84-.96.25-.92-.63-1.22-.59c-.5-.22-.92-.77-1.26-1.63-.33-.87-.5-1.75-.5-2.64,0-1.37.33-2.82.99-4.36.66-1.54,1.57-2.95,2.75-4.23.89-1.01,1.97-2,3.23-2.98,1.26-.98,2.44-1.73,3.54-2.26,1.1-.53,2.02-.8,2.75-.8.2,0,.92.29,2.18.88l.84.42c1.31-.33,2.17-.5,2.56-.5.53,0,.96.13,1.28.38.32.25.48.56.48.92s-.27.87-.82,1.53c-.54.66-1.24,1.26-2.08,1.82l-.92.59-.71-.08-1.47-.08-1.09-.42-.5-1.47h-.42l-.46.75h-1.72l-1.17.25-.92-.33-.46.5-1.84,1.55c-1.29,1.62-1.93,3.09-1.93,4.4,0,.92.2,1.52.59,1.8l1.89,1.26.59.46v1.01l.88.71.96-1.3.46.08,4.86-.5,2.31.75,1.09-.25,1.34,1.3,2.05,1.63c.39.39.74,1.27,1.05,2.64l.25,1.13c.33,1.76.5,3.21.5,4.36Z"/>
      <path class="cls-1" d="M244.92,346.99l-.84,2.3-.46.54c-.25.25-.46.48-.63.67-.17.2-.31.39-.42.59s-.2.43-.25.71c-.5,0-.87-.15-1.09-.46l-2.81-3.94-.67-.17-.67-.33.29-.75.67-.8,1.38-1.47.75-1.17.54-.54c1.01,1.01,1.69,1.63,2.05,1.89l.84.54c.53.31.96,1.1,1.3,2.39Z"/>
    </g>
  </g>
</svg>