<?xml version="1.0" encoding="UTF-8"?>
<svg id="Layer_2" data-name="Layer 2" xmlns="http://www.w3.org/2000/svg" xmlns:xlink="http://www.w3.org/1999/xlink" viewBox="0 0 390.31 400.22">
  <defs>
    <style>
      .cls-1, .cls-2 {
        fill: none;
      }

      .cls-3 {
        fill: #b34021;
      }

      .cls-4 {
        fill: #af7133;
      }

      .cls-5 {
        fill: #e9e2dd;
      }

      .cls-6 {
        clip-path: url(#clippath-1);
      }

      .cls-7, .cls-2 {
        stroke: #000;
        stroke-miterlimit: 10;
        stroke-width: 1.28px;
      }

      .cls-8 {
        fill: #fcb67e;
      }

      .cls-9 {
        fill: #f7f0e4;
      }

      .cls-10 {
        fill: #e3ddb8;
      }

      .cls-11 {
        fill: #dbb6ae;
      }

      .cls-12 {
        fill: #c3d8d1;
      }

      .cls-13 {
        clip-path: url(#clippath);
      }
    </style>
    <clipPath id="clippath">
      <polygon class="cls-1" points="280.68 358.58 289.72 358.58 280.68 342.91 280.68 358.58"/>
    </clipPath>
    <clipPath id="clippath-1">
      <polygon class="cls-1" points="294.25 350.74 289.72 358.58 280.68 342.91 294.25 350.74"/>
    </clipPath>
  </defs>
  <g id="OBJECTS">
    <g>
      <g>
        <path class="cls-4" d="M226.16,375.28c-2.32,3.41-7.03,3.95-10.8,2.98,1.34-.28,2.65-.71,3.04-.9,1.95-.72,3.85-1.6,5.6-2.72,1.45-.93,2.8-1.97,4.23-2.91-.69,1.19-1.33,2.4-2.07,3.56Z"/>
        <path class="cls-4" d="M219.98,360.74c.76-.43,1.58-.82,2.46-.89,2.88-.04,5.63,1.31,8.03,2.78,1.43.94,2.65,2.13,4.01,3.16-5.04-.9-9.99-2.6-14.5-5.05Z"/>
        <path class="cls-5" d="M226.48,371.31c-3.65,2.75-7.76,5.09-12.33,5.83,3.97-4.31,5.62-5.49,11.65-5.81.23,0,.45-.01.68-.02Z"/>
        <path class="cls-5" d="M223.03,363.7c2.58,1.11,5.26,1.97,7.97,2.71.8.23,1.62.4,2.44.55-3.01.43-6.12-.37-8.67-2.01-.59-.4-1.16-.82-1.74-1.25Z"/>
        <path class="cls-5" d="M232.06,353.02c6.81.83,8.57,1.44,13.52,6.33-7.07-.48-10.1-2.72-15.66-6.59.05,0,.1,0,.15.01.67.06,1.33.16,1.99.25Z"/>
        <path class="cls-5" d="M235.24,373.03c.35-1.33.94-2.62,1.42-3.93.06.14.13.29.19.44,1.33,3.06,1.21,6.58.33,9.75-.51,1.82-1.08,3.66-2.09,5.27-.19-2.14-.68-4.27-.54-6.44.14-1.71.24-3.43.68-5.09Z"/>
        <path class="cls-4" d="M238.93,370.09c2.38,2.87,1.98,6.82.3,9.93-.57,1.01-1.17,2.02-1.87,2.95.4-1.02.71-2.05,1.01-3,.99-3.4,1.17-7.21-.12-10.53.24.21.47.43.69.65Z"/>
        <path class="cls-4" d="M243.01,342.63c1.73-.16,3.41.43,5.04.98,1.08.35,2.21.76,3.3,1.27,2.17,1.04,3.96,2.67,5.97,3.96-2.67.15-5.35-.01-7.91-.84-3.1-1.25-5.97-3.05-8.69-4.98.24-.06.46-.11.7-.17.53-.1,1.06-.18,1.6-.23Z"/>
        <path class="cls-4" d="M245.16,357.16c-1.91-1.87-4.12-3.55-6.7-4.34-2.04-.49-4.11-.84-6.19-1.1,1.05-.28,2.1-.56,3.17-.72,1.54-.11,3.14-.15,4.58.45,1.09.52,2.22,1.06,3.06,1.94.87.97,1.88,1.89,2.32,3.14.13.41.27.8.37,1.2-.2-.19-.41-.38-.61-.56Z"/>
        <path class="cls-4" d="M249.29,377.36c-2.29-4.83-2.64-10.22-1.69-15.42.18.22.34.45.51.66,2.07,2.47,2.47,5.83,2.4,8.95-.1,1.98-.77,3.88-1.22,5.8Z"/>
        <path class="cls-5" d="M253.03,366.53c.18,2.71-.51,5.23-1.58,7.66.62-2.94.5-6.03-.39-8.9-.53-1.55-1.42-2.91-2.43-4.17,2.47.9,4.22,2.49,4.4,5.41Z"/>
        <path class="cls-5" d="M245.99,341.6c4.45.05,8.59,2.55,11.54,5.76.02.02.03.04.05.07-.72-.49-1.44-1-2.12-1.53-2.18-1.67-4.67-2.85-7.29-3.63-.71-.25-1.44-.48-2.18-.67Z"/>
        <path class="cls-5" d="M260.09,351.71c3.79,4.6,2.94,10.84,2.53,16.36-1.47-2.15-2.55-4.6-2.82-7.23-.16-3.05-.1-6.14.27-9.17,0,.01.02.02.03.04Z"/>
        <path class="cls-4" d="M264.29,355.53c1.05,3.03.68,6.35-.13,9.4.01-.13.02-.26.03-.39.36-4.91.11-8.73-2.34-12.62,1.11.95,1.91,2.25,2.43,3.61Z"/>
        <path d="M214.15,377.14c4.57-.74,8.68-3.09,12.33-5.83-.22,0-.45,0-.68.02-6.04.32-7.68,1.51-11.65,5.81ZM228.22,371.72c-1.44.94-2.78,1.99-4.23,2.91-1.75,1.12-3.65,2-5.6,2.72-.39.19-1.71.62-3.04.9,3.78.97,8.48.42,10.8-2.98.74-1.16,1.38-2.37,2.07-3.56ZM233.45,366.95c-.82-.15-1.64-.32-2.44-.55-2.71-.73-5.39-1.6-7.97-2.71.58.42,1.16.84,1.74,1.25,2.55,1.63,5.66,2.44,8.67,2.01ZM219.98,360.74c4.5,2.45,9.46,4.15,14.5,5.05-1.36-1.03-2.58-2.23-4.01-3.16-2.4-1.47-5.16-2.82-8.03-2.78-.88.07-1.69.46-2.46.89ZM237.19,379.28c.88-3.17,1-6.69-.33-9.75-.07-.15-.13-.3-.19-.44-.48,1.31-1.07,2.6-1.42,3.93-.44,1.66-.55,3.38-.68,5.09-.13,2.16.36,4.3.54,6.44,1.01-1.61,1.57-3.45,2.09-5.27ZM239.23,380.03c1.68-3.12,2.08-7.06-.3-9.93-.22-.22-.45-.45-.69-.65,1.29,3.32,1.11,7.13.12,10.53-.29.95-.61,1.98-1.01,3,.7-.92,1.31-1.93,1.87-2.95ZM245.4,356.53c-.43-1.25-1.45-2.17-2.32-3.14-.84-.88-1.97-1.41-3.06-1.94-1.44-.6-3.04-.56-4.58-.45-1.07.16-2.11.44-3.17.72,2.08.26,4.15.61,6.19,1.1,2.57.79,4.78,2.47,6.7,4.34.21.19.41.38.61.56-.11-.4-.24-.79-.37-1.2ZM245.57,359.34c-4.95-4.88-6.71-5.49-13.52-6.33-.66-.09-1.33-.2-1.99-.25-.05,0-.1,0-.15-.01,5.56,3.87,8.59,6.11,15.66,6.59ZM249.29,377.36c.45-1.92,1.12-3.82,1.22-5.8.06-3.12-.33-6.48-2.4-8.95-.17-.22-.33-.45-.51-.66-.95,5.2-.59,10.59,1.69,15.42ZM253.03,366.53c-.18-2.92-1.93-4.51-4.4-5.41,1.01,1.26,1.9,2.62,2.43,4.17.88,2.87,1,5.96.39,8.9,1.07-2.43,1.76-4.95,1.58-7.66ZM257.32,348.84c-2.01-1.29-3.8-2.92-5.97-3.96-1.09-.51-2.22-.92-3.3-1.27-1.62-.55-3.3-1.14-5.04-.98-.54.05-1.07.13-1.6.23-.24.06-.46.11-.7.17,2.72,1.93,5.58,3.73,8.69,4.98,2.56.82,5.24.99,7.91.84ZM258.5,349.59h0s.01.05.02.08c0,0,0,.02,0,.02-.01-.04-.02-.07-.02-.11ZM257.53,347.36c-2.95-3.21-7.09-5.71-11.54-5.76.74.18,1.47.42,2.18.67,2.62.78,5.11,1.96,7.29,3.63.68.54,1.4,1.05,2.12,1.53-.02-.02-.03-.04-.05-.07ZM262.61,368.08c.41-5.52,1.26-11.76-2.53-16.36,0-.01-.02-.02-.03-.04-.36,3.04-.43,6.12-.27,9.17.26,2.62,1.35,5.07,2.82,7.23ZM264.16,364.94c.81-3.05,1.18-6.38.13-9.4-.52-1.36-1.32-2.66-2.43-3.61,2.44,3.9,2.7,7.71,2.34,12.62-.01.13-.02.26-.03.39ZM265.74,343.33c-.4.48-.76,1-1.12,1.5-1.2,1.64-2.53,3.17-3.92,4.66.38.19.73.44,1.06.7,1.63,1.08,2.84,2.67,3.6,4.46,1.52,3.82.9,8.18-.36,12-.32.93-.69,1.85-1.04,2.78-.17.48-.29,1.19-.94,1.12-.29-.03-.51-.27-.56-.54-.47-.51-.88-1.11-1.26-1.69-2.58-3.93-3.01-7.47-2.76-12.06.08-1.57.06-3.18.31-4.74-.34.35-.7.71-1.05,1.06-2.7,2.73-5.86,4.92-8.92,7.22,1.94.61,3.82,1.82,4.72,3.57,1.8,3.73.54,8.71-1.28,12.22-.53,1.24-1.2,2.4-2.01,3.47-.19.32-.55.56-.93.43-.19-.05-.32-.17-.39-.33-1-1-1.81-4-2.06-4.75-.64-2.04-1.03-4.17-1.03-6.31,0-.73.03-4.15.53-6.46-2.82,2.09-5.78,3.98-8.89,5.61,2.72,1.56,4.27,4.02,4.52,7.24.1,3.11-1.29,6.02-3.01,8.53-.84,1.31-2,2.37-3.22,3.32-.33.28-.69.7-1.17.58-.41-.07-.59-.43-.54-.76-.02-.07-.03-.13-.03-.2-.23-1.32-.31-2.66-.52-3.97-.46-3.08-.2-6.24.49-9.25.43-1.57,1.07-3.07,1.66-4.58-1.16.56-2.34,1.09-3.53,1.57-.4.18-.81.35-1.21.53-.06.21-.21.4-.49.45-1.53,2.2-2.42,4.87-4.37,6.74-3.11,2.81-7.87,3.07-11.73,1.85-.48-.16-.97-.34-1.45-.46-.33-.01-.57-.28-.61-.59-.27-.22-.25-.62.22-1.27.59-.6,1.19-1.19,1.77-1.8,2.39-2.69,4.79-4.39,8.44-4.88,1.73-.34,3.5-.27,5.24-.39,1.23-.44,2.42-.98,3.65-1.43.11-.04.22-.09.33-.13-2.49-.02-5-.64-7.13-1.95-1.76-.97-3.29-2.3-4.87-3.52-.64-.57-1.52-.98-1.91-1.76-.18-.41.06-.75.38-.88.11-.12.24-.22.39-.3,1.17-.74,2.46-1.43,3.88-1.45,2.83,0,5.55,1.22,7.96,2.62,2.24,1.39,4.17,3.2,6.2,4.88.06,0,.12,0,.19.02,2.96-1.57,5.79-3.41,8.49-5.39-.47-.03-.95-.08-1.41-.14-3.15-.35-6.25-1.19-9-2.8-1.87-1.02-3.52-2.36-5.31-3.51-.71-.57-2.57-1.42-2.27-2.47.1-.24.32-.38.56-.41,0,0,.01-.02.03-.03.27-.15.6-.14.91-.18,1.09-.16,2.18-.48,3.25-.73,1.31-.34,2.62-.75,3.98-.75,1.36-.05,2.76,0,4.05.48,1.67.69,3.28,1.62,4.43,3.05.69.77,1.42,1.56,1.82,2.54.39,1.06.79,2.18.82,3.32.06.03.1.07.15.11,3.05-2.34,6.27-4.48,9-7.21.6-.59,1.21-1.19,1.81-1.79-1.76,0-3.52.17-5.28-.05-2.07-.28-4.15-.73-6.01-1.73-2.36-1.15-4.6-2.56-6.74-4.06-.53-.45-1.32-.77-1.52-1.47-.05-.36.12-.57.37-.71.04-.1.09-.19.2-.28,2.03-1.14,4.84-1.51,7.15-1.55,3.1.19,6.09,1.3,8.58,3.17,1.63,1.08,3.1,2.41,4.25,3.99.13.28.43.62.67.97,1.18-1.28,2.31-2.59,3.36-3.99.57-.55,1.44-2.68,2.33-2.02.27.21.36.65.13.92Z"/>
      </g>
      <g>
        <path d="M54.46,279.42c.35-.69,1.25-.97,1.94-.61.68.37.95,1.24.59,1.93-.36.71-1.25.97-1.94.61-.69-.35-.95-1.24-.59-1.93Z"/>
        <path d="M57.36,289.15c.36-.71,1.25-.97,1.94-.61.69.35.95,1.24.59,1.93-.35.69-1.25.97-1.94.61-.68-.37-.95-1.24-.59-1.93Z"/>
        <path d="M37.29,280.13c.35-.69,1.25-.97,1.94-.61.7.38.97,1.25.61,1.94-.36.71-1.25.97-1.94.61-.71-.36-.97-1.25-.61-1.94Z"/>
        <path d="M63.68,294.59c.36-.71,1.27-.96,1.94-.61.71.36.97,1.25.61,1.94-.35.69-1.25.97-1.94.61-.68-.37-.97-1.25-.61-1.94Z"/>
        <path d="M45.92,286.59c.35-.69,1.25-.97,1.94-.61.7.38.97,1.25.61,1.94-.36.71-1.25.97-1.94.61-.71-.36-.97-1.25-.61-1.94Z"/>
        <path d="M73.25,305.45c.26.13.46.35.59.61.22.4.25.9.03,1.33-.31.6-1.02.89-1.65.74-.1-.03-.2-.08-.29-.12-.71-.36-.97-1.25-.61-1.94.35-.69,1.25-.97,1.94-.61Z"/>
        <path d="M51.38,296.07c.36-.71,1.25-.97,1.94-.61.71.36.97,1.25.61,1.94s-1.25.97-1.94.61c-.7-.38-.97-1.25-.61-1.94Z"/>
        <path d="M61.46,301.4c.35-.69,1.25-.97,1.94-.61.7.38.97,1.25.61,1.94-.36.71-1.25.97-1.94.61-.71-.36-.97-1.25-.61-1.94Z"/>
        <path d="M41.7,294.29c.35-.69,1.25-.97,1.94-.61.7.38.97,1.25.61,1.94-.36.71-1.25.97-1.94.61-.71-.36-.97-1.25-.61-1.94Z"/>
        <path d="M78.54,314.25c.35-.69,1.25-.97,1.94-.61.68.37.97,1.25.61,1.94-.36.71-1.27.96-1.94.61-.71-.36-.97-1.25-.61-1.94Z"/>
        <path d="M85.49,319.8c.35-.69,1.25-.97,1.93-.59.69.35.95,1.24.59,1.93-.35.69-1.25.97-1.93.59-.69-.35-.96-1.22-.59-1.93Z"/>
        <path d="M71.25,312.84c.35-.69,1.25-.97,1.93-.59.69.35.95,1.24.59,1.93-.26.5-.8.79-1.36.77-.2-.03-.38-.08-.57-.17-.69-.35-.96-1.22-.59-1.93Z"/>
        <path d="M64.26,310.36c.35-.69,1.25-.97,1.93-.59.71.36.97,1.25.61,1.94s-1.25.97-1.93.59c-.71-.36-.98-1.23-.61-1.94Z"/>
        <path d="M53.46,305.97c.35-.69,1.25-.97,1.94-.61.7.38.97,1.25.61,1.94-.36.71-1.25.97-1.94.61-.71-.36-.97-1.25-.61-1.94Z"/>
        <path d="M72.77,319.7c.35-.69,1.25-.97,1.94-.61.68.37.95,1.24.59,1.93-.36.71-1.25.97-1.94.61-.69-.35-.95-1.24-.59-1.93Z"/>
        <path d="M80.91,323.93c.36-.71,1.25-.97,1.94-.61.71.36.97,1.25.61,1.94-.35.69-1.25.97-1.94.61-.7-.38-.97-1.25-.61-1.94Z"/>
        <path d="M63,316.9c.36-.71,1.27-.96,1.94-.61.71.36.97,1.25.61,1.94-.35.69-1.25.97-1.94.61-.7-.38-.97-1.25-.61-1.94Z"/>
      </g>
      <g>
        <path d="M360.27,173.54c-.51.59-1.44.64-2.03.13-.57-.53-.62-1.43-.11-2.02.52-.6,1.44-.64,2.03-.13.59.51.62,1.43.11,2.02Z"/>
        <path d="M359.79,163.39c-.52.6-1.44.64-2.03.13-.59-.51-.62-1.43-.11-2.02.51-.59,1.44-.64,2.03-.13.57.53.62,1.43.11,2.02Z"/>
        <path d="M377.1,176.98c-.51.59-1.44.64-2.03.13-.59-.54-.64-1.44-.13-2.03.52-.6,1.44-.64,2.03-.13.6.52.64,1.44.13,2.03Z"/>
        <path d="M354.97,156.58c-.52.6-1.46.62-2.03.13-.6-.52-.64-1.44-.13-2.03.51-.59,1.44-.64,2.03-.13.57.53.64,1.44.13,2.03Z"/>
        <path d="M370.28,168.64c-.51.59-1.44.64-2.03.13-.59-.54-.64-1.44-.13-2.03.52-.6,1.44-.64,2.03-.13.6.52.64,1.44.13,2.03Z"/>
        <path d="M348.29,143.75c-.22-.19-.36-.45-.42-.73-.12-.44-.02-.94.3-1.3.44-.51,1.21-.62,1.78-.32.09.05.17.12.25.19.6.52.64,1.44.13,2.03-.51.59-1.44.64-2.03.13Z"/>
        <path d="M367.27,158.12c-.52.6-1.44.64-2.03.13-.6-.52-.64-1.44-.13-2.03.51-.59,1.44-.64,2.03-.13.59.54.64,1.44.13,2.03Z"/>
        <path d="M358.77,150.51c-.51.59-1.44.64-2.03.13-.59-.54-.64-1.44-.13-2.03.52-.6,1.44-.64,2.03-.13.6.52.64,1.44.13,2.03Z"/>
        <path d="M376.23,162.18c-.51.59-1.44.64-2.03.13-.59-.54-.64-1.44-.13-2.03.52-.6,1.44-.64,2.03-.13.6.52.64,1.44.13,2.03Z"/>
        <path d="M345.28,133.93c-.51.59-1.44.64-2.03.13-.57-.53-.64-1.44-.13-2.03.52-.6,1.46-.62,2.03-.13.6.52.64,1.44.13,2.03Z"/>
        <path d="M339.88,126.86c-.51.59-1.44.64-2.02.11-.59-.51-.62-1.43-.11-2.02.51-.59,1.44-.64,2.02-.11.59.51.64,1.41.11,2.02Z"/>
        <path d="M352.02,137.05c-.51.59-1.44.64-2.02.11-.59-.51-.62-1.43-.11-2.02.37-.43.97-.57,1.5-.42.18.08.35.17.51.31.59.51.63,1.41.11,2.02Z"/>
        <path d="M358.2,141.15c-.51.59-1.44.64-2.02.11-.6-.52-.64-1.44-.13-2.03.51-.59,1.44-.64,2.02-.11.6.52.65,1.43.13,2.03Z"/>
        <path d="M367.63,148c-.51.59-1.44.64-2.03.13-.59-.54-.64-1.44-.13-2.03.52-.6,1.44-.64,2.03-.13.6.52.64,1.44.13,2.03Z"/>
        <path d="M352.2,130.03c-.51.59-1.44.64-2.03.13-.57-.53-.62-1.43-.11-2.02.52-.6,1.44-.64,2.03-.13.59.51.62,1.43.11,2.02Z"/>
        <path d="M345.31,123.97c-.52.6-1.44.64-2.03.13-.6-.52-.64-1.44-.13-2.03.51-.59,1.44-.64,2.03-.13.59.54.64,1.44.13,2.03Z"/>
        <path d="M361.01,135.1c-.52.6-1.46.62-2.03.13-.6-.52-.64-1.44-.13-2.03.51-.59,1.44-.64,2.03-.13.59.54.64,1.44.13,2.03Z"/>
      </g>
      <g>
        <path class="cls-4" d="M189.95,33.72c2.56-3.23,7.3-3.43,10.99-2.18-1.35.18-2.69.52-3.1.68-1.99.58-3.96,1.31-5.78,2.3-1.52.82-2.93,1.76-4.43,2.59.78-1.13,1.5-2.29,2.32-3.39Z"/>
        <path class="cls-4" d="M195.03,48.67c-.79.37-1.63.7-2.52.71-2.87-.17-5.52-1.72-7.81-3.36-1.35-1.04-2.49-2.32-3.76-3.45,4.96,1.27,9.78,3.33,14.09,6.1Z"/>
        <path class="cls-5" d="M189.33,37.66c3.84-2.47,8.11-4.51,12.72-4.91-4.28,4-6,5.06-12.05,4.94-.23,0-.45-.02-.68-.03Z"/>
        <path class="cls-5" d="M192.21,45.5c-2.49-1.29-5.1-2.36-7.75-3.29-.79-.28-1.59-.52-2.39-.72,3.03-.21,6.07.82,8.5,2.64.55.45,1.1.91,1.65,1.37Z"/>
        <path class="cls-5" d="M182.43,55.49c-6.73-1.33-8.44-2.07-13.02-7.3,7.01,1,9.88,3.46,15.13,7.73-.05,0-.1-.02-.15-.02-.66-.11-1.32-.26-1.97-.4Z"/>
        <path class="cls-5" d="M180.72,35.3c-.45,1.3-1.13,2.55-1.71,3.82-.05-.15-.11-.3-.16-.45-1.1-3.15-.72-6.65.38-9.74.65-1.78,1.35-3.57,2.47-5.1.03,2.15.36,4.31.07,6.46-.26,1.69-.49,3.4-1.05,5.03Z"/>
        <path class="cls-4" d="M176.82,37.96c-2.16-3.04-1.47-6.94.43-9.93.64-.97,1.32-1.93,2.09-2.8-.47.99-.86,1.99-1.22,2.92-1.24,3.32-1.69,7.1-.65,10.51-.22-.22-.44-.46-.64-.7Z"/>
        <path class="cls-4" d="M170.73,65.04c-1.74.03-3.37-.68-4.95-1.35-1.05-.43-2.15-.92-3.19-1.51-2.09-1.19-3.76-2.96-5.67-4.39,2.67.05,5.33.41,7.83,1.42,3,1.48,5.73,3.48,8.3,5.6-.24.04-.47.08-.71.12-.53.06-1.07.1-1.61.11Z"/>
        <path class="cls-4" d="M169.66,50.39c1.77,2,3.85,3.84,6.36,4.82,1.99.64,4.03,1.14,6.09,1.55-1.07.2-2.13.41-3.21.48-1.54,0-3.14-.08-4.53-.79-1.05-.6-2.13-1.22-2.91-2.16-.79-1.03-1.74-2.02-2.08-3.3-.1-.42-.21-.82-.28-1.22.18.2.38.41.57.61Z"/>
        <path class="cls-4" d="M167.02,29.95c1.92,4.98,1.89,10.38.55,15.5-.16-.23-.31-.47-.46-.7-1.89-2.62-2.03-6-1.74-9.11.25-1.97,1.05-3.81,1.65-5.7Z"/>
        <path class="cls-5" d="M162.5,40.47c.02-2.72.89-5.18,2.14-7.52-.83,2.89-.94,5.98-.27,8.91.42,1.59,1.2,3,2.12,4.33-2.39-1.08-4.03-2.79-3.99-5.72Z"/>
        <path class="cls-5" d="M167.69,65.85c-4.43-.38-8.37-3.18-11.08-6.6-.02-.02-.03-.05-.05-.07.68.54,1.36,1.1,2,1.69,2.06,1.82,4.45,3.19,7,4.16.69.3,1.4.59,2.12.82Z"/>
        <path class="cls-5" d="M154.38,54.73c-3.44-4.86-2.13-11.03-1.32-16.5,1.31,2.26,2.21,4.78,2.28,7.41-.06,3.06-.35,6.13-.94,9.13,0-.02-.02-.02-.02-.04Z"/>
        <path class="cls-4" d="M150.47,50.61c-.82-3.09-.21-6.38.82-9.37-.02.13-.04.25-.06.38-.72,4.87-.75,8.7,1.4,12.76-1.04-1.03-1.74-2.39-2.16-3.78Z"/>
        <path d="M202.05,32.74c-4.61.4-8.88,2.44-12.72,4.91.22,0,.45.02.68.03,6.04.12,7.77-.94,12.05-4.94ZM187.62,37.12c1.5-.83,2.92-1.78,4.43-2.59,1.82-.99,3.79-1.72,5.78-2.3.41-.16,1.75-.49,3.1-.68-3.69-1.25-8.43-1.05-10.99,2.18-.82,1.1-1.55,2.26-2.32,3.39ZM182.06,41.49c.81.21,1.61.44,2.39.72,2.65.93,5.26,1.99,7.75,3.29-.55-.46-1.09-.92-1.65-1.37-2.42-1.82-5.47-2.85-8.5-2.64ZM195.03,48.67c-4.31-2.78-9.13-4.83-14.09-6.1,1.28,1.13,2.41,2.41,3.76,3.45,2.29,1.65,4.93,3.19,7.81,3.36.89,0,1.72-.34,2.52-.71ZM179.24,28.92c-1.11,3.09-1.49,6.6-.38,9.74.05.15.11.31.16.45.58-1.27,1.26-2.52,1.71-3.82.56-1.62.79-3.33,1.05-5.03.29-2.15-.04-4.31-.07-6.46-1.12,1.53-1.82,3.33-2.47,5.1ZM177.25,28.03c-1.9,2.99-2.59,6.89-.43,9.93.2.24.42.48.64.7-1.04-3.41-.58-7.2.65-10.51.36-.92.75-1.93,1.22-2.92-.77.87-1.45,1.83-2.09,2.8ZM169.38,51.01c.34,1.28,1.29,2.27,2.08,3.3.78.94,1.86,1.55,2.91,2.16,1.39.71,2.99.78,4.53.79,1.08-.08,2.14-.28,3.21-.48-2.06-.42-4.1-.92-6.09-1.55-2.51-.98-4.59-2.82-6.36-4.82-.19-.2-.38-.41-.57-.61.08.41.18.81.28,1.22ZM169.41,48.19c4.58,5.23,6.29,5.97,13.02,7.3.65.14,1.31.29,1.97.4.05,0,.1.02.15.02-5.26-4.27-8.12-6.73-15.13-7.73ZM167.02,29.95c-.59,1.89-1.4,3.73-1.65,5.7-.29,3.11-.15,6.49,1.74,9.11.15.23.3.47.46.7,1.33-5.12,1.37-10.52-.55-15.5ZM162.5,40.47c-.04,2.93,1.59,4.64,3.99,5.72-.92-1.33-1.7-2.75-2.12-4.33-.67-2.92-.56-6.02.27-8.91-1.25,2.34-2.12,4.8-2.14,7.52ZM156.92,57.8c1.91,1.43,3.58,3.19,5.67,4.39,1.05.59,2.15,1.08,3.19,1.51,1.58.67,3.21,1.38,4.95,1.35.54,0,1.08-.05,1.61-.11.24-.04.47-.08.71-.12-2.57-2.12-5.3-4.13-8.3-5.6-2.49-1.01-5.16-1.37-7.83-1.42ZM155.8,56.97h0s0-.05-.02-.08c0,0,0-.02,0-.02,0,.04.02.07.02.11ZM156.61,59.25c2.71,3.42,6.65,6.22,11.08,6.6-.72-.24-1.43-.52-2.12-.82-2.56-.97-4.95-2.33-7-4.16-.64-.59-1.32-1.15-2-1.69.02.02.03.05.05.07ZM153.06,38.23c-.82,5.47-2.12,11.64,1.32,16.5,0,.02.02.02.02.04.58-3,.88-6.07.94-9.13-.07-2.63-.97-5.16-2.28-7.41ZM151.29,41.24c-1.03,2.99-1.65,6.27-.82,9.37.42,1.39,1.12,2.75,2.16,3.78-2.15-4.06-2.12-7.89-1.4-12.76.02-.13.04-.25.06-.38ZM148.12,62.67c.44-.45.83-.94,1.23-1.42,1.32-1.55,2.76-2.98,4.25-4.36-.36-.22-.69-.49-1-.78-1.55-1.19-2.64-2.87-3.26-4.71-1.23-3.93-.3-8.23,1.24-11.94.39-.91.82-1.79,1.24-2.69.21-.46.38-1.17,1.02-1.05.28.05.48.31.52.59.43.55.79,1.17,1.13,1.78,2.29,4.11,2.46,7.67,1.86,12.23-.19,1.56-.29,3.17-.66,4.7.37-.32.75-.65,1.12-.98,2.89-2.52,6.2-4.47,9.42-6.54-1.89-.75-3.67-2.09-4.45-3.91-1.52-3.85.1-8.72,2.18-12.09.62-1.19,1.37-2.31,2.26-3.32.22-.3.59-.52.96-.36.18.06.31.19.37.35.92,1.07,1.52,4.12,1.71,4.89.49,2.08.72,4.23.56,6.37-.05.72-.33,4.13-1,6.4,2.96-1.88,6.06-3.54,9.28-4.94-2.6-1.76-3.96-4.33-3.97-7.55.13-3.11,1.73-5.91,3.63-8.29.94-1.25,2.17-2.22,3.46-3.08.35-.25.74-.65,1.21-.49.4.1.55.47.48.79.02.07.02.13.02.2.13,1.33.12,2.67.23,4,.23,3.1-.26,6.23-1.17,9.19-.55,1.53-1.29,2.99-1.99,4.45,1.2-.48,2.41-.92,3.64-1.31.42-.15.83-.29,1.25-.44.08-.21.24-.38.52-.42,1.69-2.08,2.77-4.68,4.86-6.4,3.31-2.57,8.07-2.48,11.83-.99.47.19.95.42,1.42.56.32.04.55.32.56.63.25.24.2.64-.31,1.25-.63.55-1.27,1.1-1.9,1.66-2.59,2.51-5.1,4.03-8.78,4.25-1.75.22-3.51,0-5.26,0-1.25.35-2.49.8-3.75,1.15-.11.03-.22.08-.34.11,2.49.21,4.94,1.01,6.97,2.47,1.69,1.09,3.11,2.54,4.6,3.86.59.62,1.44,1.09,1.78,1.89.15.42-.12.75-.45.85-.12.12-.25.2-.41.27-1.22.65-2.56,1.25-3.98,1.16-2.82-.22-5.45-1.62-7.74-3.19-2.13-1.55-3.93-3.5-5.83-5.32-.06,0-.12,0-.18-.03-3.07,1.35-6.03,2.97-8.87,4.75.47.07.94.15,1.4.24,3.12.59,6.14,1.65,8.77,3.46,1.79,1.15,3.34,2.62,5.03,3.89.66.62,2.46,1.61,2.09,2.63-.12.23-.35.35-.59.37,0,0-.02.02-.03.02-.28.13-.61.09-.92.11-1.1.08-2.21.32-3.29.49-1.33.24-2.66.55-4.03.45-1.36-.05-2.76-.2-4-.78-1.62-.81-3.15-1.86-4.2-3.36-.63-.82-1.3-1.66-1.62-2.67-.32-1.09-.62-2.23-.58-3.37-.05-.04-.09-.08-.14-.12-3.21,2.11-6.58,4.01-9.51,6.53-.65.55-1.29,1.09-1.93,1.66,1.76.14,3.53.09,5.26.44,2.05.43,4.09,1.03,5.87,2.17,2.27,1.32,4.4,2.89,6.43,4.55.49.48,1.26.86,1.41,1.58.02.36-.16.56-.42.69-.05.1-.11.18-.22.26-2.11.99-4.93,1.15-7.24,1.02-3.08-.42-5.98-1.75-8.32-3.79-1.55-1.19-2.92-2.63-3.95-4.3-.11-.28-.38-.65-.59-1.02-1.27,1.19-2.49,2.42-3.64,3.73-.61.51-1.63,2.57-2.47,1.84-.25-.23-.31-.67-.06-.93Z"/>
      </g>
      <g>
        <path class="cls-12" d="M58.22,274.99s0,0,0,0c-2.49.3-4.99.39-7.48.7-1.39.15-2.79.28-4.18.43-2.51.26-4.99.69-7.51.79.55-.47,1.1-.94,1.68-1.4,2.01-1.6,4.19-3.05,6.23-4.63,1.25.42,3.95-.12,4.73-.12,1.66-.17,3.33-.24,4.99-.33.16.56.42,1.09.61,1.64.34.96.61,1.94.92,2.91Z"/>
        <path class="cls-12" d="M38.05,276.31c.13-.28.26-.57.4-.85,1.18-2.4,2.51-4.66,3.79-7.07,1.8-3.26,3.3-6.74,5.52-9.77.02.13.08.26.2.35.98.68,2.1,1.79,3.32,2.18-.83,1.44-1.65,2.89-2.46,4.34-.57,1.02-1.17,2.03-1.74,3.06-.21.44-.52.86-.66,1.33-2.78,2.09-5.63,3.98-8.26,6.3-.04.04-.07.09-.1.14Z"/>
        <path class="cls-12" d="M83.3,260s-.08.06-.12.08c-2.31-1.15-4.65-2.28-6.86-3.62,1.14-1.88,2.43-3.66,3.66-5.49.3-.43.58-.88.86-1.32.06-.09.09-.18.1-.29.41-.25.81-.51,1.21-.77,1.12-.71,2.23-1.45,3.35-2.17,3.92-2.51,7.95-4.94,12.13-7-2.23,3.49-4.88,6.68-7.31,10.04-1.62,2.26-3.23,4.54-4.71,6.9-.78,1.2-1.4,2.53-2.31,3.64Z"/>
        <path class="cls-12" d="M79.88,248.67c-.45.24-1.01.16-1.5.22-.57.03-1.15.06-1.72.06-2.16.02-4.28.09-6.46.11.03-2.16.62-4.36,1.02-6.5.04-.18-.03-.37-.16-.49,8.3-1.13,16.6-2.5,24.96-3.15-5.6,2.88-10.85,6.35-16.14,9.76Z"/>
        <path class="cls-12" d="M56.99,269.27c-.18,0-.38.03-.54.03-2.93.01-5.84.57-8.77.55,1.39-2.5,2.8-4.98,4.22-7.47.13-.33.52-.78.69-1.2.81-.36,1.52-.95,2.3-1.38,3.11-1.92,6.14-3.98,9.23-5.94,1.55-1,3.11-1.98,4.65-3.01.33-.22.65-.45.96-.69.13.04.28.06.45.05,2.84-.07,5.67-.05,8.54-.2.17-.01.35-.02.52-.03-.27.41-.55.82-.83,1.22-.57.83-1.12,1.67-1.68,2.5-.56.9-1.28,1.73-1.65,2.72,0,0,0,.01,0,.02-.22.17-.44.38-.65.49-1.94,1.37-3.89,2.74-5.91,4.01-3.09,1.94-6.08,4.03-9,6.22-.47.36-.93.73-1.38,1.11-.31.32-.81.63-1.15,1Z"/>
        <path d="M59.66,275.62c-1.19.76-2.64.63-3.99.79-2.71.19-5.41.52-8.11.78-2.75.27-5.47.74-8.24.88-.92-.05-2.97.44-2.82-.98,1.1-3.12,3.06-6.04,4.55-8.95,1.7-3.16,3.24-6.42,5.19-9.44.99-1.77,2.67-2.89,4.35-3.95,2.22-1.44,4.45-2.86,6.67-4.31,3.49-2.24,6.71-4.87,10.06-7.32,1.12-.73,2.15-1.7,3.4-2.19.55-.13,1.13-.18,1.69-.27,7.56-.96,15.07-2.26,22.68-2.86,1.06-.09,2.11-.17,3.17-.31.28-.02.56-.1.84-.08.39.06.61.53.41.86.03.19-.07.38-.16.54-.22.36-.44.72-.66,1.08-.65,1.05-1.36,2.06-2.09,3.06-1.89,2.57-3.85,5.12-5.73,7.7-1.6,2.27-3.21,4.54-4.66,6.91-.69,1.08-1.24,2.27-2.08,3.24-1.84,1.31-3.76,2.51-5.63,3.79-2.31,1.52-4.74,2.82-7.11,4.26-3.89,2.28-7.75,4.64-11.73,6.76ZM58.23,275s0,0,0,0c-.31-.97-.57-1.95-.92-2.91-.18-.55-.45-1.08-.61-1.64-1.66.08-3.33.15-4.99.33-.79,0-3.49.54-4.73.12-2.04,1.58-4.22,3.03-6.23,4.63-.58.46-1.12.92-1.68,1.4,2.52-.09,5-.53,7.51-.79,1.39-.16,2.78-.29,4.18-.43,2.49-.31,4.99-.4,7.48-.7ZM37.77,276.94c.11,0,.21,0,.31,0-.1-.15-.13-.34-.08-.51-.07.17-.15.34-.22.51ZM38.45,275.46c-.14.28-.27.57-.4.85.03-.05.06-.1.1-.14,2.63-2.31,5.48-4.21,8.26-6.3.15-.47.45-.89.66-1.33.57-1.03,1.17-2.04,1.74-3.06.81-1.45,1.63-2.9,2.46-4.34-1.22-.4-2.34-1.5-3.32-2.18-.12-.09-.17-.22-.2-.35-2.21,3.03-3.71,6.5-5.52,9.77-1.28,2.41-2.61,4.67-3.79,7.07ZM59.29,274.51c.89-.45,1.76-.96,2.64-1.45,4.69-2.71,9.36-5.49,14.04-8.23,2.06-1.27,4.06-2.64,6.08-3.99-1.08-.53-2.13-1.11-3.2-1.66-.8-.41-1.62-.81-2.4-1.27-.23-.15-.51-.3-.77-.47-5.86,4.34-12.43,7.81-17.89,12.68.58,1.44,1.04,2.91,1.49,4.39ZM56.45,269.3c.17,0,.36-.02.54-.03.34-.37.84-.68,1.15-1,.45-.38.91-.76,1.38-1.11,2.92-2.19,5.91-4.29,9-6.22,2.01-1.27,3.97-2.64,5.91-4.01.21-.11.42-.32.65-.49,0,0,0-.01,0-.02.37-.99,1.09-1.82,1.65-2.72.56-.83,1.11-1.67,1.68-2.5.28-.4.56-.81.83-1.22-.17.01-.35.02-.52.03-2.86.15-5.69.13-8.54.2-.18,0-.32-.02-.45-.05-.31.24-.64.47-.96.69-1.53,1.03-3.1,2.01-4.65,3.01-3.1,1.95-6.12,4.01-9.23,5.94-.77.43-1.49,1.02-2.3,1.38-.17.42-.56.87-.69,1.2-1.42,2.49-2.83,4.97-4.22,7.47,2.93.02,5.84-.54,8.77-.55ZM83.18,260.08s.08-.05.12-.08c.91-1.11,1.52-2.44,2.31-3.64,1.49-2.36,3.09-4.64,4.71-6.9,2.43-3.35,5.08-6.55,7.31-10.04-4.19,2.07-8.22,4.49-12.13,7-1.12.72-2.23,1.46-3.35,2.17-.41.26-.81.52-1.21.77,0,.1-.04.2-.1.29-.28.45-.56.9-.86,1.32-1.22,1.83-2.52,3.61-3.66,5.49,2.21,1.34,4.54,2.47,6.86,3.62ZM48.69,258.08c.76.49,2.92,2.62,3.73,1.9,1.98-1.21,3.94-2.44,5.86-3.73,3.56-2.37,7.26-4.54,10.75-7.01-.11-.79.16-1.85.2-2.48.24-1.36.49-2.73.77-4.08-3.18,2.18-6.18,4.62-9.31,6.86-2.22,1.58-4.55,3.01-6.82,4.5-1.85,1.26-3.94,2.36-5.57,3.86-.01.02-.03.04-.05.06.16-.01.32.02.44.12ZM78.37,248.88c.49-.06,1.05.02,1.5-.22,5.29-3.4,10.54-6.87,16.14-9.76-8.36.66-16.65,2.02-24.96,3.15.13.13.2.31.16.49-.4,2.15-.99,4.34-1.02,6.5,2.18-.02,4.3-.09,6.46-.11.57,0,1.15-.03,1.72-.06Z"/>
      </g>
      <g>
        <path class="cls-12" d="M330.12,306.76s0,0,.01,0c-.01,2.51-.22,5-.22,7.51-.03,1.4-.07,2.8-.08,4.2-.05,2.52.08,5.04-.14,7.55-.4-.61-.8-1.21-1.18-1.84-1.34-2.19-2.52-4.53-3.83-6.75.56-1.19.36-3.93.46-4.71.03-1.67.17-3.34.29-5,.58-.09,1.13-.29,1.7-.4.99-.22,2-.37,3-.55Z"/>
        <path class="cls-12" d="M328.97,326.95c-.27-.16-.53-.33-.8-.5-2.24-1.46-4.32-3.07-6.55-4.63-3.02-2.19-6.28-4.1-9.02-6.67.14,0,.27-.05.37-.15.8-.89,2.03-1.86,2.57-3.02,1.32,1,2.67,1.99,4.01,2.98.94.69,1.87,1.41,2.82,2.1.41.26.79.62,1.23.82,1.73,3.01,3.26,6.07,5.24,8.97.04.05.08.08.13.12Z"/>
        <path class="cls-12" d="M318.32,280.04s.05.08.07.13c-1.42,2.16-2.83,4.34-4.43,6.36-1.73-1.36-3.34-2.86-5-4.3-.39-.35-.8-.68-1.21-1.01-.08-.07-.17-.11-.27-.13-.2-.43-.41-.86-.61-1.3-.57-1.2-1.17-2.39-1.75-3.59-2.01-4.2-3.93-8.49-5.47-12.9,3.19,2.64,6.04,5.67,9.07,8.48,2.05,1.89,4.11,3.76,6.27,5.52,1.1.93,2.34,1.7,3.33,2.74Z"/>
        <path class="cls-12" d="M306.65,282.05c.18.48.03,1.02.03,1.52-.04.57-.08,1.15-.15,1.72-.24,2.15-.43,4.26-.68,6.42-2.14-.3-4.25-1.15-6.33-1.81-.17-.06-.37-.02-.51.09-.1-8.38-.44-16.78-.07-25.16,2.18,5.91,4.97,11.55,7.71,17.22Z"/>
        <path class="cls-12" d="M324.29,307.29c-.02.18-.02.38-.04.54-.35,2.91-.15,5.86-.52,8.77-2.31-1.68-4.6-3.39-6.9-5.1-.31-.17-.71-.61-1.1-.83-.26-.85-.75-1.63-1.09-2.45-1.53-3.33-3.2-6.58-4.76-9.89-.81-1.66-1.59-3.33-2.42-4.98-.18-.35-.37-.7-.57-1.04.05-.13.09-.27.11-.44.28-2.83.64-5.63.85-8.5.01-.17.02-.35.03-.52.37.32.74.65,1.11.97.75.66,1.52,1.32,2.28,1.97.82.66,1.56,1.49,2.5,1.97h.02c.14.24.32.48.4.7,1.12,2.09,2.24,4.2,3.25,6.36,1.54,3.31,3.26,6.53,5.07,9.69.3.51.61,1.01.94,1.51.28.35.52.88.85,1.27Z"/>
        <path d="M330.93,305.42c.61,1.28.3,2.7.29,4.06-.14,2.72-.15,5.43-.21,8.14-.07,2.76.07,5.52-.14,8.28-.16.9.08,3-1.31,2.68-2.97-1.48-5.62-3.78-8.32-5.61-2.93-2.07-5.97-4-8.74-6.31-1.63-1.2-2.54-3.01-3.38-4.8-1.16-2.38-2.3-4.77-3.46-7.15-1.79-3.74-4.01-7.26-6.03-10.88-.59-1.2-1.42-2.34-1.75-3.65-.06-.57-.04-1.14-.06-1.71-.03-7.62-.4-15.24-.06-22.85.04-1.06.09-2.12.08-3.18.01-.28-.03-.57.03-.84.1-.38.6-.54.9-.3.19,0,.37.12.51.23.33.26.66.52.99.78.96.77,1.88,1.6,2.78,2.45,2.32,2.19,4.61,4.45,6.94,6.63,2.06,1.87,4.11,3.74,6.29,5.47.99.82,2.1,1.51,2.96,2.46,1.08,1.98,2.03,4.04,3.07,6.05,1.22,2.47,2.22,5.05,3.35,7.57,1.79,4.14,3.65,8.26,5.27,12.47ZM330.13,306.76s0,0-.01,0c-1,.19-2,.33-3,.55-.57.12-1.12.31-1.7.4-.12,1.66-.26,3.33-.29,5-.1.78.1,3.53-.46,4.71,1.32,2.22,2.49,4.56,3.83,6.75.38.63.78,1.23,1.18,1.84.21-2.51.09-5.03.14-7.55.02-1.4.06-2.8.08-4.2,0-2.51.21-5,.22-7.51ZM329.55,327.3c.02-.1.03-.2.04-.3-.16.08-.35.09-.51.02.16.09.31.19.48.28ZM328.17,326.45c.26.17.53.34.8.5-.04-.03-.09-.07-.13-.12-1.97-2.89-3.5-5.95-5.24-8.97-.44-.2-.83-.56-1.23-.82-.95-.69-1.88-1.41-2.82-2.1-1.34-.98-2.68-1.97-4.01-2.98-.54,1.16-1.78,2.13-2.57,3.02-.1.1-.24.15-.37.15,2.74,2.57,6,4.48,9.02,6.67,2.23,1.56,4.32,3.16,6.55,4.63ZM329.78,305.65c-.34-.94-.74-1.87-1.12-2.8-2.12-4.99-4.31-9.96-6.44-14.95-1.01-2.2-2.12-4.36-3.22-6.52-.65,1-1.36,1.98-2.03,2.97-.51.75-1,1.51-1.55,2.22-.18.21-.36.47-.56.71,3.59,6.35,6.23,13.29,10.39,19.31,1.5-.4,3.02-.67,4.54-.94ZM324.26,307.83c.02-.17.02-.36.04-.54-.32-.39-.57-.92-.85-1.27-.32-.5-.64-1-.94-1.51-1.82-3.16-3.53-6.39-5.07-9.69-1.01-2.16-2.13-4.26-3.25-6.36-.08-.22-.26-.46-.4-.7h-.02c-.94-.49-1.67-1.31-2.5-1.97-.76-.65-1.52-1.31-2.28-1.97-.37-.32-.74-.65-1.11-.97-.01.17-.02.35-.03.52-.2,2.86-.56,5.67-.85,8.5-.02.18-.06.32-.11.44.2.34.39.69.57,1.04.83,1.65,1.61,3.32,2.42,4.98,1.56,3.31,3.23,6.57,4.76,9.89.33.82.83,1.6,1.09,2.45.4.22.8.66,1.1.83,2.3,1.71,4.59,3.42,6.9,5.1.38-2.9.18-5.86.52-8.77ZM318.38,280.17s-.04-.08-.07-.13c-.99-1.04-2.23-1.81-3.33-2.74-2.16-1.76-4.23-3.64-6.27-5.52-3.03-2.82-5.88-5.84-9.07-8.48,1.54,4.41,3.45,8.7,5.47,12.9.58,1.2,1.18,2.39,1.75,3.59.2.43.41.86.61,1.3.1.02.19.06.27.13.41.33.82.66,1.21,1.01,1.66,1.44,3.27,2.94,5,4.3,1.6-2.02,3.01-4.21,4.43-6.36ZM312.17,314.16c.58-.7,2.96-2.58,2.34-3.47-.96-2.11-1.94-4.21-2.98-6.28-1.92-3.82-3.61-7.76-5.64-11.52-.8.02-1.82-.38-2.43-.5-1.32-.4-2.65-.82-3.96-1.26,1.77,3.43,3.83,6.7,5.67,10.08,1.3,2.4,2.43,4.88,3.63,7.32,1.03,1.99,1.86,4.2,3.15,6.01.02.02.04.03.05.05,0-.16.06-.31.18-.42ZM306.68,283.57c0-.5.15-1.04-.03-1.52-2.73-5.67-5.53-11.3-7.71-17.22-.37,8.38-.03,16.78.07,25.16.14-.11.33-.16.51-.09,2.08.66,4.19,1.51,6.33,1.81.25-2.17.44-4.27.68-6.42.06-.57.11-1.15.15-1.72Z"/>
      </g>
      <g>
        <path d="M369.14,119.35c-.25-.25-.25-.65-.02-.91.66-.7,1.38-1.36,2-2.08.36-.35.62-.96,1.16-1.01.35-.03.65.28.66.62-.07.58-.73.97-1.04,1.45-.6.67-1.25,1.27-1.87,1.92-.24.26-.65.25-.9.02Z"/>
        <path class="cls-11" d="M374.15,94.38c1.33-1.85,2.76-3.63,4.15-5.45.19,2.18.17,4.41.07,6.62,0,3.2-.09,6.41-.16,9.62-.06,1.81.07,3.65-.03,5.47-.38-.06-.76-.12-1.14-.17-1.54-.19-3.09-.32-4.6-.67-.45-.07-1.32-.4-1.98-.39.33-2.22.39-4.48.57-6.71.22-1.53.45-2.98.63-4.52.07-.16.08-.3.08-.42.09-.12.17-.23.26-.32.74-1.01,1.46-1.99,2.16-3.05Z"/>
        <path d="M367.07,118.45c-.27-.2-.34-.61-.13-.89.47-.58.94-1.16,1.41-1.74.59-.53,1.42-2.49,2.32-1.45.19.31.06.68-.21.9-.43.51-.86,1.04-1.28,1.56-.56.47-1.26,2.21-2.11,1.62Z"/>
        <path class="cls-11" d="M359.75,101.79c3.47-1.04,7.18-1.66,10.53-3.04-.19,1.74-.56,3.46-.64,5.21.01,1.78-.29,3.53-.42,5.3-2.39,3.52-5.27,6.67-8.04,9.88-1.72,2.12-3.43,4.25-5.15,6.36-5.64,6.9-11.02,13.99-16.75,20.81-1.6,1.95-3.21,3.89-5.02,5.66-.42.43-.77.86-1.22,1.28-.18.07-.3.22-.37.37-3.43.89-6.89,1.66-10.31,2.59-.2-2.5-.11-5.01.05-7.5.07-.86.07-1.73.21-2.58.06-.64.04-1.34.52-1.83,3.96-5.34,8.46-10.28,13.04-15.1,4.12-4.41,8.01-9.03,12.1-13.46,4.09-4.42,7.89-9.11,11.47-13.94Z"/>
        <path class="cls-11" d="M359.67,100.49c-1.02-2.27-1.88-4.63-3.07-6.81-.2-.52-.45-1.01-.75-1.49.03,0,.06-.01.09-.03.93-.25,1.88-.43,2.84-.54,5.99-1.03,11.97-2.11,18.01-2.83-1.68,2.17-3.33,4.32-4.89,6.6-.35.47-.71,1.01-1.13,1.53-.13.16-.3.34-.45.53-.37.03-.86.17-1.49.53-3,.99-6.11,1.63-9.15,2.51Z"/>
        <path class="cls-11" d="M369.12,118.44c-.24.25-.24.65.02.91.24.23.66.24.9-.02.61-.64,1.27-1.25,1.87-1.92.31-.48.97-.86,1.04-1.45-.01-.34-.31-.65-.66-.62-.55.05-.81.66-1.16,1.01-.63.73-1.34,1.38-2,2.08ZM366.94,117.56c-.21.28-.14.69.13.89.84.59,1.55-1.15,2.11-1.62.42-.52.85-1.05,1.28-1.56.27-.22.41-.59.21-.9-.89-1.05-1.73.92-2.32,1.45-.47.58-.95,1.16-1.41,1.74ZM336.86,163.46c-.59-1.36-1.13-2.74-1.59-4.16-.25-1.14-.65-2.23-1.06-3.32-.18-.54-.18-1.15-.38-1.68,0-.02,0-.02,0-.04.59-.44,1.15-1.31,1.61-1.67,1.86-1.81,3.5-3.85,5.14-5.86,3.53-4.17,6.89-8.48,10.27-12.76,5.13-6.4,10.21-12.83,15.62-18.99,1.1-1.5,2.37-2.9,3.41-4.44.24.15.61.18.91.17,2.27.59,4.6.84,6.92,1.14-1.35,2.12-3.04,4.03-4.61,6-5.34,7.24-11.34,13.96-16.87,21.05-1.77,2.11-3.38,4.34-5.09,6.49-2.71,3.16-5.25,6.37-7.72,9.74-1.84,2.57-3.67,5.14-5.82,7.47-.25.28-.49.58-.74.85Z"/>
        <path class="cls-11" d="M332.69,154.96c.21,1.16.61,2.27,1.01,3.38.49,2.03,1.26,3.97,2.1,5.88-.38.13-.76.27-1.14.39-.16-.02-.33,0-.49.13-.08.01-.15.04-.22.04-.12.01-.23.08-.33.15-5.81,1.07-11.7,1.24-17.59,1.23.4-.5.77-1,1.12-1.54,1.7-2.34,3.56-4.59,5.03-7.09,1.16-.06,3.02-.79,3.65-.94,1.32-.34,2.66-.54,3.96-.91.97-.22,1.93-.47,2.89-.72Z"/>
        <path d="M342.61,98.04c-.12-.82,1.12-1.02,1.26-.2.12.92.36,1.81.42,2.73.02.83-1.24.87-1.27.03-.06-.86-.3-1.71-.41-2.56Z"/>
        <path class="cls-11" d="M330.33,87.84c.06-.08.13-.17.19-.26.52.5,1.02,1,1.57,1.46,1.68,1.36,3.02,3.18,4.87,4.33.09.57.28,1.12.4,1.68.24.95.41,1.91.6,2.87.7,3.37,1.16,6.78,2.1,10.1,0,.05.01.1.02.15-.28.32-.56.64-.84.96-3.62,4.32-7.41,8.5-11.16,12.72-.09-.84-.14-1.69-.22-2.54-.61-5.8-.97-11.63-1.42-17.44-.11-2.43-.58-4.82-.7-7.25.05-.08.07-.19.07-.29.19-.28.35-.61.52-.83.75-1.08,1.48-2.17,2.24-3.25.6-.78,1.16-1.6,1.74-2.41Z"/>
        <path d="M340.95,101.36c-.16-.84-.4-1.68-.48-2.54-.12-.82,1.14-1.02,1.26-.2.08.86.31,1.7.48,2.55.13.82-1.11,1.02-1.26.2Z"/>
        <path class="cls-11" d="M343.87,97.83c-.14-.82-1.38-.62-1.26.2.1.86.34,1.7.41,2.56.04.84,1.29.79,1.27-.03-.06-.92-.31-1.82-.42-2.73ZM340.47,98.82c.08.86.32,1.69.48,2.54.15.82,1.38.62,1.26-.2-.16-.85-.4-1.68-.48-2.55-.13-.82-1.38-.62-1.26.2ZM340.51,104.42c-.75-3.82-1.42-7.63-2.3-11.42,1-.84,2.16-2.53,2.7-3.02.69-.9,1.52-1.72,2.23-2.62.34,1.39.59,2.81.88,4.22.63,3.29,1.27,6.58,1.93,9.87-1.6,1.86-3.22,3.7-4.83,5.55-.2-.86-.45-1.71-.61-2.58Z"/>
        <path class="cls-11" d="M314.76,165.73c-.38-3.42-.62-6.87-.84-10.31-.35-4.3-.72-8.67-.29-12.98.15.04.3.09.45.13,2.47.7,4.96.89,7.45,1.58.06.01.11.04.15.06-.23.48-.25,1.05-.3,1.57-.18,1.35-.24,2.71-.29,4.08-.14,1.38-.13,2.77-.09,4.16.05.91-.03,1.88.16,2.79-.6.73-.96,1.7-1.58,2.43-1.28,1.64-2.48,3.36-3.73,5.03-.33.51-.72.98-1.09,1.45Z"/>
        <path class="cls-11" d="M334.03,78.63c2.16,1.93,4.65,3.44,6.75,5.48.56.59,1.37.95,1.88,1.57,0,.04.03.09.03.13-.15.16-.27.37-.4.54-1.68,1.9-3.21,3.98-5.03,5.75-1.63-1.28-2.96-2.89-4.57-4.2-.61-.49-1.13-1.14-1.74-1.63-.24-3.45-1.13-6.87-1.2-10.31,1.43.89,2.92,1.68,4.27,2.68Z"/>
        <path d="M321.5,139.51c-.27-.2-.35-.62-.13-.89,1.05-1.27,2.06-2.57,3.09-3.85.53-.59,1.46.16.98.81-.27.3-.5.64-.75.95-.76.96-1.53,1.9-2.31,2.86-.22.27-.61.34-.89.12Z"/>
        <path d="M318.68,138.68c-.35-.33-.17-.8.15-1.08,1.07-1.26,2.08-2.58,3.18-3.82.69-1.13,2.01-.26,1.2.6-1.02,1.08-1.91,2.29-2.88,3.42-.42.45-.93,1.49-1.64.89Z"/>
        <path class="cls-11" d="M321.37,138.62c-.22.27-.14.69.13.89.28.21.67.15.89-.12.77-.95,1.55-1.9,2.31-2.86.25-.32.48-.65.75-.95.48-.64-.45-1.4-.98-.81-1.04,1.28-2.05,2.58-3.09,3.85ZM318.82,137.6c-.32.28-.49.75-.15,1.08.71.6,1.22-.44,1.64-.89.96-1.13,1.85-2.34,2.88-3.42.81-.86-.5-1.73-1.2-.6-1.09,1.25-2.11,2.56-3.18,3.82ZM313.95,141.21c2.24-3.56,5.11-6.7,7.73-9.98,5.68-6.88,11.81-13.36,17.59-20.14,1.74-2.1,3.56-4.14,5.38-6.16,2.97-3.34,5.76-6.84,8.69-10.22.5-.57.96-1.18,1.48-1.74.97,1.76,1.82,3.6,2.57,5.47.36.81.68,1.64,1.09,2.46.02.12.05.22.1.32-.12.16-.24.35-.36.51-.44.59-.88,1.16-1.32,1.75-1.8,2.33-3.65,4.63-5.54,6.9-5.51,6.16-10.99,12.37-16.57,18.46-4.36,4.58-8.58,9.27-12.37,14.34-.02,0-.03-.02-.05-.02-1.83-.77-3.9-.89-5.85-1.28-.85-.23-1.72-.4-2.57-.65Z"/>
        <path d="M322.5,100.09c-.01-.52-.07-1.05-.03-1.58.1-.82,1.35-.69,1.27.14,0,1.03.05,2.05.02,3.09,0,.35-.27.64-.62.65-.34,0-.66-.27-.66-.62,0-.56,0-1.12,0-1.68Z"/>
        <path d="M319.75,98.84c0-.83,1.25-.86,1.27-.03.07,1.22.06,2.45.14,3.67.02.83-1.23.87-1.27.03-.08-1.22-.08-2.45-.14-3.67Z"/>
        <path class="cls-11" d="M322.47,98.51c-.04.53.02,1.06.03,1.58,0,.56,0,1.12,0,1.68,0,.35.32.63.66.62.35,0,.62-.3.62-.65.03-1.03-.02-2.06-.02-3.09.08-.83-1.17-.96-1.27-.14ZM321.02,98.81c-.03-.83-1.28-.8-1.27.03.06,1.22.06,2.45.14,3.67.04.83,1.29.79,1.27-.03-.08-1.22-.08-2.45-.14-3.67ZM318.91,106.77c-.22-2.69-.27-5.4-.59-8.08-.12-1.13-.29-2.25-.4-3.39-.02-.4-.13-.81-.19-1.22.6.16,1.24.18,1.86.21,1.3.28,2.65.08,3.98.15.26-.03.59.06.91.12-.04.63.12,1.4.14,1.88.82,6.16.98,12.39,1.55,18.57.21,1.87.38,3.74.53,5.61.11.59.02,1.77.31,2.43-1.98,2.25-3.93,4.51-5.85,6.81-.02-.33-.14-.69-.15-.99-.31-2.29-.58-4.59-.81-6.88-.68-5.05-1-10.14-1.28-15.23Z"/>
        <path class="cls-11" d="M318.08,92.84c-.06,0-.12-.02-.17-.05,2.19-3.67,4.41-7.35,6.86-10.85,1.12-1.59,2.13-3.24,3.28-4.81.15-.18.29-.38.43-.56.24,3.17.86,6.28,1.18,9.44.17.62-.38,1.03-.68,1.51-.72,1.06-1.53,2.07-2.24,3.14-.61.88-1.22,1.77-1.8,2.66-.24-.06-.5-.08-.7-.09-.85-.08-1.69-.13-2.54-.04-1.21-.07-2.43-.11-3.62-.35Z"/>
        <path d="M374.15,94.38c-.71,1.05-1.43,2.04-2.16,3.05-.08.08-.17.2-.26.32,0,.13-.01.26-.08.42-.18,1.54-.41,3-.63,4.52-.17,2.23-.23,4.49-.57,6.71.65-.02,1.53.32,1.98.39,1.52.35,3.07.48,4.6.67.39.05.77.12,1.14.17.11-1.82-.02-3.65.03-5.47.07-3.21.15-6.42.16-9.62.1-2.21.13-4.43-.07-6.62-1.39,1.82-2.82,3.61-4.15,5.45ZM355.85,92.19c.3.47.55.97.75,1.49,1.19,2.19,2.05,4.54,3.07,6.81,3.04-.88,6.15-1.52,9.15-2.51.64-.36,1.12-.5,1.49-.53.15-.19.32-.36.45-.53.42-.51.78-1.06,1.13-1.53,1.56-2.27,3.22-4.43,4.89-6.6-6.04.71-12.01,1.8-18.01,2.83-.96.12-1.91.3-2.84.54-.03.01-.06.02-.09.03ZM333.83,154.3c.21.53.21,1.14.38,1.68.41,1.09.81,2.18,1.06,3.32.46,1.42,1,2.8,1.59,4.16.25-.28.49-.57.74-.85,2.15-2.33,3.99-4.91,5.82-7.47,2.47-3.37,5.01-6.58,7.72-9.74,1.71-2.15,3.33-4.38,5.09-6.49,5.53-7.09,11.53-13.81,16.87-21.05,1.56-1.97,3.26-3.87,4.61-6-2.32-.31-4.64-.55-6.92-1.14-.3.01-.67-.01-.91-.17-1.04,1.54-2.31,2.94-3.41,4.44-5.41,6.16-10.49,12.59-15.62,18.99-3.38,4.28-6.74,8.59-10.27,12.76-1.65,2.01-3.28,4.05-5.14,5.86-.46.37-1.02,1.23-1.61,1.67,0,.02,0,.02,0,.04ZM322.19,157.53c-1.47,2.5-3.33,4.74-5.03,7.09-.35.54-.72,1.04-1.12,1.54,5.89.01,11.79-.16,17.59-1.23.09-.07.2-.14.33-.15.07,0,.14-.03.22-.04.16-.12.33-.15.49-.13.39-.11.77-.25,1.14-.39-.84-1.91-1.61-3.85-2.1-5.88-.4-1.12-.8-2.22-1.01-3.38-.96.25-1.92.5-2.89.72-1.3.37-2.64.57-3.96.91-.63.15-2.49.88-3.65.94ZM323.14,144.3c-.48.49-.46,1.19-.52,1.83-.13.86-.14,1.72-.21,2.58-.16,2.5-.25,5-.05,7.5,3.42-.92,6.88-1.69,10.31-2.59.07-.15.2-.3.37-.37.44-.43.8-.85,1.22-1.28,1.81-1.77,3.42-3.71,5.02-5.66,5.72-6.83,11.11-13.92,16.75-20.81,1.72-2.11,3.43-4.24,5.15-6.36,2.77-3.21,5.65-6.37,8.04-9.88.13-1.77.43-3.52.42-5.3.08-1.75.45-3.46.64-5.21-3.35,1.38-7.06,2-10.53,3.04-3.59,4.84-7.38,9.52-11.47,13.94-4.09,4.44-7.98,9.05-12.1,13.46-4.58,4.82-9.07,9.76-13.04,15.1ZM338.21,93c.88,3.79,1.55,7.6,2.3,11.42.16.87.41,1.72.61,2.58,1.62-1.85,3.23-3.7,4.83-5.55-.67-3.29-1.31-6.58-1.93-9.87-.29-1.41-.54-2.82-.88-4.22-.7.91-1.54,1.72-2.23,2.62-.54.49-1.71,2.18-2.7,3.02ZM321.52,144.15c-2.48-.69-4.98-.87-7.45-1.58-.15-.04-.3-.09-.45-.13-.43,4.31-.05,8.68.29,12.98.22,3.44.46,6.88.84,10.31.37-.48.75-.94,1.09-1.45,1.25-1.68,2.45-3.39,3.73-5.03.62-.73.97-1.7,1.58-2.43-.19-.9-.1-1.88-.16-2.79-.05-1.4-.05-2.78.09-4.16.05-1.36.11-2.73.29-4.08.04-.52.07-1.09.3-1.57-.04-.02-.09-.05-.15-.06ZM313.95,141.21c.85.25,1.71.42,2.57.65,1.94.39,4.02.51,5.85,1.28.02,0,.03.02.05.02,3.78-5.07,8.01-9.76,12.37-14.34,5.58-6.09,11.06-12.29,16.57-18.46,1.89-2.26,3.75-4.56,5.54-6.9.44-.59.88-1.16,1.32-1.75.13-.16.24-.34.36-.51-.04-.1-.08-.21-.1-.32-.42-.82-.74-1.65-1.09-2.46-.75-1.86-1.6-3.71-2.57-5.47-.51.56-.98,1.17-1.48,1.74-2.93,3.38-5.72,6.87-8.69,10.22-1.82,2.03-3.64,4.06-5.38,6.16-5.78,6.78-11.91,13.26-17.59,20.14-2.61,3.28-5.49,6.42-7.73,9.98ZM325.76,94.62c.12,2.42.58,4.82.7,7.25.45,5.81.8,11.64,1.42,17.44.08.85.13,1.69.22,2.54,3.75-4.21,7.54-8.4,11.16-12.72.28-.32.56-.64.84-.96,0-.05-.02-.09-.02-.15-.94-3.31-1.4-6.73-2.1-10.1-.2-.96-.36-1.92-.6-2.87-.12-.55-.31-1.11-.4-1.68-1.84-1.15-3.19-2.97-4.87-4.33-.55-.45-1.06-.96-1.57-1.46-.06.09-.13.18-.19.26-.57.81-1.14,1.63-1.74,2.41-.76,1.08-1.5,2.17-2.24,3.25-.17.21-.33.54-.52.83,0,.1-.02.21-.07.29ZM334.03,78.63c-1.35-1-2.84-1.79-4.27-2.68.07,3.44.96,6.86,1.2,10.31.61.49,1.13,1.14,1.74,1.63,1.61,1.31,2.94,2.92,4.57,4.2,1.82-1.77,3.35-3.85,5.03-5.75.13-.16.25-.38.4-.54,0-.04-.03-.09-.03-.13-.51-.62-1.32-.98-1.88-1.57-2.1-2.04-4.59-3.54-6.75-5.48ZM317.91,95.3c.11,1.14.28,2.26.4,3.39.32,2.68.38,5.39.59,8.08.28,5.09.6,10.18,1.28,15.23.23,2.3.5,4.6.81,6.88.01.3.12.66.15.99,1.92-2.3,3.87-4.56,5.85-6.81-.29-.67-.19-1.84-.31-2.43-.15-1.88-.32-3.74-.53-5.61-.58-6.18-.73-12.41-1.55-18.57-.01-.48-.17-1.25-.14-1.88-.32-.06-.64-.15-.91-.12-1.33-.07-2.67.13-3.98-.15-.62-.03-1.26-.05-1.86-.21.06.41.17.81.19,1.22ZM324.78,81.94c-2.46,3.51-4.67,7.19-6.86,10.85.05.02.1.04.17.05,1.19.24,2.42.28,3.62.35.85-.08,1.7-.04,2.54.04.2.01.46.03.7.09.59-.89,1.19-1.77,1.8-2.66.7-1.07,1.51-2.08,2.24-3.14.3-.48.85-.9.68-1.51-.32-3.16-.94-6.27-1.18-9.44-.14.19-.28.39-.43.56-1.15,1.57-2.17,3.22-3.28,4.81ZM316.49,94.41c-.26-1.05.05-2.05.68-2.89.61-1.11,1.34-2.14,1.97-3.23,1.99-3.32,4.16-6.51,6.35-9.7.69-1.07,1.44-2.1,2.22-3.11.2-.37.6-.92,1.01-1.07.17-.14.41-.19.72-.09.9.36,1.69,1.04,2.5,1.51,1.61.81,3.05,1.86,4.37,3.07,2.34,1.62,4.43,3.54,6.64,5.31,1.37.84,1.21,2.69,1.68,4.05.67,3.16,1.2,6.35,1.89,9.51.14.82.3,1.63.46,2.45.92-1.08,1.84-2.17,2.74-3.27,1.2-1.39,2.39-2.78,3.56-4.19.58-.61,1.54-2.06,2.37-1.87.56-.16,1.27-.22,1.61-.34,3.95-.6,7.88-1.32,11.82-2.01,2.63-.39,5.27-.72,7.91-1.06,1.74-.23,2.53-.51,2.6,1.7.25,4.67-.05,9.35-.08,14.02-.05,1.81-.06,3.6-.03,5.41-.08,1.15.23,2.45-.41,3.47-1.47,2.31-3.24,4.41-4.96,6.53-5.07,6.85-10.68,13.26-16,19.91-1.97,2.51-3.97,5-5.9,7.55-2.02,2.44-4.12,4.82-5.97,7.38-2.18,2.87-4.17,5.89-6.51,8.62-1.02,1.04-1.78,2.36-3.02,3.13-.45.15-1.29.55-2.02.73-.23.13-.5.19-.77.23-.86.13-1.69.24-2.54.41-3.83.62-7.73.79-11.61.82-1.27-.18-5.56.48-6.04-.38-.41-.85-.28-1.88-.43-2.79-.39-3.39-.48-6.8-.82-10.2-.24-4.25-.66-8.56-.02-12.79.6-1.37,1.62-2.53,2.52-3.73,1.58-2.11,3.27-4.14,4.95-6.17.18-.22.36-.44.54-.65-.28-.02-.53-.22-.57-.5-.78-5.89-1.54-11.8-1.93-17.73-.42-6.02-.58-12.07-1.49-18.04Z"/>
      </g>
      <g>
        <path d="M70.78,127.18c-.36.04-.67-.21-.71-.56-.13-.95-.19-1.92-.36-2.87-.05-.5-.36-1.08-.05-1.54.2-.29.63-.33.89-.12.41.42.29,1.18.47,1.72.14.88.2,1.77.32,2.66.05.35-.21.67-.55.71Z"/>
        <path class="cls-10" d="M54.49,107.61c-.6-2.19-1.1-4.43-1.64-6.65,1.82,1.22,3.54,2.64,5.19,4.1,2.49,2.02,4.94,4.09,7.39,6.16,1.38,1.18,2.88,2.24,4.23,3.46-.28.26-.57.51-.85.78-1.11,1.08-2.19,2.2-3.41,3.16-.33.31-1.14.78-1.54,1.3-1.51-1.65-3.24-3.12-4.87-4.65-1.05-1.13-2.04-2.22-3.13-3.33-.08-.15-.18-.25-.28-.33-.04-.14-.07-.28-.08-.4-.32-1.2-.63-2.39-1.01-3.6Z"/>
        <path d="M68.78,128.23c-.33.08-.69-.12-.78-.46-.16-.73-.31-1.46-.47-2.19-.04-.79-1.05-2.67.33-2.71.36.04.57.38.57.73.12.66.27,1.32.41,1.97.02.73.93,2.37-.06,2.66Z"/>
        <path class="cls-10" d="M51.22,123.47c1.37-3.35,3.22-6.63,4.25-10.1,1.24,1.24,2.34,2.61,3.65,3.77,1.39,1.11,2.56,2.44,3.86,3.65,1.24,4.07,1.89,8.29,2.65,12.46.57,2.67,1.15,5.34,1.71,8,1.83,8.72,3.97,17.36,5.69,26.1.51,2.47,1.01,4.94,1.26,7.46.08.6.18,1.14.23,1.75-.05.18-.02.37.06.52-1.46,3.23-3.03,6.41-4.46,9.64-2.07-1.41-3.97-3.05-5.81-4.75-.62-.6-1.3-1.14-1.88-1.78-.46-.45-1.02-.87-1.1-1.55-1.67-6.44-2.69-13.04-3.57-19.63-.85-5.98-2-11.9-2.88-17.87-.87-5.96-2.14-11.86-3.65-17.69Z"/>
        <path class="cls-10" d="M50.16,122.72c-2.41-.63-4.78-1.44-7.23-1.89-.53-.17-1.07-.28-1.63-.35.01-.02.03-.05.04-.08.39-.88.85-1.73,1.36-2.55,2.96-5.31,5.87-10.64,9.1-15.79.64,2.67,1.27,5.31,2.06,7.95.14.56.35,1.19.48,1.84.05.2.08.45.13.68-.21.31-.4.78-.52,1.5-1.11,2.96-2.57,5.78-3.79,8.7Z"/>
        <path class="cls-10" d="M70.07,126.63c.05.34.36.6.71.56.33-.04.6-.36.55-.71-.12-.88-.18-1.77-.32-2.66-.18-.54-.06-1.3-.47-1.72-.27-.2-.7-.17-.89.12-.3.46,0,1.04.05,1.54.17.94.24,1.91.36,2.87ZM68,127.77c.08.34.45.54.78.46.99-.29.08-1.93.06-2.66-.14-.65-.28-1.32-.41-1.97,0-.35-.2-.69-.57-.73-1.37.04-.37,1.92-.33,2.71.15.73.31,1.46.47,2.19ZM84.85,180c-1.43-.39-2.84-.84-4.24-1.37-1.04-.52-2.14-.9-3.25-1.26-.53-.2-1.01-.58-1.55-.75-.01,0-.01-.02-.03-.03.03-.74-.29-1.72-.29-2.3-.24-2.59-.8-5.14-1.34-7.68-1.03-5.37-2.27-10.68-3.48-16.01-1.76-8.01-3.57-16-4.97-24.08-.47-1.8-.76-3.67-1.31-5.44.27-.09.52-.37.7-.6,1.88-1.4,3.54-3.05,5.23-4.67.81,2.38,1.22,4.9,1.78,7.35,2.29,8.7,3.75,17.59,5.8,26.34.53,2.7,1.25,5.36,1.85,8.04.76,4.09,1.67,8.08,2.74,12.12.85,3.04,1.69,6.09,2.16,9.22.06.38.14.74.2,1.11Z"/>
        <path class="cls-10" d="M75.61,177.91c1.04.56,2.15.95,3.27,1.34,1.88.89,3.88,1.52,5.89,2.06-.13.38-.26.76-.42,1.13-.12.11-.2.26-.21.46-.04.07-.06.14-.1.2-.07.1-.08.23-.09.35-2.81,5.19-6.38,9.89-10.09,14.47-.14-.62-.29-1.23-.49-1.84-.75-2.8-1.34-5.65-2.36-8.36.68-.94,1.28-2.85,1.56-3.43.56-1.24,1.24-2.41,1.77-3.65.43-.89.84-1.8,1.25-2.7Z"/>
        <path d="M37.53,134.46c-.72-.42-.09-1.52.63-1.11.79.49,1.64.86,2.39,1.39.66.5-.1,1.51-.77,1.01-.71-.49-1.52-.83-2.25-1.29Z"/>
        <path class="cls-10" d="M21.89,137.62c-.03-.1-.05-.21-.08-.31.71-.09,1.42-.17,2.12-.31,2.11-.45,4.38-.36,6.43-1.07.5.29,1.05.49,1.56.74.89.41,1.75.89,2.61,1.33,3.06,1.57,6.01,3.35,9.18,4.7.04.04.09.05.13.08.07.42.14.84.22,1.26,1.09,5.53,1.96,11.11,2.89,16.67-.72-.46-1.41-.95-2.11-1.42-4.9-3.16-9.66-6.55-14.46-9.85-1.96-1.44-4.12-2.58-6.08-4.01-.03-.09-.1-.17-.18-.24-.1-.33-.26-.66-.32-.92-.37-1.26-.76-2.52-1.12-3.78-.23-.96-.52-1.91-.79-2.86Z"/>
        <path d="M39.08,137.84c-.76-.4-1.56-.75-2.28-1.22-.72-.42-.08-1.52.63-1.11.72.48,1.52.82,2.28,1.23.71.41.1,1.51-.64,1.1Z"/>
        <path class="cls-10" d="M38.17,133.35c-.73-.41-1.35.69-.63,1.11.73.46,1.54.8,2.25,1.29.68.5,1.43-.51.77-1.01-.75-.53-1.61-.9-2.39-1.39ZM36.8,136.62c.72.48,1.52.82,2.28,1.22.73.4,1.35-.69.64-1.1-.76-.4-1.56-.75-2.28-1.23-.71-.41-1.35.69-.63,1.11ZM41.19,140.1c-3.44-1.81-6.83-3.68-10.33-5.38-.03-1.3-.61-3.27-.66-4-.27-1.1-.38-2.26-.64-3.38,1.3.61,2.56,1.3,3.83,1.96,2.96,1.58,5.92,3.14,8.9,4.69.44,2.41.86,4.83,1.29,7.25-.79-.38-1.61-.72-2.39-1.14Z"/>
        <path class="cls-10" d="M72.74,198.63c-2.91-1.85-5.73-3.83-8.55-5.82-3.57-2.43-7.2-4.88-10.29-7.92.13-.09.26-.17.39-.27,2.1-1.48,3.81-3.31,5.9-4.81.05-.04.09-.06.14-.08.23.48.66.86,1.04,1.22.94.99,1.97,1.89,2.99,2.79.99.98,2.07,1.84,3.18,2.68.74.53,1.45,1.21,2.27,1.63.19.93.72,1.82.9,2.75.47,2.03,1.05,4.04,1.57,6.06.19.58.31,1.18.45,1.76Z"/>
        <path class="cls-10" d="M17.05,128.95c2.86-.47,5.59-1.46,8.5-1.82.82-.07,1.6-.47,2.4-.48.04.02.08.04.12.05.03.21.12.44.17.64.42,2.5,1.08,4.99,1.32,7.52-2.02.47-4.11.49-6.14.92-.77.17-1.6.16-2.37.33-2.83-1.97-6.06-3.43-8.78-5.54,1.59-.55,3.14-1.22,4.76-1.64Z"/>
        <path d="M56.57,176.92c-.33.08-.7-.12-.78-.46-.33-1.61-.71-3.21-1.06-4.83-.13-.79,1.04-1.03,1.24-.26.07.4.18.79.27,1.18.27,1.19.52,2.39.78,3.59.07.34-.12.69-.46.77Z"/>
        <path d="M54.15,178.6c-.47.06-.73-.37-.75-.79-.31-1.62-.7-3.24-.98-4.87-.45-1.25,1.05-1.73,1.21-.56.2,1.48.58,2.93.86,4.39.09.61.57,1.66-.34,1.84Z"/>
        <path class="cls-10" d="M55.79,176.47c.07.34.45.54.78.46.34-.08.53-.43.46-.77-.26-1.2-.51-2.39-.78-3.59-.09-.39-.2-.78-.27-1.18-.2-.78-1.37-.53-1.24.26.35,1.61.72,3.21,1.06,4.83ZM53.4,177.81c.02.42.27.85.75.79.92-.17.43-1.23.34-1.84-.28-1.46-.66-2.91-.86-4.39-.16-1.17-1.66-.69-1.21.56.28,1.63.67,3.25.98,4.87ZM53.15,183.87c-1.37-3.97-2.01-8.19-2.92-12.28-1.79-8.74-2.98-17.58-4.63-26.34-.54-2.67-.98-5.37-1.42-8.06-.74-4.41-1.71-8.78-2.5-13.18-.14-.75-.32-1.49-.43-2.24,1.98.35,3.95.84,5.87,1.43.85.23,1.7.5,2.6.69.1.06.2.1.31.13.05.2.12.4.17.6.18.71.35,1.42.53,2.12.69,2.86,1.31,5.75,1.89,8.64,1.34,8.16,2.73,16.31,3.97,24.49.83,6.27,1.83,12.5,3.4,18.63-.02.01-.03,0-.05.02-1.75.94-3.15,2.48-4.67,3.75-.71.52-1.39,1.09-2.12,1.59Z"/>
        <path d="M26.51,151.4c-.42-.32-.86-.61-1.25-.97-.58-.59.31-1.48.91-.9.8.64,1.63,1.25,2.42,1.92.27.22.33.61.12.89-.21.27-.62.34-.89.12-.44-.35-.86-.71-1.3-1.06Z"/>
        <path d="M23.81,152.76c-.65-.52.11-1.51.77-1.01.99.72,1.95,1.49,2.95,2.2.66.5-.1,1.51-.77,1.01-1-.7-1.96-1.48-2.95-2.2Z"/>
        <path class="cls-10" d="M25.26,150.43c.39.36.84.65,1.25.97.44.35.86.71,1.3,1.06.27.22.69.15.89-.12.21-.28.15-.67-.12-.89-.79-.67-1.61-1.28-2.42-1.92-.6-.58-1.48.31-.91.9ZM24.59,151.74c-.66-.5-1.43.5-.77,1.01.99.72,1.95,1.49,2.95,2.2.67.49,1.43-.51.77-1.01-1-.7-1.95-1.48-2.95-2.2ZM29.46,158.39c-2.23-1.52-4.37-3.18-6.66-4.61-.96-.62-1.94-1.19-2.89-1.81-.33-.24-.71-.41-1.06-.62.5-.36.92-.85,1.34-1.31,1.03-.84,1.73-2.01,2.61-3,.14-.22.41-.42.66-.63.46.42,1.17.78,1.55,1.07,5.31,3.23,10.26,7.02,15.43,10.45,1.59,1.01,3.15,2.05,4.7,3.11.53.28,1.39,1.09,2.09,1.29.51,2.95,1.04,5.89,1.63,8.83-.27-.19-.62-.33-.86-.51-1.98-1.19-3.94-2.43-5.87-3.69-4.36-2.64-8.52-5.59-12.66-8.56Z"/>
        <path class="cls-10" d="M18.09,150.29s-.09.08-.14.1c-1.48-4.01-2.95-8.04-4.14-12.16-.53-1.86-1.18-3.69-1.68-5.57-.05-.23-.11-.46-.17-.69,2.62,1.8,5.43,3.28,8.09,5.01.59.26.56.94.75,1.48.37,1.23.65,2.49,1.04,3.71.31,1.03.61,2.06.94,3.07-.2.15-.38.34-.51.49-.6.61-1.16,1.24-1.63,1.95-.81.9-1.61,1.83-2.55,2.6Z"/>
        <path d="M54.49,107.61c.38,1.21.69,2.39,1.01,3.6.01.12.05.25.08.4.1.08.2.17.28.33,1.09,1.11,2.07,2.2,3.13,3.33,1.63,1.54,3.35,3,4.87,4.65.4-.52,1.21-.99,1.54-1.3,1.22-.96,2.3-2.08,3.41-3.16.28-.27.57-.52.85-.78-1.35-1.22-2.86-2.28-4.23-3.46-2.45-2.07-4.9-4.15-7.39-6.16-1.65-1.47-3.37-2.88-5.19-4.1.54,2.22,1.04,4.46,1.64,6.65ZM41.3,120.48c.55.06,1.1.18,1.63.35,2.45.45,4.82,1.26,7.23,1.89,1.22-2.92,2.68-5.74,3.79-8.7.12-.72.31-1.19.52-1.5-.05-.23-.08-.48-.13-.68-.14-.65-.34-1.27-.48-1.84-.79-2.64-1.42-5.28-2.06-7.95-3.24,5.15-6.14,10.48-9.1,15.79-.51.82-.97,1.67-1.36,2.55,0,.03-.02.06-.04.08ZM75.82,176.62c.54.17,1.01.55,1.55.75,1.11.36,2.21.74,3.25,1.26,1.4.53,2.8.98,4.24,1.37-.06-.37-.14-.74-.2-1.11-.47-3.14-1.31-6.18-2.16-9.22-1.07-4.04-1.98-8.03-2.74-12.12-.6-2.68-1.32-5.34-1.85-8.04-2.05-8.75-3.51-17.64-5.8-26.34-.55-2.45-.97-4.97-1.78-7.35-1.7,1.61-3.35,3.27-5.23,4.67-.18.24-.43.51-.7.6.55,1.78.84,3.64,1.31,5.44,1.4,8.08,3.21,16.07,4.97,24.08,1.21,5.32,2.45,10.64,3.48,16.01.53,2.55,1.09,5.09,1.34,7.68,0,.58.32,1.57.29,2.3.01,0,.01.02.03.03ZM71.03,187.7c1.02,2.72,1.6,5.57,2.36,8.36.2.61.35,1.22.49,1.84,3.7-4.58,7.28-9.27,10.09-14.47,0-.12.02-.24.09-.35.04-.06.07-.13.1-.2,0-.2.09-.35.21-.46.15-.37.28-.75.42-1.13-2.01-.54-4.01-1.16-5.89-2.06-1.12-.39-2.23-.77-3.27-1.34-.41.9-.82,1.81-1.25,2.7-.53,1.25-1.21,2.41-1.77,3.65-.28.58-.88,2.49-1.56,3.43ZM61.33,178.66c.08.68.64,1.1,1.1,1.55.58.64,1.26,1.19,1.88,1.78,1.84,1.69,3.74,3.33,5.81,4.75,1.43-3.24,3-6.41,4.46-9.64-.08-.15-.11-.34-.06-.52-.05-.61-.16-1.16-.23-1.75-.24-2.52-.74-4.99-1.26-7.46-1.72-8.74-3.86-17.39-5.69-26.1-.56-2.66-1.14-5.33-1.71-8-.76-4.17-1.41-8.4-2.65-12.46-1.3-1.21-2.47-2.54-3.86-3.65-1.31-1.16-2.41-2.52-3.65-3.77-1.03,3.47-2.88,6.75-4.25,10.1,1.51,5.83,2.78,11.73,3.65,17.69.89,5.97,2.04,11.89,2.88,17.87.88,6.59,1.9,13.19,3.57,19.63ZM30.85,134.72c3.5,1.69,6.89,3.56,10.33,5.38.78.42,1.6.76,2.39,1.14-.43-2.42-.85-4.83-1.29-7.25-2.98-1.55-5.94-3.11-8.9-4.69-1.28-.66-2.54-1.35-3.83-1.96.26,1.12.37,2.28.64,3.38.04.72.63,2.7.66,4ZM60.19,179.82c-2.09,1.5-3.8,3.33-5.9,4.81-.12.1-.26.18-.39.27,3.08,3.04,6.72,5.49,10.29,7.92,2.82,1.99,5.64,3.97,8.55,5.82-.14-.58-.26-1.18-.45-1.76-.52-2.02-1.1-4.03-1.57-6.06-.18-.94-.71-1.82-.9-2.75-.82-.42-1.53-1.1-2.27-1.63-1.12-.84-2.2-1.71-3.18-2.68-1.03-.9-2.05-1.8-2.99-2.79-.38-.36-.8-.74-1.04-1.22-.04.02-.09.04-.14.08ZM53.15,183.87c.73-.5,1.4-1.07,2.12-1.59,1.53-1.27,2.92-2.81,4.67-3.75.02-.01.03,0,.05-.02-1.57-6.13-2.57-12.36-3.4-18.63-1.24-8.17-2.63-16.32-3.97-24.49-.57-2.89-1.2-5.78-1.89-8.64-.18-.71-.35-1.42-.53-2.12-.05-.2-.11-.41-.17-.6-.11-.03-.21-.07-.31-.13-.9-.19-1.74-.46-2.6-.69-1.92-.59-3.89-1.08-5.87-1.43.11.75.29,1.5.43,2.24.79,4.4,1.76,8.77,2.5,13.18.44,2.69.88,5.38,1.42,8.06,1.65,8.76,2.84,17.6,4.63,26.34.91,4.09,1.55,8.31,2.92,12.28ZM24.3,145.43c1.96,1.43,4.11,2.57,6.08,4.01,4.81,3.3,9.57,6.68,14.46,9.85.71.47,1.4.96,2.11,1.42-.93-5.56-1.81-11.14-2.89-16.67-.08-.42-.15-.84-.22-1.26-.04-.03-.09-.04-.13-.08-3.17-1.35-6.12-3.13-9.18-4.7-.87-.45-1.72-.93-2.61-1.33-.51-.25-1.06-.45-1.56-.74-2.05.72-4.32.62-6.43,1.07-.7.14-1.41.22-2.12.31.03.1.06.21.08.31.27.95.55,1.91.79,2.86.36,1.27.75,2.53,1.12,3.78.06.26.22.6.32.92.08.07.15.15.18.24ZM17.05,128.95c-1.62.43-3.18,1.09-4.76,1.64,2.72,2.11,5.95,3.56,8.78,5.54.77-.17,1.6-.16,2.37-.33,2.03-.43,4.12-.46,6.14-.92-.24-2.53-.9-5.02-1.32-7.52-.05-.2-.14-.43-.17-.64-.04-.02-.08-.04-.12-.05-.8,0-1.59.41-2.4.48-2.91.35-5.64,1.35-8.5,1.82ZM19.9,151.96c.95.63,1.94,1.2,2.89,1.81,2.29,1.44,4.44,3.09,6.66,4.61,4.14,2.97,8.3,5.92,12.66,8.56,1.93,1.26,3.89,2.5,5.87,3.69.24.18.59.32.86.51-.59-2.94-1.12-5.88-1.63-8.83-.7-.19-1.56-1.01-2.09-1.29-1.56-1.06-3.12-2.1-4.7-3.11-5.17-3.43-10.12-7.22-15.43-10.45-.38-.29-1.08-.65-1.55-1.07-.25.21-.52.41-.66.63-.89.99-1.58,2.16-2.61,3-.41.47-.83.95-1.34,1.31.35.21.74.38,1.06.62ZM13.81,138.23c1.19,4.11,2.66,8.14,4.14,12.16.05-.02.1-.05.14-.1.93-.78,1.73-1.71,2.55-2.6.47-.71,1.03-1.34,1.63-1.95.14-.15.31-.34.51-.49-.32-1.02-.63-2.04-.94-3.07-.39-1.22-.67-2.48-1.04-3.71-.19-.54-.16-1.22-.75-1.48-2.66-1.73-5.47-3.21-8.09-5.01.06.23.12.46.17.69.5,1.88,1.14,3.71,1.68,5.57ZM18.32,152.51c-.98-.46-1.57-1.33-1.82-2.35-.48-1.17-.82-2.39-1.27-3.56-1.34-3.63-2.46-7.33-3.56-11.03-.4-1.21-.73-2.44-1.03-3.68-.17-.39-.34-1.04-.2-1.46,0-.22.1-.44.38-.61.84-.47,1.87-.66,2.75-1,1.64-.75,3.36-1.21,5.14-1.47,2.73-.81,5.54-1.23,8.31-1.84,1.51-.54,2.85.74,4.21,1.24,2.88,1.46,5.7,3.05,8.59,4.5.73.41,1.46.79,2.2,1.18-.26-1.39-.54-2.79-.82-4.19-.33-1.8-.66-3.61-1.03-5.4-.11-.83-.63-2.49.03-3.02.23-.53.63-1.12.75-1.47,2.02-3.45,3.92-6.97,5.85-10.46,1.34-2.29,2.75-4.55,4.14-6.82.92-1.5,1.19-2.29,2.96-.96,3.79,2.73,7.24,5.91,10.86,8.86,1.37,1.18,2.77,2.31,4.19,3.42.85.78,2.05,1.36,2.45,2.49.88,2.59,1.4,5.29,1.97,7.96,2.15,8.24,3.62,16.64,5.45,24.95.71,3.11,1.4,6.23,2.17,9.33.63,3.11,1.16,6.23,2,9.28.86,3.5,1.96,6.94,2.62,10.48.17,1.44.72,2.86.54,4.32-.17.44-.38,1.35-.71,2.03-.04.27-.16.51-.31.74-.43.75-.88,1.47-1.28,2.23-1.92,3.37-4.24,6.51-6.65,9.55-.93.87-3.11,4.63-4.08,4.46-.92-.21-1.64-.96-2.45-1.42-2.88-1.83-5.6-3.9-8.46-5.77-3.46-2.48-7.08-4.86-9.97-8.01-.69-1.33-.95-2.85-1.33-4.3-.65-2.55-1.17-5.14-1.7-7.73-.06-.27-.11-.56-.17-.83-.19.2-.5.27-.75.13-5.07-3.1-10.15-6.21-15.01-9.63-4.95-3.45-9.76-7.12-14.97-10.16Z"/>
      </g>
      <g>
        <path d="M306.54,233.71c-.22.28-.62.33-.9.13-.78-.57-1.52-1.2-2.32-1.73-.39-.31-1.03-.49-1.15-1.03-.07-.34.2-.68.53-.73.59,0,1.05.6,1.57.85.74.51,1.42,1.08,2.14,1.61.29.2.33.62.13.89Z"/>
        <path class="cls-11" d="M281.14,231.87c-2-1.09-3.95-2.28-5.93-3.43,2.14-.46,4.35-.72,6.55-.9,3.18-.4,6.37-.72,9.56-1.05,1.81-.17,3.61-.53,5.43-.65,0,.38-.03.77-.03,1.15,0,1.55.07,3.1-.09,4.65,0,.46-.23,1.36-.14,2.01-2.24-.05-4.49.17-6.73.28-1.54-.03-3.01-.07-4.57-.06-.17-.05-.3-.05-.43-.03-.13-.07-.25-.14-.35-.22-1.09-.6-2.16-1.2-3.29-1.76Z"/>
        <path d="M305.9,235.87c-.17.29-.57.42-.87.24-.64-.39-1.27-.79-1.9-1.18-.6-.52-2.65-1.1-1.73-2.12.28-.23.67-.15.92.1.56.37,1.13.72,1.7,1.07.54.49,2.35.98,1.87,1.89Z"/>
        <path class="cls-11" d="M290.3,245.23c-1.47-3.31-2.55-6.91-4.34-10.07,1.75-.03,3.5.12,5.25-.02,1.76-.23,3.53-.16,5.31-.25,3.79,1.93,7.28,4.39,10.82,6.74,2.32,1.44,4.65,2.87,6.95,4.31,7.55,4.72,15.26,9.18,22.75,14,2.14,1.34,4.26,2.7,6.25,4.27.48.36.95.66,1.43,1.05.1.16.26.27.41.32,1.32,3.29,2.51,6.63,3.86,9.9-2.46.51-4.95.74-7.45.9-.86.04-1.72.14-2.59.12-.65.02-1.33.13-1.88-.28-5.8-3.26-11.26-7.1-16.62-11.03-4.89-3.53-9.96-6.81-14.88-10.31-4.9-3.5-10.03-6.68-15.28-9.63Z"/>
        <path class="cls-11" d="M289.03,245.47c-2.13,1.3-4.35,2.44-6.37,3.9-.49.27-.95.58-1.38.93-.01-.03-.02-.06-.04-.08-.36-.89-.66-1.81-.9-2.75-1.77-5.82-3.6-11.61-5.07-17.51,2.36,1.39,4.71,2.76,7.16,4.03.51.29,1.1.57,1.66.93.18.1.38.25.58.38.08.37.28.83.72,1.41,1.36,2.85,2.39,5.86,3.64,8.76Z"/>
        <path class="cls-11" d="M305.64,233.84c.28.2.68.15.9-.13.2-.27.16-.69-.13-.89-.72-.53-1.4-1.1-2.14-1.61-.51-.25-.98-.86-1.57-.85-.33.05-.61.39-.53.73.12.54.75.72,1.15,1.03.8.53,1.54,1.15,2.32,1.73ZM305.04,236.12c.3.18.7.05.87-.24.48-.91-1.33-1.39-1.87-1.89-.57-.35-1.14-.71-1.7-1.07-.25-.24-.63-.33-.92-.1-.92,1.02,1.13,1.6,1.73,2.12.64.4,1.26.79,1.9,1.18ZM354.36,260.18c-1.28.76-2.57,1.47-3.92,2.11-1.1.39-2.13.92-3.16,1.47-.52.25-1.12.32-1.62.59-.02,0-.02,0-.04,0-.51-.53-1.44-.98-1.86-1.39-2.03-1.62-4.26-2.98-6.46-4.37-4.58-2.98-9.27-5.77-13.95-8.59-6.99-4.28-14.01-8.52-20.8-13.11-1.62-.9-3.17-1.99-4.83-2.83.12-.26.1-.63.05-.92.3-2.33.25-4.66.26-7,2.28,1.07,4.38,2.51,6.53,3.81,7.86,4.38,15.27,9.49,23,14.09,2.31,1.49,4.73,2.81,7.08,4.24,3.48,2.29,6.98,4.4,10.63,6.43,2.78,1.5,5.56,3,8.14,4.84.31.22.63.41.94.63Z"/>
        <path class="cls-11" d="M346.45,265.39c1.13-.36,2.17-.89,3.23-1.43,1.95-.74,3.78-1.74,5.57-2.82.18.36.36.72.53,1.08,0,.16.05.32.19.47.02.07.06.14.07.21.03.12.11.22.19.31,1.8,5.62,2.7,11.46,3.43,17.3-.54-.33-1.09-.64-1.67-.92-2.54-1.4-5-2.95-7.66-4.1-.2-1.14-1.16-2.9-1.39-3.5-.5-1.26-.87-2.57-1.4-3.81-.34-.93-.71-1.85-1.08-2.78Z"/>
        <path d="M288.73,262.71c-.8.23-1.16-.98-.36-1.23.89-.23,1.75-.59,2.66-.76.82-.12,1.02,1.12.19,1.26-.84.17-1.65.52-2.49.73Z"/>
        <path class="cls-11" d="M280.16,276.17c-.09-.05-.18-.11-.28-.16.43-.58.87-1.14,1.25-1.74,1.14-1.84,2.78-3.4,3.68-5.37.55-.16,1.08-.42,1.61-.61.91-.36,1.85-.64,2.77-.96,3.25-1.12,6.58-2,9.75-3.36.05,0,.1-.03.15-.04.36.24.7.48,1.06.71,4.74,3.05,9.37,6.29,14.02,9.47-.83.2-1.66.36-2.49.54-5.68,1.34-11.41,2.42-17.12,3.6-2.4.42-4.71,1.18-7.1,1.6-.09-.04-.2-.05-.3-.04-.3-.15-.65-.27-.89-.41-1.17-.6-2.34-1.2-3.51-1.82-.85-.49-1.74-.95-2.61-1.42Z"/>
        <path d="M292.24,263.94c-.82.27-1.62.61-2.46.79-.8.23-1.15-1-.36-1.23.85-.19,1.65-.53,2.47-.79.79-.23,1.15.98.35,1.22Z"/>
        <path class="cls-11" d="M288.37,261.48c-.8.24-.44,1.45.36,1.23.84-.21,1.65-.56,2.49-.73.83-.14.63-1.38-.19-1.26-.91.17-1.76.53-2.66.76ZM289.78,264.73c.84-.19,1.64-.53,2.46-.79.8-.25.44-1.45-.35-1.22-.82.27-1.62.61-2.47.79-.79.23-.44,1.45.36,1.23ZM295.33,263.99c-3.69,1.22-7.39,2.37-11.04,3.72-.96-.88-2.79-1.83-3.34-2.3-.98-.57-1.89-1.3-2.88-1.88,1.34-.51,2.71-.94,4.07-1.4,3.19-1.03,6.37-2.09,9.55-3.16,2.04,1.36,4.07,2.73,6.11,4.1-.83.3-1.64.66-2.48.93Z"/>
        <path class="cls-11" d="M359.39,281.83c-3.35.81-6.73,1.48-10.12,2.13-4.22.88-8.51,1.81-12.84,1.92.02-.16.06-.31.07-.47.39-2.54.26-5.04.63-7.59,0-.06.02-.11.04-.15.51.16,1.07.12,1.6.1,1.36,0,2.72-.11,4.08-.23,1.39-.04,2.76-.21,4.14-.44.9-.17,1.87-.2,2.74-.51.8.51,1.81.74,2.61,1.26,1.79,1.07,3.64,2.04,5.46,3.07.55.26,1.06.59,1.58.9Z"/>
        <path class="cls-11" d="M270.55,273.65c1.65-2.39,2.82-5.05,4.58-7.39.52-.63.77-1.48,1.32-2.06.04-.01.08-.04.12-.05.17.13.41.22.58.33,2.1,1.43,4.35,2.68,6.34,4.26-1.07,1.78-2.5,3.3-3.59,5.06-.41.67-.99,1.26-1.4,1.93-3.39.67-6.67,1.99-10.08,2.49.7-1.53,1.3-3.11,2.12-4.57Z"/>
        <path d="M332.53,278.43c-.17.29-.57.42-.87.24-1.39-.88-2.81-1.72-4.21-2.58-.65-.45-.02-1.47.68-1.07.33.23.69.42,1.04.62,1.05.63,2.08,1.28,3.12,1.93.3.18.41.56.24.86Z"/>
        <path d="M332.06,281.34c-.28.38-.77.27-1.09,0-1.39-.9-2.82-1.74-4.19-2.67-1.21-.54-.52-1.96.44-1.26,1.2.88,2.51,1.61,3.75,2.42.5.36,1.6.74,1.09,1.52Z"/>
        <path class="cls-11" d="M331.66,278.68c.29.18.7.05.87-.24.18-.3.06-.68-.24-.86-1.04-.65-2.08-1.29-3.12-1.93-.35-.21-.7-.4-1.04-.62-.7-.39-1.33.62-.68,1.07,1.4.87,2.82,1.71,4.21,2.58ZM330.97,281.33c.32.28.8.39,1.09,0,.51-.78-.59-1.16-1.09-1.52-1.25-.81-2.55-1.54-3.75-2.42-.96-.7-1.65.72-.44,1.26,1.37.93,2.8,1.77,4.19,2.67ZM335.17,285.71c-3.81-1.77-7.29-4.23-10.88-6.41-7.54-4.77-14.74-10.04-22.19-14.92-2.3-1.46-4.55-3.01-6.79-4.56-3.69-2.52-7.51-4.85-11.23-7.34-.63-.42-1.29-.81-1.91-1.25,1.62-1.19,3.35-2.26,5.1-3.24.76-.46,1.54-.88,2.3-1.39.11-.03.21-.08.31-.14.18.1.37.19.55.3.64.36,1.26.73,1.9,1.09,2.54,1.49,5.06,3.04,7.54,4.63,6.81,4.7,13.65,9.34,20.39,14.12,5.09,3.75,10.28,7.35,15.78,10.47,0,.02-.01.03-.02.05-.54,1.91-.39,3.99-.54,5.96-.12.88-.18,1.76-.32,2.63Z"/>
        <path d="M293.3,282.4c-.52.08-1.03.2-1.57.23-.83,0-.85-1.25-.02-1.28,1.02-.14,2.03-.31,3.06-.41.34-.04.67.18.72.53.05.34-.19.69-.53.73-.56.07-1.11.13-1.67.2Z"/>
        <path d="M292.4,285.28c-.82.11-1.01-1.13-.19-1.26,1.2-.22,2.43-.37,3.63-.6.82-.12,1.02,1.12.19,1.26-1.2.24-2.42.39-3.63.6Z"/>
        <path class="cls-11" d="M291.73,282.63c.53-.03,1.05-.15,1.57-.23.56-.07,1.11-.13,1.67-.2.34-.04.58-.39.53-.73-.05-.35-.38-.57-.72-.53-1.03.1-2.04.28-3.06.41-.83.03-.8,1.29.02,1.28ZM292.21,284.02c-.82.13-.63,1.37.19,1.26,1.2-.21,2.43-.37,3.63-.6.82-.14.63-1.38-.19-1.26-1.2.24-2.42.38-3.63.6ZM300.37,285.12c-2.64.55-5.32.95-7.94,1.6-1.11.26-2.2.57-3.31.83-.4.07-.79.23-1.18.34.09-.62.03-1.25-.02-1.87.11-1.33-.25-2.64-.35-3.96-.06-.26-.02-.59,0-.91.63-.04,1.37-.3,1.85-.37,6.01-1.59,12.17-2.53,18.23-3.87,1.83-.44,3.66-.85,5.5-1.23.57-.19,1.75-.24,2.38-.61,2.48,1.68,4.97,3.33,7.49,4.95-.33.06-.67.22-.96.27-2.23.6-4.48,1.15-6.73,1.67-4.92,1.31-9.93,2.27-14.94,3.19Z"/>
        <path class="cls-11" d="M286.66,287.69c0,.06,0,.12-.03.17-3.91-1.72-7.84-3.45-11.63-5.44-1.71-.91-3.48-1.71-5.18-2.65-.2-.12-.41-.24-.61-.35,3.11-.64,6.13-1.64,9.22-2.36.59-.25,1.07.25,1.59.48,1.15.59,2.25,1.26,3.4,1.82.95.49,1.9.98,2.86,1.45-.03.25-.01.51,0,.71.02.85.09,1.7.28,2.53.08,1.21.2,2.43.11,3.64Z"/>
        <path d="M281.14,231.87c1.14.57,2.2,1.16,3.29,1.76.09.07.21.14.35.22.13-.02.26-.02.43.03,1.55-.02,3.02.03,4.57.06,2.23-.11,4.49-.33,6.73-.28-.1-.65.13-1.55.14-2.01.16-1.55.09-3.1.09-4.65,0-.39.02-.77.03-1.15-1.82.12-3.62.48-5.43.65-3.19.33-6.38.66-9.56,1.05-2.2.18-4.41.43-6.55.9,1.98,1.15,3.93,2.34,5.93,3.43ZM281.27,250.3c.43-.35.89-.66,1.38-.93,2.02-1.46,4.25-2.6,6.37-3.9-1.25-2.9-2.28-5.91-3.64-8.76-.44-.59-.64-1.05-.72-1.41-.2-.13-.4-.27-.58-.38-.56-.35-1.15-.64-1.66-.93-2.45-1.26-4.79-2.64-7.16-4.03,1.46,5.9,3.3,11.69,5.07,17.51.24.93.54,1.86.9,2.75.02.03.03.06.04.08ZM345.65,264.35c.5-.27,1.1-.35,1.62-.59,1.03-.55,2.07-1.07,3.16-1.47,1.35-.64,2.65-1.34,3.92-2.11-.31-.22-.63-.41-.94-.63-2.58-1.84-5.37-3.34-8.14-4.84-3.65-2.03-7.16-4.14-10.63-6.43-2.35-1.43-4.76-2.75-7.08-4.24-7.73-4.59-15.15-9.7-23-14.09-2.15-1.3-4.25-2.75-6.53-3.81-.01,2.34.04,4.68-.26,7,.05.29.07.66-.05.92,1.66.84,3.21,1.92,4.83,2.83,6.79,4.59,13.81,8.83,20.8,13.11,4.67,2.82,9.37,5.61,13.95,8.59,2.21,1.38,4.43,2.74,6.46,4.37.42.41,1.35.86,1.86,1.39.02,0,.02,0,.04,0ZM350.32,275.49c2.66,1.15,5.12,2.7,7.66,4.1.58.28,1.12.59,1.67.92-.73-5.84-1.64-11.67-3.43-17.3-.08-.09-.16-.19-.19-.31-.02-.07-.05-.14-.07-.21-.14-.14-.19-.31-.19-.47-.16-.37-.35-.73-.53-1.08-1.78,1.08-3.62,2.08-5.57,2.82-1.06.54-2.1,1.07-3.23,1.43.37.92.74,1.84,1.08,2.78.53,1.25.9,2.55,1.4,3.81.23.6,1.19,2.36,1.39,3.5ZM337.08,276.21c.55.42,1.23.31,1.88.28.86.02,1.73-.08,2.59-.12,2.5-.15,4.99-.38,7.45-.9-1.35-3.27-2.54-6.61-3.86-9.9-.16-.05-.32-.16-.41-.32-.48-.39-.94-.69-1.43-1.05-1.98-1.57-4.11-2.92-6.25-4.27-7.49-4.82-15.2-9.27-22.75-14-2.31-1.44-4.63-2.87-6.95-4.31-3.53-2.35-7.03-4.81-10.82-6.74-1.77.1-3.54.02-5.31.25-1.75.14-3.49-.01-5.25.02,1.79,3.15,2.87,6.75,4.34,10.07,5.25,2.95,10.38,6.13,15.28,9.63,4.92,3.5,9.98,6.78,14.88,10.31,5.36,3.93,10.83,7.77,16.62,11.03ZM284.29,267.71c3.65-1.35,7.35-2.5,11.04-3.72.84-.27,1.65-.62,2.48-.93-2.04-1.37-4.07-2.74-6.11-4.1-3.18,1.07-6.36,2.13-9.55,3.16-1.36.46-2.73.89-4.07,1.4.99.58,1.9,1.31,2.88,1.88.55.47,2.38,1.42,3.34,2.3ZM337.13,277.83c-.37,2.55-.24,5.05-.63,7.59-.02.16-.05.31-.07.47,4.33-.12,8.61-1.04,12.84-1.92,3.38-.65,6.77-1.32,10.12-2.13-.52-.3-1.03-.63-1.58-.9-1.82-1.03-3.67-2-5.46-3.07-.8-.52-1.81-.75-2.61-1.26-.87.3-1.85.34-2.74.51-1.38.22-2.75.4-4.14.44-1.36.12-2.72.23-4.08.23-.52.02-1.09.07-1.6-.1-.02.04-.03.09-.04.15ZM335.17,285.71c.14-.87.21-1.75.32-2.63.14-1.98,0-4.05.54-5.96,0-.02.01-.03.02-.05-5.51-3.12-10.69-6.72-15.78-10.47-6.75-4.77-13.59-9.42-20.39-14.12-2.48-1.59-5-3.14-7.54-4.63-.64-.36-1.26-.73-1.9-1.09-.18-.1-.37-.2-.55-.3-.1.06-.2.1-.31.14-.76.52-1.54.94-2.3,1.39-1.76.98-3.48,2.05-5.1,3.24.62.44,1.28.83,1.91,1.25,3.72,2.48,7.54,4.81,11.23,7.34,2.24,1.55,4.49,3.1,6.79,4.56,7.46,4.88,14.65,10.15,22.19,14.92,3.58,2.18,7.06,4.64,10.88,6.41ZM287.46,279.85c2.39-.42,4.71-1.18,7.1-1.6,5.71-1.18,11.45-2.26,17.12-3.6.83-.18,1.66-.34,2.49-.54-4.65-3.19-9.28-6.42-14.02-9.47-.36-.23-.7-.47-1.06-.71-.05.01-.09.03-.15.04-3.17,1.35-6.5,2.23-9.75,3.36-.93.31-1.86.6-2.77.96-.53.19-1.06.45-1.61.61-.91,1.97-2.55,3.54-3.68,5.37-.38.6-.82,1.17-1.25,1.74.1.05.19.11.28.16.87.47,1.76.92,2.61,1.42,1.16.62,2.34,1.21,3.51,1.82.23.14.58.26.89.41.1,0,.21,0,.3.04ZM270.55,273.65c-.82,1.47-1.42,3.05-2.12,4.57,3.41-.5,6.69-1.82,10.08-2.49.41-.67.99-1.26,1.4-1.93,1.09-1.76,2.53-3.28,3.59-5.06-1.99-1.58-4.24-2.84-6.34-4.26-.18-.1-.41-.2-.58-.33-.04.01-.08.04-.12.05-.55.58-.8,1.43-1.32,2.06-1.76,2.34-2.94,5-4.58,7.39ZM289.12,287.55c1.11-.25,2.21-.56,3.31-.83,2.62-.65,5.3-1.05,7.94-1.6,5.01-.92,10.02-1.87,14.94-3.19,2.25-.52,4.5-1.07,6.73-1.67.29-.05.64-.21.96-.27-2.52-1.61-5.01-3.27-7.49-4.95-.62.37-1.8.42-2.38.61-1.84.39-3.67.79-5.5,1.23-6.06,1.35-12.22,2.29-18.23,3.87-.47.07-1.22.33-1.85.37-.02.32-.07.66,0,.91.1,1.32.46,2.64.35,3.96.05.62.11,1.26.02,1.87.4-.11.79-.27,1.18-.34ZM275,282.42c3.79,2,7.72,3.73,11.63,5.44.02-.05.03-.11.03-.17.09-1.21-.03-2.43-.11-3.64-.19-.83-.25-1.68-.28-2.53-.01-.2-.03-.46,0-.71-.96-.47-1.91-.96-2.86-1.45-1.15-.56-2.25-1.24-3.4-1.82-.52-.24-1-.73-1.59-.48-3.09.72-6.1,1.72-9.22,2.36.2.12.42.23.61.35,1.7.94,3.47,1.75,5.18,2.65ZM288.42,289.07c-1.01.39-2.04.21-2.96-.31-1.18-.46-2.29-1.06-3.45-1.55-3.54-1.56-6.98-3.31-10.42-5.08-1.15-.55-2.26-1.16-3.37-1.81-.4-.15-.99-.48-1.19-.87-.16-.15-.24-.38-.18-.7.24-.93.82-1.81,1.19-2.67.6-1.7,1.46-3.26,2.5-4.72,1.31-2.53,2.96-4.84,4.44-7.26.66-1.46,2.51-1.54,3.81-2.17,3.05-1.06,6.15-1.99,9.2-3.07.8-.24,1.58-.5,2.37-.77-1.18-.78-2.38-1.55-3.59-2.31-1.52-1.01-3.06-2.02-4.61-3-.68-.5-2.23-1.27-2.16-2.11-.23-.53-.37-1.23-.54-1.56-1.09-3.85-2.3-7.65-3.48-11.47-.72-2.56-1.38-5.13-2.04-7.71-.45-1.7-.83-2.45,1.36-2.8,4.6-.84,9.28-1.13,13.92-1.68,1.8-.17,3.58-.4,5.37-.65,1.15-.07,2.4-.53,3.49-.03,2.48,1.16,4.78,2.66,7.11,4.1,7.43,4.17,14.5,8.93,21.76,13.37,2.74,1.64,5.46,3.31,8.23,4.9,2.67,1.7,5.29,3.48,8.08,4.99,3.12,1.8,6.36,3.4,9.37,5.38,1.16.88,2.56,1.47,3.49,2.61.2.43.71,1.21.97,1.92.16.22.25.47.32.74.24.84.45,1.65.72,2.47,1.09,3.72,1.76,7.57,2.28,11.41-.02,1.28,1.17,5.45.38,6.04-.79.52-1.83.51-2.72.78-3.32.81-6.69,1.33-10.02,2.1-4.19.77-8.41,1.73-12.69,1.63-1.44-.42-2.71-1.29-4.02-2.03-2.29-1.3-4.52-2.72-6.75-4.13-.24-.15-.48-.3-.72-.45.01.28-.15.55-.43.63-5.75,1.51-11.51,3.01-17.34,4.14-5.92,1.17-11.9,2.09-17.7,3.75Z"/>
      </g>
      <polygon class="cls-9" points="370.97 202.18 285.2 350.74 113.66 350.74 27.89 202.18 113.66 53.63 285.2 53.63 370.97 202.18"/>
      <path d="M371.03,194.74c-9.22-.83-10.37,15.58.67,14.89,3.89-.12,6.85-1.68,7-7.43.18-5.04-3.79-7.58-7.67-7.46"/>
      <path d="M86.86.03c-9.22-.83-10.37,15.58.67,14.89,3.89-.12,6.85-1.68,7-7.43.18-5.04-3.79-7.58-7.67-7.46"/>
      <path d="M285.29,343.72c9.22-.83,10.36,15.58-.67,14.89-3.89-.12-6.85-1.68-7-7.43-.17-5.04,3.79-7.58,7.67-7.46"/>
      <path d="M29.57,194.28c9.22-.83,10.36,15.58-.68,14.89-3.88-.12-6.85-1.68-7-7.43-.18-5.04,3.79-7.58,7.68-7.46"/>
      <path d="M32.85,88.53c-1.51-5.49-3.03-10.98-4.54-16.47l-.65-2.36c-.1-.38-.66-.58-.94-.25-3.59,4.34-7.18,8.67-10.77,13.01l-1.53,1.85c-.25.3-.2.84.25.94,5.11,1.16,10.21,2.32,15.32,3.47l2.17.49c.7.16,1-.92.3-1.08-5.11-1.16-10.21-2.32-15.32-3.47l-2.17-.49.25.94c3.59-4.34,7.18-8.67,10.77-13.01l1.53-1.85-.94-.25c1.51,5.49,3.03,10.98,4.54,16.47l.65,2.36c.19.69,1.27.4,1.08-.3h0Z"/>
      <path d="M390.29,256.67c-1.51-5.49-3.03-10.98-4.54-16.47-.22-.79-.43-1.57-.65-2.36-.1-.38-.66-.58-.94-.25-3.59,4.34-7.18,8.67-10.77,13.01l-1.53,1.85c-.25.3-.2.84.25.94,5.11,1.16,10.21,2.32,15.32,3.47l2.17.49c.7.16,1-.92.3-1.08-5.11-1.16-10.21-2.32-15.32-3.47l-2.17-.49.25.94c3.59-4.34,7.18-8.67,10.77-13.01l1.53-1.85-.94-.25c1.51,5.49,3.03,10.98,4.54,16.47.22.79.43,1.57.65,2.36.19.69,1.27.4,1.08-.3h0Z"/>
      <path d="M77.57,81.56c.54-.12.65-.85.21-1.17-.55-.36-1.24-.45-1.83-.73-1.49-.57-3.01-1.05-4.54-1.53,1.26-.84,2.53-1.67,3.79-2.52.87-.71-.32-1.72-.99-.81-1.41.88-2.8,1.79-4.18,2.71.39-1.79.75-3.6,1.27-5.33.28-.98-1.15-1.21-1.28-.2-.39,1.41-.71,2.81-1.02,4.21-.47-.97-.93-1.95-1.34-2.96-.4-.67-.79-2.74-1.88-1.83-.44.58.34,1.29.49,1.83.52,1.32,1.14,2.58,1.74,3.86-2-.61-3.99-1.22-5.91-2.04-.97-.22-1.13,1.14-.16,1.3,2.12.88,4.32,1.56,6.52,2.22-1.32.9-2.64,1.82-3.94,2.74-.88.65-1.79,1.26-2.65,1.93-.13.1-.23.24-.26.41-.11.53.57.97.99.63,1.78-1.34,3.6-2.62,5.44-3.87-.05.2-.1.41-.15.61-.52,1.8-.81,3.65-1.2,5.48-.04.18-.04.35.04.52.23.49,1.03.42,1.17-.11.46-2.22.93-4.43,1.47-6.64.43,1.02.85,2.03,1.26,3.06.39.62.7,2.62,1.64,2.27,1.01-.48-.22-1.81-.37-2.53-.52-1.32-1.07-2.62-1.6-3.93.71.22,1.43.45,2.14.69,1.55.4,3.01,1.08,4.52,1.56.15.16.38.23.6.17Z"/>
      <path d="M271.39,24.97c.54-.12.65-.85.21-1.17-.55-.36-1.24-.45-1.83-.73-1.49-.57-3.01-1.05-4.54-1.53,1.26-.84,2.53-1.67,3.79-2.52.87-.71-.32-1.72-.99-.81-1.41.88-2.8,1.79-4.18,2.71.39-1.79.75-3.6,1.27-5.33.28-.98-1.15-1.21-1.28-.2-.39,1.41-.71,2.81-1.02,4.21-.47-.97-.93-1.95-1.34-2.96-.4-.67-.79-2.74-1.88-1.83-.44.58.34,1.29.49,1.83.52,1.32,1.14,2.58,1.74,3.86-2-.61-3.99-1.22-5.91-2.04-.97-.22-1.13,1.14-.16,1.3,2.12.88,4.32,1.55,6.52,2.22-1.32.9-2.64,1.82-3.94,2.74-.88.65-1.79,1.26-2.65,1.93-.13.1-.23.24-.26.41-.11.53.57.97.99.63,1.78-1.34,3.6-2.62,5.44-3.87-.05.2-.1.41-.15.61-.52,1.8-.81,3.65-1.2,5.48-.04.18-.04.35.04.52.23.49,1.03.42,1.17-.11.46-2.22.93-4.43,1.47-6.64.43,1.02.85,2.03,1.26,3.06.39.62.7,2.62,1.64,2.27,1.01-.48-.22-1.81-.37-2.53-.52-1.32-1.07-2.62-1.6-3.93.71.22,1.43.45,2.14.69,1.55.4,3.01,1.08,4.52,1.56.15.16.38.23.6.17Z"/>
      <path d="M157.95,382.85c.54-.12.65-.85.21-1.17-.55-.36-1.24-.45-1.83-.73-1.49-.57-3.01-1.05-4.54-1.53,1.26-.84,2.53-1.67,3.79-2.52.87-.71-.32-1.72-.99-.81-1.41.88-2.8,1.79-4.18,2.71.39-1.79.75-3.6,1.27-5.33.28-.98-1.15-1.21-1.28-.2-.39,1.41-.71,2.81-1.02,4.21-.47-.97-.93-1.95-1.34-2.96-.4-.67-.79-2.74-1.88-1.83-.44.58.34,1.29.49,1.83.52,1.32,1.14,2.58,1.74,3.86-2-.61-3.99-1.22-5.91-2.04-.97-.22-1.13,1.14-.16,1.3,2.12.88,4.32,1.56,6.52,2.22-1.32.9-2.64,1.82-3.94,2.74-.88.65-1.79,1.26-2.65,1.93-.13.1-.23.24-.26.41-.11.53.57.97.99.63,1.78-1.34,3.6-2.62,5.44-3.87-.05.2-.1.41-.15.61-.52,1.8-.81,3.65-1.2,5.48-.04.18-.04.35.04.52.23.49,1.03.42,1.17-.11.46-2.22.93-4.43,1.47-6.64.43,1.02.85,2.03,1.26,3.06.39.62.7,2.62,1.64,2.27,1.01-.48-.22-1.81-.37-2.53-.52-1.32-1.07-2.62-1.6-3.93.71.22,1.43.45,2.14.69,1.55.4,3.01,1.08,4.52,1.56.15.16.38.23.6.17Z"/>
      <polyline class="cls-2" points="370.97 202.18 285.2 53.63 113.66 53.63 27.89 202.18 113.66 350.74"/>
      <g>
        <path class="cls-3" d="M281.94,47.66c-4.05-.92-8.27-1.77-12.72-2.52,2.67,3.77,5.18,7.03,7.74,10.25-2.36,3.81-4.64,7.65-6.78,11.39,4.45-1.39,8.57-2.81,12.57-4.26,2.29,2.8,4.72,5.79,7.43,9.22-.05-3.92.05-7.98.19-12.07,4.58-1.76,9.2-3.58,14.22-5.51-4.44-1.55-9.05-3-13.9-4.32.13-4.91.17-9.7-.1-14.16-2.94,3.74-5.83,7.79-8.63,11.98Z"/>
        <path d="M282.09,47.12c-4.22-.95-8.46-1.79-12.72-2.52-.43-.07-.95.38-.63.82,2.51,3.53,5.13,6.98,7.83,10.37l-.09-.68c-2.33,3.76-4.59,7.55-6.78,11.39-.24.41.16.97.63.82,4.22-1.33,8.41-2.75,12.57-4.26l-.55-.14c2.5,3.06,4.98,6.12,7.43,9.22.31.39.96.05.96-.4-.05-4.02.05-8.05.19-12.07l-.41.54c4.75-1.82,9.48-3.68,14.22-5.51.52-.2.54-.89,0-1.08-4.58-1.6-9.22-3.04-13.9-4.32l.41.54c.12-4.72.18-9.44-.1-14.16-.03-.43-.63-.81-.96-.4-3.07,3.91-5.95,7.96-8.72,12.09-.4.6.57,1.16.97.57,2.71-4.05,5.53-8.03,8.54-11.86l-.96-.4c.28,4.72.23,9.44.1,14.16,0,.24.18.48.41.54,4.68,1.28,9.32,2.72,13.9,4.32v-1.08c-4.75,1.82-9.48,3.69-14.22,5.51-.24.09-.4.27-.41.54-.13,4.02-.23,8.04-.19,12.07l.96-.4c-2.45-3.1-4.93-6.17-7.43-9.22-.12-.14-.38-.21-.55-.14-4.16,1.5-8.35,2.93-12.57,4.26l.63.82c2.2-3.83,4.46-7.63,6.78-11.39.14-.23.07-.49-.09-.68-2.64-3.32-5.2-6.69-7.65-10.14l-.63.82c4.26.73,8.51,1.57,12.72,2.52.7.16,1-.92.3-1.08Z"/>
      </g>
      <g>
        <path class="cls-7" d="M121.69,350.74c0,.43-.36.78-.79.78s-.79-.35-.79-.78.36-.78.79-.78.79.35.79.78Z"/>
        <path class="cls-7" d="M130.37,350.74c0,.43-.36.78-.79.78s-.79-.35-.79-.78.36-.78.79-.78.79.35.79.78Z"/>
        <path class="cls-7" d="M139.05,350.74c0,.43-.36.78-.79.78s-.79-.35-.79-.78.36-.78.79-.78.79.35.79.78Z"/>
        <path class="cls-7" d="M147.73,350.74c0,.43-.36.78-.79.78s-.79-.35-.79-.78.36-.78.79-.78.79.35.79.78Z"/>
        <path class="cls-7" d="M156.41,350.74c0,.43-.36.78-.79.78s-.79-.35-.79-.78.36-.78.79-.78.79.35.79.78Z"/>
        <path class="cls-7" d="M165.09,350.74c0,.43-.36.78-.79.78s-.79-.35-.79-.78.36-.78.79-.78.79.35.79.78Z"/>
        <path class="cls-7" d="M173.77,350.74c0,.43-.36.78-.79.78s-.79-.35-.79-.78.36-.78.79-.78.79.35.79.78Z"/>
        <path class="cls-7" d="M182.45,350.74c0,.43-.36.78-.79.78s-.79-.35-.79-.78.36-.78.79-.78.79.35.79.78Z"/>
        <path class="cls-7" d="M191.13,350.74c0,.43-.36.78-.79.78s-.79-.35-.79-.78.36-.78.79-.78.79.35.79.78Z"/>
        <path class="cls-7" d="M199.81,350.74c0,.43-.36.78-.79.78s-.79-.35-.79-.78.36-.78.79-.78.79.35.79.78Z"/>
        <path class="cls-7" d="M208.49,350.74c0,.43-.36.78-.79.78s-.79-.35-.79-.78.36-.78.79-.78.79.35.79.78Z"/>
        <path class="cls-7" d="M217.17,350.74c0,.43-.36.78-.79.78s-.79-.35-.79-.78.36-.78.79-.78.79.35.79.78Z"/>
        <path class="cls-7" d="M225.86,350.74c0,.43-.36.78-.79.78s-.79-.35-.79-.78.36-.78.79-.78.79.35.79.78Z"/>
        <path class="cls-7" d="M234.54,350.74c0,.43-.36.78-.79.78s-.79-.35-.79-.78.36-.78.79-.78.79.35.79.78Z"/>
        <path class="cls-7" d="M243.22,350.74c0,.43-.36.78-.79.78s-.79-.35-.79-.78.36-.78.79-.78.79.35.79.78Z"/>
        <path class="cls-7" d="M251.9,350.74c0,.43-.36.78-.79.78s-.79-.35-.79-.78.36-.78.79-.78.79.35.79.78Z"/>
        <path class="cls-7" d="M260.58,350.74c0,.43-.36.78-.79.78s-.79-.35-.79-.78.36-.78.79-.78.79.35.79.78Z"/>
        <path class="cls-7" d="M269.26,350.74c0,.43-.36.78-.79.78s-.79-.35-.79-.78.36-.78.79-.78.79.35.79.78Z"/>
        <path class="cls-7" d="M277.94,350.74c0,.43-.36.78-.79.78s-.79-.35-.79-.78.36-.78.79-.78.79.35.79.78Z"/>
        <path class="cls-7" d="M289.62,343.08c.37.22.5.7.28,1.08-.22.38-.7.51-1.07.3-.37-.22-.5-.7-.28-1.08.22-.38.7-.51,1.07-.3Z"/>
        <path class="cls-7" d="M293.96,335.56c.37.22.5.7.28,1.08-.22.38-.7.51-1.07.3-.37-.22-.5-.7-.28-1.08.22-.38.7-.51,1.07-.3Z"/>
        <path class="cls-7" d="M298.3,328.04c.37.22.5.7.28,1.08-.22.38-.7.51-1.07.3-.37-.22-.5-.7-.28-1.08.22-.38.7-.51,1.07-.3Z"/>
        <path class="cls-7" d="M302.65,320.53c.37.22.5.7.28,1.08-.22.38-.7.51-1.07.3-.37-.22-.5-.7-.28-1.08.22-.38.7-.51,1.07-.3Z"/>
        <path class="cls-7" d="M306.99,313.01c.37.22.5.7.28,1.08-.22.38-.7.51-1.07.3-.37-.22-.5-.7-.28-1.08.22-.38.7-.51,1.07-.3Z"/>
        <path class="cls-7" d="M311.33,305.49c.37.22.5.7.28,1.08-.22.38-.7.51-1.07.3s-.5-.7-.28-1.08.7-.51,1.07-.3Z"/>
        <path class="cls-7" d="M315.67,297.97c.37.22.5.7.28,1.08-.22.38-.7.51-1.07.3-.37-.22-.5-.7-.28-1.08.22-.38.7-.51,1.07-.3Z"/>
        <path class="cls-7" d="M320.01,290.46c.37.22.5.7.28,1.08-.22.38-.7.51-1.07.3-.37-.22-.5-.7-.28-1.08.22-.38.7-.51,1.07-.3Z"/>
        <path class="cls-7" d="M324.35,282.94c.37.22.5.7.28,1.08-.22.38-.7.51-1.07.3s-.5-.7-.28-1.08c.22-.38.7-.51,1.07-.3Z"/>
        <path class="cls-7" d="M328.69,275.42c.37.22.5.7.28,1.08s-.7.51-1.07.3c-.37-.22-.5-.7-.28-1.08.22-.38.7-.51,1.07-.3Z"/>
        <path class="cls-7" d="M333.03,267.9c.37.22.5.7.28,1.08-.22.38-.7.51-1.07.3-.37-.22-.5-.7-.28-1.08.22-.38.7-.51,1.07-.3Z"/>
        <path class="cls-7" d="M337.37,260.39c.37.22.5.7.28,1.08-.22.38-.7.51-1.07.3-.37-.22-.5-.7-.28-1.08.22-.38.7-.51,1.07-.3Z"/>
        <path class="cls-7" d="M341.71,252.87c.37.22.5.7.28,1.08-.22.38-.7.51-1.07.3-.37-.22-.5-.7-.28-1.08.22-.38.7-.51,1.07-.3Z"/>
        <path class="cls-7" d="M346.05,245.35c.37.22.5.7.28,1.08-.22.38-.7.51-1.07.3-.37-.22-.5-.7-.28-1.08.22-.38.7-.51,1.07-.3Z"/>
        <path class="cls-7" d="M350.39,237.83c.37.22.5.7.28,1.08-.22.38-.7.51-1.07.3-.37-.22-.5-.7-.28-1.08s.7-.51,1.07-.3Z"/>
        <path class="cls-7" d="M354.73,230.31c.37.22.5.7.28,1.08-.22.38-.7.51-1.07.3-.37-.22-.5-.7-.28-1.08.22-.38.7-.51,1.07-.3Z"/>
        <path class="cls-7" d="M359.07,222.8c.37.22.5.7.28,1.08-.22.38-.7.51-1.07.3s-.5-.7-.28-1.08.7-.51,1.07-.3Z"/>
        <path class="cls-7" d="M363.41,215.28c.37.22.5.7.28,1.08-.22.38-.7.51-1.07.3-.37-.22-.5-.7-.28-1.08.22-.38.7-.51,1.07-.3Z"/>
        <path class="cls-7" d="M367.75,207.76c.37.22.5.7.28,1.08s-.7.51-1.07.3c-.37-.22-.5-.7-.28-1.08s.7-.51,1.07-.3Z"/>
        <g class="cls-13">
          <path class="cls-7" d="M285.65,350.74c0,.43-.2.78-.45.78s-.45-.35-.45-.78.2-.78.45-.78.45.35.45.78Z"/>
        </g>
        <g class="cls-6">
          <path class="cls-7" d="M285.43,350.35c.37.22.57.56.45.78-.12.22-.53.22-.9,0-.37-.22-.57-.56-.45-.78s.53-.22.9,0Z"/>
        </g>
      </g>
      <g>
        <path class="cls-7" d="M287.54,355.16c-.37.22-.86.07-1.09-.32s-.11-.89.26-1.1c.37-.22.86-.07,1.09.32.23.39.11.89-.26,1.1Z"/>
        <path class="cls-7" d="M292.04,362.96c-.37.22-.86.07-1.09-.32-.23-.39-.11-.89.26-1.1.37-.22.86-.07,1.09.32.23.39.11.89-.26,1.1Z"/>
        <path class="cls-7" d="M296.54,370.75c-.37.22-.86.07-1.09-.32-.23-.39-.11-.89.26-1.1.37-.22.86-.07,1.09.32.23.39.11.89-.26,1.1Z"/>
        <path class="cls-7" d="M301.05,378.54c-.37.22-.86.07-1.09-.32-.23-.39-.11-.89.26-1.1.37-.22.86-.07,1.09.32.23.39.11.89-.26,1.1Z"/>
        <path class="cls-7" d="M305.55,386.34c-.37.22-.86.07-1.09-.32-.23-.39-.11-.89.26-1.1.37-.22.86-.07,1.09.32.23.39.11.89-.26,1.1Z"/>
      </g>
      <line class="cls-2" x1="87.01" y1="7.47" x2="113.66" y2="53.63"/>
      <g>
        <path d="M141.9,48.9c.52.14.92.72.62,1.24-.24.42-.66.72-1.06,1-1.27.87-2.63,1.61-3.98,2.35-2.09,1.15-4.06,2.12-6.06,3.32,1.56,2.54,3.27,5,4.71,7.62.34.76.98,1.51.91,2.38-.13.64-.86.78-1.41.64-3.05-.7-5.91-2.06-8.84-3.13-.15,2.73-.03,5.44-.17,8.17-.05.74-.04,1.5-.23,2.23-.43.98-1.45.4-1.98-.16-2.59-2.28-4.7-5.03-6.79-7.76-.85,1.24-1.74,2.45-2.67,3.62-.99,1.24-2.05,2.42-3.15,3.56-.63.54-1.37,1.8-2.32,1.53-.46-.17-.6-.66-.72-1.09-.29-1.08-.5-2.17-.73-3.27-.52-2.34-1.04-4.7-1.63-6.97-1.8.91-3.61,1.79-5.43,2.66-.93.42-1.88.91-2.9,1-1.08.08-1.4-.84-1.09-1.75.71-3.39,2.47-6.41,3.63-9.64-1.99-.34-3.99-.62-5.98-.96-.8-.13-1.6-.26-2.37-.49-1.4-.39-1.76-1.52-.37-2.28,3.22-1.97,6.25-4.22,9.47-6.16-1.33-1.53-2.75-3-3.78-4.76-.46-.73-1.45-2.13-.18-2.58.69-.1,1.41.09,2.1.13,2.28.28,4.55.61,6.83.88.08-2.62.3-5.25.67-7.86.11-.77.23-1.53.38-2.29.11-.54.24-1.24.87-1.35.61-.1.93.48,1.16.94.73,1.28,1.43,2.59,2.1,3.86.52.95.98,1.93,1.44,2.91.21.46.42.92.62,1.38.18-.24.37-.48.55-.71,1.41-1.8,2.71-3.69,4.1-5.51.84-.99,1.53-2.18,2.54-2.99,1.66-.45,1.02,1.84,1.02,2.75-.18,3.27-.59,6.52-.49,9.79,2.45-1.57,4.95-3.07,7.6-4.29.66-.32,1.34-.63,2.02-.92.55-.31,1.3-.06,1.33.63-.38,1.88-1.35,3.62-2.02,5.42-.49,1.28-1.04,2.54-1.47,3.85,2.96.6,5.94,1.08,8.88,1.82,1.47.32,2.88.68,4.27,1.23ZM140.53,49.98c-3.35-1.01-6.8-1.7-10.24-2.3-1.6-.36-3.88-.26-2.85-2.6.86-2.45,1.94-4.81,2.87-7.23-2.55,1.14-5,2.5-7.35,4.01-.76.38-1.54,1.28-2.45,1.08-.85-.32-.65-1.38-.72-2.11-.05-3.16.31-6.31.49-9.46-1.75,2.17-3.3,4.49-5.02,6.69-.45.57-.88,1.15-1.33,1.71-.26.3-.77.3-1.05.03-.01,0-.02-.03-.03-.04-.15-.12-.27-.29-.31-.51-.3-.8-.68-1.57-1.04-2.34-.86-1.89-1.88-3.71-2.87-5.54-.53,3.19-.75,6.37-.89,9.59-.07,1.14-1.29.82-2.06.7-2.35-.27-4.67-.64-7.02-.89.69,1.13,1.42,2.12,2.28,3.1.49.55.99,1.09,1.46,1.65.27.37.69.72.71,1.2,0,.38-.22.63-.51.83-.61.4-1.26.72-1.86,1.13-2.54,1.69-5.04,3.43-7.64,5.02,2.21.47,4.45.74,6.67,1.11,1.02.24,2.9.06,2.38,1.67-1.07,3.32-2.93,6.35-3.69,9.78,2.26-.82,4.36-2.02,6.53-3.04,1.79-.94,2.47-1.39,2.94.99.8,3.12,1.43,6.27,2.14,9.4,1.14-1.12,2.22-2.32,3.25-3.55,1.11-1.38,2.17-2.8,3.17-4.26.09-.12.22-.2.35-.25.06-.14.18-.26.35-.34,1.05-.52,1.59.76,2.15,1.41,1.79,2.3,3.58,4.61,5.74,6.56.83-13.88-2.48-11.33,10.11-7.35-1.5-2.83-3.32-5.45-5.01-8.17-.88-1.28-.17-1.8.97-2.41,3.15-1.83,6.35-3.26,9.38-5.26Z"/>
        <path class="cls-8" d="M130.29,47.67c3.44.6,6.89,1.3,10.24,2.3-3.03,2-6.22,3.43-9.38,5.26-1.14.6-1.85,1.13-.97,2.41,1.69,2.72,3.51,5.34,5.01,8.17-12.59-3.98-9.28-6.52-10.11,7.35-2.17-1.95-3.96-4.26-5.74-6.56-.56-.65-1.1-1.93-2.15-1.41-.17.08-.29.2-.35.34-.13.05-.26.13-.35.25-1,1.46-2.06,2.89-3.17,4.26-1.03,1.23-2.1,2.43-3.25,3.55-.71-3.12-1.34-6.28-2.14-9.4-.47-2.38-1.16-1.93-2.94-.99-2.17,1.02-4.27,2.22-6.53,3.04.76-3.43,2.62-6.46,3.69-9.78.52-1.61-1.36-1.43-2.38-1.67-2.22-.37-4.46-.65-6.67-1.11,2.6-1.59,5.1-3.33,7.64-5.02.61-.41,1.25-.74,1.86-1.13.29-.2.51-.45.51-.83-.02-.48-.43-.83-.71-1.2-.47-.56-.97-1.1-1.46-1.65-.86-.98-1.59-1.96-2.28-3.1,2.35.25,4.68.63,7.02.89.77.11,1.99.44,2.06-.7.14-3.22.36-6.4.89-9.59,1,1.83,2.01,3.64,2.87,5.54.36.77.73,1.54,1.04,2.34.04.22.16.39.31.51,0,.02.02.03.03.04.28.27.79.27,1.05-.03.46-.56.88-1.14,1.33-1.71,1.72-2.2,3.27-4.52,5.02-6.69-.19,3.15-.54,6.3-.49,9.46.07.73-.13,1.79.72,2.11.91.2,1.69-.7,2.45-1.08,2.35-1.51,4.8-2.87,7.35-4.01-.93,2.42-2.01,4.79-2.87,7.23-1.02,2.33,1.25,2.24,2.85,2.6Z"/>
      </g>
      <g>
        <path class="cls-10" d="M313.74,385.53c3.18-2.67,6.4-5.52,9.7-8.62-4.61-.15-8.73-.12-12.85-.02-1.61-4.18-3.29-8.32-4.98-12.28-1.58,4.39-2.93,8.53-4.19,12.59-3.62.13-7.47.27-11.84.35,3.15,2.32,6.33,4.86,9.51,7.44-1.37,4.72-2.7,9.5-4.2,14.66,3.92-2.6,7.85-5.4,11.84-8.47,3.83,3.07,7.63,6,11.35,8.47-1.2-4.6-2.69-9.35-4.34-14.11Z"/>
        <path d="M314.14,385.93c3.31-2.79,6.54-5.66,9.7-8.62.37-.34.07-.94-.4-.96-4.28-.13-8.56-.12-12.85-.02l.54.41c-1.6-4.17-3.29-8.31-5.04-12.42-.21-.49-.88-.27-1.02.13-1.49,4.16-2.88,8.36-4.19,12.59l.54-.41c-3.94.14-7.89.27-11.84.35-.59.01-.71.73-.28,1.04,3.2,2.36,6.31,4.84,9.39,7.35l-.14-.55c-1.41,4.88-2.79,9.78-4.2,14.66-.13.45.41.91.82.63,4.04-2.69,7.99-5.51,11.84-8.47l-.68-.09c3.72,2.98,7.49,5.91,11.46,8.56.42.28.94-.18.82-.63-1.25-4.76-2.73-9.46-4.34-14.11-.23-.68-1.32-.39-1.08.3,1.61,4.65,3.09,9.35,4.34,14.11l.82-.63c-3.89-2.6-7.59-5.46-11.24-8.38-.18-.14-.47-.25-.68-.09-3.85,2.96-7.8,5.78-11.84,8.47l.82.63c1.41-4.88,2.79-9.78,4.2-14.66.05-.18,0-.42-.14-.55-3.16-2.57-6.35-5.1-9.62-7.52l-.28,1.04c3.95-.08,7.89-.21,11.84-.35.25,0,.47-.17.54-.41,1.31-4.22,2.7-8.42,4.19-12.59l-1.02.13c1.71,4.02,3.35,8.07,4.92,12.15.09.23.28.42.54.41,4.28-.1,8.56-.11,12.85.02l-.4-.96c-3.16,2.96-6.39,5.83-9.7,8.62-.55.47.24,1.26.79.79Z"/>
      </g>
      <path d="M339.17,42.46c.26.09.41.35.36.61-.07.37-.49.48-.79.6-.25.1-.5.2-.75.29-2.4.99-4.88,2.02-6.55,4.1-.86,1.17-1.18,2.64-1.34,4.07-.23,2.13-.29,4.28-.34,6.43-.01.53-.02,1.07-.07,1.6-.03.29-.04.63-.31.8-.23.16-.54.1-.71-.13-.16-.23-.16-.53-.2-.8-.07-.67-.15-1.33-.22-2-.31-2.31-.43-4.69-1.6-6.74-1.33-2.18-4.1-2.38-6.39-2.7-1.06-.2-5.29-.42-5.75-1.16-.45-.99,1.44-1.05,2.03-1.27,2.43-.63,5.37-1.05,7.1-3.01,1.75-2.66,1.1-7.3,1.18-10.41-.12-.42.42-.79.77-.53.37.32.32.92.46,1.37.26,1.43.48,2.87.79,4.29.2.96.52,1.92,1.13,2.71,1.57,2.07,4.39,2.02,6.74,1.97,1.48,0,2.98-.29,4.44-.08ZM336.53,43.47c-4.81.29-9.48.37-10.66-5.37-.05,1.88-.26,3.86-1.28,5.49-1.81,2.34-5.01,2.83-7.71,3.52.59.1,1.19.17,1.79.24,5.8.68,9.21.86,10.21,7.51.25-6.62,1.48-8.72,7.65-11.4Z"/>
      <path d="M357.24,322.61c2.35.05,5.17.1,6.74-1.97.61-.79.93-1.75,1.13-2.71.31-1.42.53-2.86.79-4.29.13-.45.08-1.04.46-1.37.35-.26.89.11.77.53.08,3.12-.57,7.75,1.18,10.41,1.73,1.96,4.67,2.38,7.1,3.01.59.22,2.48.28,2.03,1.27-.46.74-4.69.96-5.75,1.16-2.29.32-5.06.52-6.39,2.7-1.17,2.05-1.29,4.43-1.6,6.74-.07.67-.15,1.33-.22,2-.04.27-.04.57-.2.8-.17.22-.48.28-.71.13-.27-.18-.27-.52-.31-.8-.05-.53-.05-1.07-.07-1.6-.05-2.14-.11-4.29-.34-6.43-.16-1.43-.48-2.89-1.34-4.07-1.66-2.07-4.14-3.11-6.55-4.1-.25-.1-.5-.2-.75-.29-.3-.12-.72-.23-.79-.6-.05-.27.11-.53.36-.61,1.46-.21,2.96.09,4.44.08ZM363.1,334.94c1.01-6.65,4.42-6.84,10.21-7.51.6-.07,1.19-.15,1.79-.24-2.7-.69-5.9-1.18-7.71-3.52-1.02-1.63-1.23-3.61-1.28-5.49-1.17,5.74-5.85,5.66-10.66,5.37,6.17,2.68,7.4,4.78,7.65,11.4Z"/>
      <path d="M4.81,243.46c2.35.05,5.17.1,6.74-1.97.61-.79.93-1.75,1.13-2.71.31-1.42.53-2.86.79-4.29.13-.45.08-1.04.46-1.37.35-.26.89.11.77.53.08,3.12-.57,7.75,1.18,10.41,1.73,1.96,4.67,2.38,7.1,3.01.59.22,2.48.28,2.03,1.27-.46.74-4.69.96-5.75,1.16-2.29.32-5.06.52-6.39,2.7-1.17,2.05-1.29,4.43-1.6,6.74-.07.67-.15,1.33-.22,2-.04.27-.04.57-.2.8-.17.22-.48.28-.71.13-.27-.18-.27-.52-.31-.8-.05-.53-.05-1.07-.07-1.6-.05-2.14-.11-4.29-.34-6.43-.16-1.43-.48-2.89-1.34-4.07-1.66-2.07-4.14-3.11-6.55-4.1-.25-.1-.5-.2-.74-.29-.3-.12-.72-.23-.79-.6-.05-.27.11-.53.36-.61,1.46-.21,2.96.09,4.44.08ZM10.66,255.79c1.01-6.65,4.42-6.84,10.21-7.51.6-.07,1.19-.15,1.79-.24-2.7-.69-5.9-1.18-7.71-3.52-1.02-1.63-1.23-3.61-1.28-5.49-1.17,5.74-5.85,5.66-10.66,5.37,6.17,2.68,7.4,4.78,7.65,11.4Z"/>
      <g>
        <path class="cls-11" d="M122.31,350.29c-1.07-.73-2.75-1.25-1.29-2.67,1.36-1.3,2.88-2.33,4.21-3.68-1.62.05-3.24.04-4.85.18-.88.02-2.35.64-2.74-.49-.34-1.29-.27-2.66-.48-3.98-.24-1.65-.44-3.31-.73-4.95-.65,1.48-1.66,2.76-2.37,4.21-.34.76-.69,1.53-1.04,2.29-.11.24-.25.49-.51.59-.52.25-.87-.28-1.15-.63-.44-.61-.92-1.18-1.41-1.74-.98-1-1.95-2.02-2.86-3.08.61,11.16,3.2,8.56-6.79,6.76,1.6,2.13,3.39,4.14,5.31,5.98.65.44.82,1.3,0,1.65-.74.39-1.49.76-2.23,1.15-1.13.66-2.31,1.24-3.44,1.89,1.71.45,3.46.66,5.18,1.02.93.21,1.94.11,2.84.4.94.75.22,2.25.08,3.23-.42,1.76-.79,3.52-1.27,5.26,2.09-1.98,3.93-4.26,6.27-5.95,1.11-.5,2.16,2.18,2.79,2.9.66,1.02,1.35,2.01,2.08,2.97.3-2.6.72-5.18,1.02-7.78.08-.56-.05-1.42.63-1.64.74-.14,1.5-.05,2.25-.08,1.66-.1,3.32-.33,4.99-.33-1.53-1.12-2.9-2.44-4.49-3.47Z"/>
        <path d="M121.02,347.62c1.36-1.3,2.88-2.33,4.21-3.68-1.62.05-3.24.04-4.85.18-.88.02-2.35.64-2.74-.49-.34-1.29-.27-2.66-.48-3.98-.24-1.65-.44-3.31-.73-4.95-.65,1.48-1.66,2.76-2.37,4.21-.34.76-.69,1.53-1.04,2.29-.11.24-.25.49-.51.59-.52.25-.87-.28-1.15-.63-.44-.61-.92-1.18-1.41-1.74-.98-1-1.95-2.02-2.86-3.08.61,11.16,3.2,8.56-6.79,6.76,1.6,2.13,3.39,4.14,5.31,5.98.65.44.82,1.3,0,1.65-.74.39-1.49.76-2.23,1.15-1.13.66-2.31,1.24-3.44,1.89,1.71.45,3.46.66,5.18,1.02.93.21,1.94.11,2.84.4.94.75.22,2.25.08,3.23-.42,1.76-.79,3.52-1.27,5.26,2.09-1.98,3.93-4.26,6.27-5.95,1.11-.5,2.16,2.18,2.79,2.9.66,1.02,1.35,2.01,2.08,2.97.3-2.6.72-5.18,1.02-7.78.08-.56-.05-1.42.63-1.64.74-.14,1.5-.05,2.25-.08,1.66-.1,3.32-.33,4.99-.33-1.53-1.12-2.9-2.44-4.49-3.47-1.07-.73-2.75-1.25-1.29-2.67ZM119.5,361.43c-.29.98-.06,5.03-1.89,3.91-1.63-1.92-2.89-4.12-4.33-6.18-2.5,1.98-4.38,4.66-6.95,6.55-1.95.37-.6-2.93-.44-3.87.37-1.84.95-3.64,1.21-5.5-1.96-.15-3.75-.59-5.72-.9-.65-.14-1.3-.31-1.95-.46-.73-.14-2.09-.46-1.45-1.47.84-.76,1.96-1.19,2.95-1.76,1.18-.66,2.36-1.31,3.57-1.92-1.5-1.45-2.89-3.04-4.24-4.64-.53-.77-2.5-2.61-1.19-3.37.73-.26,1.53.05,2.27.15,1.73.28,3.42.82,5.11,1.29-.24-2.21-.5-4.43-.65-6.66.02-.69-.39-1.92.26-2.47.5-.32.98.16,1.27.53,1.51,1.87,3.32,3.47,4.79,5.37.63-1.45,1.33-2.86,2.21-4.18.65-.95.98-2.08,1.65-3.02,1.69-1.44,1.77,2.42,1.99,3.36.36,2.26.59,4.53.83,6.81,2.26-.31,4.54-.31,6.82-.36.41,0,.85-.07,1.25.05.59.23.5.96.08,1.31-1.48,1.72-3.36,3.01-5.01,4.53,1.66.97,3.14,2.18,4.6,3.4.71.58,1.5,1.08,2.12,1.76.87,1.54-1.79,1.36-2.67,1.4-1.9.08-3.8.37-5.74.33-.18,2.02-.54,4.01-.76,6.01Z"/>
      </g>
    </g>
  </g>
</svg>